ChironHeiHKVF-weight0-Master.ufo
<glyph name="downtackbelowcmb" format="2">
  <advance height="1000"/>
  <unicode hex="031E"/>
  <outline>
    <contour>
      <point x="-15" y="-275" type="line"/>
      <point x="15" y="-275" type="line"/>
      <point x="15" y="-159" type="line"/>
      <point x="94" y="-159" type="line"/>
      <point x="94" y="-129" type="line"/>
      <point x="-94" y="-129" type="line"/>
      <point x="-94" y="-159" type="line"/>
      <point x="-15" y="-159" type="line"/>
    </contour>
  </outline>
</glyph>
<glyph name="uni1102.ljmo05" format="2">
  <advance height="1000" width="920"/>
  <unicode hex="1102"/>
  <outline>
    <contour>
      <point x="162" y="735" type="line"/>
      <point x="162" y="427" type="line"/>
      <point x="195" y="427" type="line"/>
      <point x="195" y="735" type="line"/>
    </contour>
    <contour>
      <point x="162" y="447" type="line"/>
      <point x="162" y="417" type="line"/>
      <point x="758" y="417" type="line"/>
      <point x="758" y="447" type="line"/>
    </contour>
  </outline>
</glyph>
<glyph name="uni116E" format="2">
  <advance height="1000" width="920"/>
  <unicode hex="116E"/>
  <outline>
    <contour>
      <point x="59" y="384" type="line"/>
      <point x="59" y="355" type="line"/>
      <point x="860" y="355" type="line"/>
      <point x="860" y="384" type="line"/>
    </contour>
    <contour>
      <point x="441" y="370" type="line"/>
      <point x="441" y="254" type="line"/>
      <point x="473" y="254" type="line"/>
      <point x="473" y="370" type="line"/>
    </contour>
  </outline>
</glyph>
<glyph name="uni31D5" format="2">
  <advance height="1000" width="1000"/>
  <unicode hex="31D5"/>
  <outline>
    <contour>
      <point x="278" y="691" type="line"/>
      <point x="278" y="662" type="line"/>
      <point x="643" y="662" type="line"/>
      <point x="643" y="70" type="line"/>
      <point x="672" y="70" type="line"/>
      <point x="672" y="691" type="line"/>
    </contour>
  </outline>
</glyph>
<glyph name="uni3AD7" format="2">
  <advance height="1000" width="1000"/>
  <unicode hex="3AD7"/>
  <outline>
    <contour>
      <point x="192" y="382" type="line"/>
      <point x="192" y="353" type="line"/>
      <point x="767" y="353" type="line"/>
      <point x="767" y="382" type="line"/>
    </contour>
    <contour>
      <point x="54" y="197" type="line"/>
      <point x="54" y="168" type="line"/>
      <point x="946" y="168" type="line"/>
      <point x="946" y="197" type="line"/>
    </contour>
    <contour>
      <point x="498" y="249" type="line"/>
      <point x="498" y="-22" type="line" smooth="yes"/>
      <point x="498" y="-36"/>
      <point x="493" y="-41"/>
      <point x="476" y="-42" type="curve" smooth="yes"/>
      <point x="457" y="-44"/>
      <point x="397" y="-44"/>
      <point x="313" y="-42" type="curve"/>
      <point x="319" y="-51"/>
      <point x="326" y="-62"/>
      <point x="329" y="-69" type="curve"/>
      <point x="426" y="-69"/>
      <point x="472" y="-70"/>
      <point x="496" y="-65" type="curve"/>
      <point x="521" y="-58"/>
      <point x="528" y="-47"/>
      <point x="528" y="-21" type="curve" smooth="yes"/>
      <point x="528" y="249" type="line"/>
    </contour>
    <contour>
      <point x="757" y="382" type="line"/>
      <point x="757" y="376" type="line"/>
      <point x="697" y="328"/>
      <point x="589" y="278"/>
      <point x="498" y="249" type="curve"/>
      <point x="505" y="244"/>
      <point x="513" y="236"/>
      <point x="518" y="229" type="curve"/>
      <point x="609" y="260"/>
      <point x="721" y="312"/>
      <point x="792" y="369" type="curve"/>
      <point x="770" y="384" type="line"/>
      <point x="764" y="382" type="line"/>
    </contour>
    <contour>
      <point x="198" y="609" type="line"/>
      <point x="803" y="609" type="line"/>
      <point x="803" y="494" type="line"/>
      <point x="198" y="494" type="line"/>
    </contour>
    <contour>
      <point x="198" y="751" type="line"/>
      <point x="803" y="751" type="line"/>
      <point x="803" y="638" type="line"/>
      <point x="198" y="638" type="line"/>
    </contour>
    <contour>
      <point x="169" y="780" type="line"/>
      <point x="169" y="465" type="line"/>
      <point x="832" y="465" type="line"/>
      <point x="832" y="780" type="line"/>
    </contour>
  </outline>
</glyph>
<glyph name="uni4E86" format="2">
  <advance height="1000" width="1000"/>
  <unicode hex="4E86"/>
  <outline>
    <contour>
      <point x="487" y="485" type="line"/>
      <point x="487" y="-14" type="line" smooth="yes"/>
      <point x="487" y="-32"/>
      <point x="481" y="-38"/>
      <point x="460" y="-39" type="curve" smooth="yes"/>
      <point x="437" y="-41"/>
      <point x="365" y="-42"/>
      <point x="269" y="-39" type="curve"/>
      <point x="274" y="-49"/>
      <point x="280" y="-61"/>
      <point x="281" y="-69" type="curve"/>
      <point x="389" y="-69"/>
      <point x="450" y="-69"/>
      <point x="478" y="-64" type="curve" smooth="yes"/>
      <point x="507" y="-58"/>
      <point x="517" y="-46"/>
      <point x="517" y="-13" type="curve" smooth="yes"/>
      <point x="517" y="485" type="line"/>
    </contour>
    <contour>
      <point x="100" y="744" type="line"/>
      <point x="100" y="715" type="line"/>
      <point x="846" y="715" type="line"/>
      <point x="846" y="744" type="line"/>
    </contour>
    <contour>
      <point x="837" y="744" type="line"/>
      <point x="837" y="736" type="line"/>
      <point x="760" y="650"/>
      <point x="611" y="543"/>
      <point x="487" y="485" type="curve"/>
      <point x="493" y="480"/>
      <point x="502" y="472"/>
      <point x="507" y="466" type="curve"/>
      <point x="632" y="526"/>
      <point x="784" y="631"/>
      <point x="873" y="731" type="curve"/>
      <point x="851" y="746" type="line"/>
      <point x="844" y="744" type="line"/>
    </contour>
  </outline>
</glyph>
<glyph name="uni50DD" format="2">
  <advance height="1000" width="1000"/>
  <unicode hex="50DD"/>
  <outline>
    <contour>
      <point x="343" y="794" type="line"/>
      <point x="343" y="765" type="line"/>
      <point x="879" y="765" type="line"/>
      <point x="879" y="666" type="line"/>
      <point x="343" y="666" type="line"/>
      <point x="343" y="636" type="line"/>
      <point x="909" y="636" type="line"/>
      <point x="909" y="794" type="line"/>
    </contour>
    <contour>
      <point x="329" y="794" type="line"/>
      <point x="329" y="475" type="line" smooth="yes"/>
      <point x="329" y="321"/>
      <point x="320" y="112"/>
      <point x="227" y="-41" type="curve"/>
      <point x="234" y="-44"/>
      <point x="246" y="-53"/>
      <point x="251" y="-59" type="curve"/>
      <point x="346" y="97"/>
      <point x="358" y="317"/>
      <point x="358" y="475" type="curve" smooth="yes"/>
      <point x="358" y="794" type="line"/>
    </contour>
    <contour>
      <point x="479" y="580" type="line"/>
      <point x="479" y="551" type="line"/>
      <point x="819" y="551" type="line"/>
      <point x="819" y="580" type="line"/>
    </contour>
    <contour>
      <point x="405" y="462" type="line"/>
      <point x="405" y="432" type="line"/>
      <point x="935" y="432" type="line"/>
      <point x="935" y="462" type="line"/>
    </contour>
    <contour>
      <point x="813" y="580" type="line"/>
      <point x="813" y="573" type="line"/>
      <point x="774" y="547"/>
      <point x="708" y="521"/>
      <point x="654" y="503" type="curve"/>
      <point x="660" y="499"/>
      <point x="669" y="492"/>
      <point x="673" y="486" type="curve"/>
      <point x="728" y="504"/>
      <point x="801" y="532"/>
      <point x="849" y="567" type="curve"/>
      <point x="826" y="582" type="line"/>
      <point x="819" y="580" type="line"/>
    </contour>
    <contour>
      <point x="344" y="82" type="curve"/>
      <point x="357" y="54" type="line"/>
      <point x="434" y="71"/>
      <point x="533" y="93"/>
      <point x="631" y="116" type="curve"/>
      <point x="628" y="142" type="line"/>
      <point x="523" y="119"/>
      <point x="417" y="96"/>
    </contour>
    <contour>
      <point x="654" y="503" type="line"/>
      <point x="654" y="365" type="line" smooth="yes"/>
      <point x="654" y="355"/>
      <point x="652" y="352"/>
      <point x="640" y="352" type="curve"/>
      <point x="627" y="351"/>
      <point x="592" y="351"/>
      <point x="540" y="352" type="curve"/>
      <point x="545" y="343"/>
      <point x="550" y="333"/>
      <point x="552" y="326" type="curve"/>
      <point x="611" y="326"/>
      <point x="644" y="325"/>
      <point x="662" y="330" type="curve"/>
      <point x="679" y="336"/>
      <point x="683" y="345"/>
      <point x="683" y="365" type="curve" smooth="yes"/>
      <point x="683" y="503" type="line"/>
    </contour>
    <contour>
      <point x="380" y="276" type="line"/>
      <point x="380" y="246" type="line"/>
      <point x="623" y="246" type="line"/>
      <point x="623" y="276" type="line"/>
    </contour>
    <contour>
      <point x="610" y="276" type="line"/>
      <point x="610" y="269" type="line"/>
      <point x="581" y="240"/>
      <point x="530" y="207"/>
      <point x="488" y="186" type="curve"/>
      <point x="495" y="182"/>
      <point x="503" y="177"/>
      <point x="508" y="171" type="curve"/>
      <point x="550" y="192"/>
      <point x="606" y="227"/>
      <point x="644" y="264" type="curve"/>
      <point x="623" y="278" type="line"/>
      <point x="617" y="276" type="line"/>
    </contour>
    <contour>
      <point x="488" y="186" type="line"/>
      <point x="488" y="-24" type="line" smooth="yes"/>
      <point x="488" y="-33"/>
      <point x="486" y="-36"/>
      <point x="475" y="-37" type="curve" smooth="yes"/>
      <point x="463" y="-38"/>
      <point x="427" y="-38"/>
      <point x="378" y="-37" type="curve"/>
      <point x="383" y="-45"/>
      <point x="388" y="-56"/>
      <point x="390" y="-64" type="curve"/>
      <point x="446" y="-64"/>
      <point x="478" y="-64"/>
      <point x="496" y="-59" type="curve"/>
      <point x="513" y="-53"/>
      <point x="517" y="-44"/>
      <point x="517" y="-23" type="curve" smooth="yes"/>
      <point x="517" y="186" type="line"/>
    </contour>
    <contour>
      <point x="687" y="276" type="line"/>
      <point x="687" y="246" type="line"/>
      <point x="926" y="246" type="line"/>
      <point x="926" y="276" type="line"/>
    </contour>
    <contour>
      <point x="653" y="124" type="line"/>
      <point x="653" y="94" type="line"/>
      <point x="963" y="94" type="line"/>
      <point x="963" y="124" type="line"/>
    </contour>
    <contour>
      <point x="918" y="276" type="line"/>
      <point x="918" y="269" type="line"/>
      <point x="889" y="240"/>
      <point x="836" y="207"/>
      <point x="793" y="186" type="curve"/>
      <point x="799" y="182"/>
      <point x="807" y="177"/>
      <point x="812" y="171" type="curve"/>
      <point x="857" y="192"/>
      <point x="914" y="227"/>
      <point x="953" y="264" type="curve"/>
      <point x="931" y="278" type="line"/>
      <point x="925" y="276" type="line"/>
    </contour>
    <contour>
      <point x="793" y="186" type="line"/>
      <point x="793" y="-32" type="line" smooth="yes"/>
      <point x="793" y="-42"/>
      <point x="790" y="-45"/>
      <point x="778" y="-46" type="curve" smooth="yes"/>
      <point x="767" y="-47"/>
      <point x="730" y="-47"/>
      <point x="679" y="-45" type="curve"/>
      <point x="684" y="-54"/>
      <point x="689" y="-65"/>
      <point x="691" y="-72" type="curve"/>
      <point x="749" y="-72"/>
      <point x="782" y="-73"/>
      <point x="801" y="-67" type="curve" smooth="yes"/>
      <point x="818" y="-62"/>
      <point x="822" y="-53"/>
      <point x="822" y="-32" type="curve" smooth="yes"/>
      <point x="822" y="186" type="line"/>
    </contour>
    <contour>
      <point x="244" y="823" type="line"/>
      <point x="197" y="666"/>
      <point x="120" y="514"/>
      <point x="30" y="414" type="curve"/>
      <point x="36" y="408"/>
      <point x="47" y="396"/>
      <point x="52" y="390" type="curve"/>
      <point x="142" y="497"/>
      <point x="222" y="652"/>
      <point x="273" y="817" type="curve"/>
    </contour>
    <contour>
      <point x="167" y="606" type="line"/>
      <point x="167" y="-67" type="line"/>
      <point x="196" y="-67" type="line"/>
      <point x="196" y="634" type="line"/>
      <point x="196" y="635" type="line"/>
    </contour>
  </outline>
</glyph>
<glyph name="uni52D0" format="2">
  <advance height="1000" width="1000"/>
  <unicode hex="52D0"/>
  <outline>
    <contour>
      <point x="111" y="776" type="line"/>
      <point x="111" y="747" type="line"/>
      <point x="474" y="747" type="line"/>
      <point x="474" y="776" type="line"/>
    </contour>
    <contour>
      <point x="64" y="562" type="line"/>
      <point x="64" y="532" type="line"/>
      <point x="524" y="532" type="line"/>
      <point x="524" y="562" type="line"/>
    </contour>
    <contour>
      <point x="281" y="643" type="line"/>
      <point x="281" y="376" type="line" smooth="yes"/>
      <point x="281" y="365"/>
      <point x="279" y="361"/>
      <point x="265" y="360" type="curve" smooth="yes"/>
      <point x="250" y="359"/>
      <point x="211" y="359"/>
      <point x="148" y="360" type="curve"/>
      <point x="155" y="351"/>
      <point x="163" y="339"/>
      <point x="166" y="330" type="curve"/>
      <point x="231" y="330"/>
      <point x="265" y="330"/>
      <point x="285" y="337" type="curve"/>
      <point x="306" y="343"/>
      <point x="312" y="354"/>
      <point x="312" y="376" type="curve" smooth="yes"/>
      <point x="312" y="643" type="line"/>
    </contour>
    <contour>
      <point x="464" y="776" type="line"/>
      <point x="464" y="769" type="line"/>
      <point x="423" y="724"/>
      <point x="347" y="673"/>
      <point x="281" y="643" type="curve"/>
      <point x="288" y="638"/>
      <point x="297" y="630"/>
      <point x="302" y="624" type="curve"/>
      <point x="368" y="657"/>
      <point x="448" y="710"/>
      <point x="498" y="765" type="curve"/>
      <point x="476" y="778" type="line"/>
      <point x="471" y="776" type="line"/>
    </contour>
    <contour>
      <point x="38" y="0" type="curve"/>
      <point x="44" y="-30" type="line"/>
      <point x="169" y="-16"/>
      <point x="359" y="5"/>
      <point x="540" y="27" type="curve"/>
      <point x="540" y="55" type="line"/>
      <point x="351" y="33"/>
      <point x="158" y="12"/>
    </contour>
    <contour>
      <point x="98" y="295" type="line"/>
      <point x="98" y="-12" type="line"/>
      <point x="129" y="-8" type="line"/>
      <point x="129" y="295" type="line"/>
    </contour>
    <contour>
      <point x="218" y="279" type="line"/>
      <point x="218" y="6" type="line"/>
      <point x="247" y="7" type="line"/>
      <point x="247" y="279" type="line"/>
    </contour>
    <contour>
      <point x="339" y="279" type="line"/>
      <point x="339" y="18" type="line"/>
      <point x="369" y="23" type="line"/>
      <point x="369" y="279" type="line"/>
    </contour>
    <contour>
      <point x="461" y="295" type="line"/>
      <point x="461" y="33" type="line"/>
      <point x="490" y="38" type="line"/>
      <point x="490" y="295" type="line"/>
    </contour>
    <contour>
      <point x="112" y="295" type="line"/>
      <point x="112" y="266" type="line"/>
      <point x="475" y="266" type="line"/>
      <point x="475" y="295" type="line"/>
    </contour>
    <contour>
      <point x="547" y="588" type="line"/>
      <point x="547" y="559" type="line"/>
      <point x="901" y="559" type="line"/>
      <point x="901" y="588" type="line"/>
    </contour>
    <contour>
      <point x="889" y="588" type="line"/>
      <point x="889" y="579" type="line" smooth="yes"/>
      <point x="879" y="155"/>
      <point x="867" y="10"/>
      <point x="841" y="-20" type="curve"/>
      <point x="832" y="-32"/>
      <point x="822" y="-34"/>
      <point x="806" y="-34" type="curve" smooth="yes"/>
      <point x="788" y="-34"/>
      <point x="737" y="-34"/>
      <point x="682" y="-29" type="curve"/>
      <point x="688" y="-37"/>
      <point x="690" y="-50"/>
      <point x="691" y="-60" type="curve"/>
      <point x="737" y="-63"/>
      <point x="784" y="-64"/>
      <point x="811" y="-63" type="curve" smooth="yes"/>
      <point x="837" y="-63"/>
      <point x="853" y="-57"/>
      <point x="868" y="-38" type="curve" smooth="yes"/>
      <point x="898" y="1"/>
      <point x="908" y="133"/>
      <point x="918" y="566" type="curve" smooth="yes"/>
      <point x="918" y="572"/>
      <point x="918" y="588"/>
      <point x="918" y="588" type="curve"/>
    </contour>
    <contour>
      <point x="704" y="829" type="line"/>
      <point x="703" y="505"/>
      <point x="698" y="127"/>
      <point x="515" y="-54" type="curve"/>
      <point x="524" y="-57"/>
      <point x="538" y="-65"/>
      <point x="544" y="-70" type="curve"/>
      <point x="728" y="121"/>
      <point x="731" y="493"/>
      <point x="733" y="829" type="curve"/>
    </contour>
  </outline>
</glyph>
<glyph name="uni539A" format="2">
  <advance height="1000" width="1000"/>
  <unicode hex="539A"/>
  <outline>
    <contour>
      <point x="201" y="149" type="line"/>
      <point x="201" y="120" type="line"/>
      <point x="952" y="120" type="line"/>
      <point x="952" y="149" type="line"/>
    </contour>
    <contour>
      <point x="295" y="316" type="line"/>
      <point x="295" y="286" type="line"/>
      <point x="803" y="286" type="line"/>
      <point x="803" y="316" type="line"/>
    </contour>
    <contour>
      <point x="323" y="516" type="line"/>
      <point x="794" y="516" type="line"/>
      <point x="794" y="424" type="line"/>
      <point x="323" y="424" type="line"/>
    </contour>
    <contour>
      <point x="323" y="635" type="line"/>
      <point x="794" y="635" type="line"/>
      <point x="794" y="545" type="line"/>
      <point x="323" y="545" type="line"/>
    </contour>
    <contour>
      <point x="293" y="665" type="line"/>
      <point x="293" y="394" type="line"/>
      <point x="823" y="394" type="line"/>
      <point x="823" y="665" type="line"/>
    </contour>
    <contour>
      <point x="558" y="211" type="line"/>
      <point x="558" y="-20" type="line" smooth="yes"/>
      <point x="558" y="-33"/>
      <point x="554" y="-37"/>
      <point x="538" y="-38" type="curve" smooth="yes"/>
      <point x="522" y="-39"/>
      <point x="468" y="-39"/>
      <point x="393" y="-38" type="curve"/>
      <point x="398" y="-47"/>
      <point x="404" y="-56"/>
      <point x="406" y="-65" type="curve"/>
      <point x="491" y="-65"/>
      <point x="537" y="-65"/>
      <point x="559" y="-59" type="curve" smooth="yes"/>
      <point x="580" y="-54"/>
      <point x="586" y="-43"/>
      <point x="586" y="-20" type="curve" smooth="yes"/>
      <point x="586" y="211" type="line"/>
    </contour>
    <contour>
      <point x="798" y="316" type="line"/>
      <point x="798" y="309" type="line"/>
      <point x="743" y="271"/>
      <point x="644" y="232"/>
      <point x="558" y="211" type="curve"/>
      <point x="564" y="206"/>
      <point x="573" y="197"/>
      <point x="576" y="191" type="curve"/>
      <point x="664" y="214"/>
      <point x="768" y="254"/>
      <point x="833" y="302" type="curve"/>
      <point x="812" y="318" type="line"/>
      <point x="805" y="316" type="line"/>
    </contour>
    <contour>
      <point x="167" y="765" type="line"/>
      <point x="167" y="735" type="line"/>
      <point x="935" y="735" type="line"/>
      <point x="935" y="765" type="line"/>
    </contour>
    <contour>
      <point x="151" y="765" type="line"/>
      <point x="151" y="484" type="line" smooth="yes"/>
      <point x="151" y="327"/>
      <point x="141" y="110"/>
      <point x="48" y="-50" type="curve"/>
      <point x="55" y="-53"/>
      <point x="67" y="-62"/>
      <point x="72" y="-67" type="curve"/>
      <point x="168" y="96"/>
      <point x="181" y="323"/>
      <point x="181" y="483" type="curve" smooth="yes"/>
      <point x="181" y="765" type="line"/>
    </contour>
  </outline>
</glyph>
<glyph name="uni54F1" format="2">
  <advance height="1000" width="1000"/>
  <unicode hex="54F1"/>
  <outline>
    <contour>
      <point x="650" y="831" type="line"/>
      <point x="650" y="544" type="line"/>
      <point x="679" y="544" type="line"/>
      <point x="679" y="831" type="line"/>
    </contour>
    <contour>
      <point x="480" y="415" type="line"/>
      <point x="480" y="385" type="line"/>
      <point x="829" y="385" type="line"/>
      <point x="829" y="415" type="line"/>
    </contour>
    <contour>
      <point x="821" y="415" type="line"/>
      <point x="821" y="408" type="line"/>
      <point x="783" y="364"/>
      <point x="712" y="312"/>
      <point x="652" y="281" type="curve"/>
      <point x="659" y="277"/>
      <point x="668" y="269"/>
      <point x="673" y="262" type="curve"/>
      <point x="734" y="295"/>
      <point x="811" y="347"/>
      <point x="860" y="401" type="curve"/>
      <point x="836" y="417" type="line"/>
      <point x="829" y="415" type="line"/>
    </contour>
    <contour>
      <point x="652" y="281" type="line"/>
      <point x="652" y="-28" type="line" smooth="yes"/>
      <point x="652" y="-40"/>
      <point x="649" y="-43"/>
      <point x="636" y="-44" type="curve" smooth="yes"/>
      <point x="623" y="-45"/>
      <point x="582" y="-45"/>
      <point x="525" y="-44" type="curve"/>
      <point x="529" y="-53"/>
      <point x="535" y="-65"/>
      <point x="537" y="-73" type="curve"/>
      <point x="599" y="-73"/>
      <point x="637" y="-73"/>
      <point x="657" y="-67" type="curve" smooth="yes"/>
      <point x="676" y="-62"/>
      <point x="681" y="-52"/>
      <point x="681" y="-28" type="curve" smooth="yes"/>
      <point x="681" y="281" type="line"/>
    </contour>
    <contour>
      <point x="390" y="211" type="line"/>
      <point x="390" y="181" type="line"/>
      <point x="951" y="181" type="line"/>
      <point x="951" y="211" type="line"/>
    </contour>
    <contour>
      <point x="408" y="558" type="line"/>
      <point x="408" y="406" type="line"/>
      <point x="437" y="406" type="line"/>
      <point x="437" y="528" type="line"/>
      <point x="907" y="528" type="line"/>
      <point x="907" y="406" type="line"/>
      <point x="936" y="406" type="line"/>
      <point x="936" y="558" type="line"/>
    </contour>
    <contour>
      <point x="414" y="718" type="line"/>
      <point x="414" y="688" type="line"/>
      <point x="930" y="688" type="line"/>
      <point x="930" y="718" type="line"/>
    </contour>
    <contour>
      <point x="95" y="727" type="line"/>
      <point x="95" y="698" type="line"/>
      <point x="284" y="698" type="line"/>
      <point x="284" y="229" type="line"/>
      <point x="95" y="229" type="line"/>
      <point x="95" y="199" type="line"/>
      <point x="314" y="199" type="line"/>
      <point x="314" y="727" type="line"/>
    </contour>
    <contour>
      <point x="84" y="727" type="line"/>
      <point x="84" y="96" type="line"/>
      <point x="114" y="96" type="line"/>
      <point x="114" y="727" type="line"/>
    </contour>
  </outline>
</glyph>
<glyph name="uni56DD" format="2">
  <advance height="1000" width="1000"/>
  <unicode hex="56DD"/>
  <outline>
    <contour>
      <point x="279" y="643" type="line"/>
      <point x="279" y="614" type="line"/>
      <point x="733" y="614" type="line"/>
      <point x="733" y="643" type="line"/>
    </contour>
    <contour>
      <point x="207" y="403" type="line"/>
      <point x="207" y="374" type="line"/>
      <point x="825" y="374" type="line"/>
      <point x="825" y="403" type="line"/>
    </contour>
    <contour>
      <point x="509" y="489" type="line"/>
      <point x="509" y="123" type="line" smooth="yes"/>
      <point x="509" y="110"/>
      <point x="505" y="106"/>
      <point x="489" y="105" type="curve"/>
      <point x="473" y="103"/>
      <point x="424" y="103"/>
      <point x="353" y="105" type="curve"/>
      <point x="358" y="95"/>
      <point x="365" y="84"/>
      <point x="368" y="76" type="curve"/>
      <point x="446" y="76"/>
      <point x="486" y="76"/>
      <point x="509" y="82" type="curve" smooth="yes"/>
      <point x="531" y="87"/>
      <point x="538" y="98"/>
      <point x="538" y="124" type="curve" smooth="yes"/>
      <point x="538" y="489" type="line"/>
    </contour>
    <contour>
      <point x="725" y="643" type="line"/>
      <point x="725" y="636" type="line"/>
      <point x="675" y="584"/>
      <point x="584" y="524"/>
      <point x="509" y="489" type="curve"/>
      <point x="516" y="484"/>
      <point x="524" y="476"/>
      <point x="528" y="471" type="curve"/>
      <point x="605" y="508"/>
      <point x="700" y="569"/>
      <point x="760" y="630" type="curve"/>
      <point x="739" y="645" type="line"/>
      <point x="732" y="643" type="line"/>
    </contour>
    <contour>
      <point x="95" y="782" type="line"/>
      <point x="95" y="-65" type="line"/>
      <point x="125" y="-65" type="line"/>
      <point x="125" y="753" type="line"/>
      <point x="873" y="753" type="line"/>
      <point x="873" y="-57" type="line"/>
      <point x="903" y="-57" type="line"/>
      <point x="903" y="782" type="line"/>
    </contour>
    <contour>
      <point x="107" y="19" type="line"/>
      <point x="107" y="-11" type="line"/>
      <point x="893" y="-11" type="line"/>
      <point x="893" y="19" type="line"/>
    </contour>
  </outline>
</glyph>
<glyph name="uni5B58" format="2">
  <advance height="1000" width="1000"/>
  <unicode hex="5B58"/>
  <outline>
    <contour>
      <point x="322" y="257" type="line"/>
      <point x="322" y="228" type="line"/>
      <point x="953" y="228" type="line"/>
      <point x="953" y="257" type="line"/>
    </contour>
    <contour>
      <point x="414" y="523" type="line"/>
      <point x="414" y="493" type="line"/>
      <point x="856" y="493" type="line"/>
      <point x="856" y="523" type="line"/>
    </contour>
    <contour>
      <point x="624" y="353" type="line"/>
      <point x="624" y="-19" type="line" smooth="yes"/>
      <point x="624" y="-34"/>
      <point x="621" y="-39"/>
      <point x="602" y="-40" type="curve" smooth="yes"/>
      <point x="582" y="-42"/>
      <point x="523" y="-42"/>
      <point x="439" y="-40" type="curve"/>
      <point x="445" y="-50"/>
      <point x="450" y="-60"/>
      <point x="453" y="-68" type="curve"/>
      <point x="545" y="-68"/>
      <point x="597" y="-69"/>
      <point x="622" y="-64" type="curve" smooth="yes"/>
      <point x="646" y="-58"/>
      <point x="654" y="-46"/>
      <point x="654" y="-18" type="curve" smooth="yes"/>
      <point x="654" y="353" type="line"/>
    </contour>
    <contour>
      <point x="846" y="523" type="line"/>
      <point x="846" y="516" type="line"/>
      <point x="797" y="459"/>
      <point x="704" y="391"/>
      <point x="624" y="353" type="curve"/>
      <point x="631" y="348"/>
      <point x="640" y="340"/>
      <point x="644" y="334" type="curve"/>
      <point x="724" y="376"/>
      <point x="821" y="442"/>
      <point x="880" y="511" type="curve"/>
      <point x="859" y="524" type="line"/>
      <point x="853" y="523" type="line"/>
    </contour>
    <contour>
      <point x="70" y="699" type="line"/>
      <point x="70" y="670" type="line"/>
      <point x="930" y="670" type="line"/>
      <point x="930" y="699" type="line"/>
    </contour>
    <contour>
      <point x="402" y="830" type="line"/>
      <point x="342" y="620"/>
      <point x="224" y="401"/>
      <point x="43" y="265" type="curve"/>
      <point x="49" y="260"/>
      <point x="59" y="249"/>
      <point x="63" y="243" type="curve"/>
      <point x="248" y="383"/>
      <point x="366" y="605"/>
      <point x="432" y="822" type="curve"/>
    </contour>
    <contour>
      <point x="208" y="430" type="line"/>
      <point x="208" y="-68" type="line"/>
      <point x="237" y="-68" type="line"/>
      <point x="237" y="430" type="line"/>
    </contour>
  </outline>
</glyph>
<glyph name="uni5B5B" format="2">
  <advance height="1000" width="1000"/>
  <unicode hex="5B5B"/>
  <outline>
    <contour>
      <point x="83" y="213" type="line"/>
      <point x="83" y="183" type="line"/>
      <point x="917" y="183" type="line"/>
      <point x="917" y="213" type="line"/>
    </contour>
    <contour>
      <point x="69" y="717" type="line"/>
      <point x="69" y="687" type="line"/>
      <point x="929" y="687" type="line"/>
      <point x="929" y="717" type="line"/>
    </contour>
    <contour>
      <point x="241" y="425" type="line"/>
      <point x="241" y="396" type="line"/>
      <point x="745" y="396" type="line"/>
      <point x="745" y="425" type="line"/>
    </contour>
    <contour>
      <point x="485" y="284" type="line"/>
      <point x="485" y="-20" type="line" smooth="yes"/>
      <point x="485" y="-35"/>
      <point x="480" y="-40"/>
      <point x="463" y="-41" type="curve" smooth="yes"/>
      <point x="444" y="-42"/>
      <point x="383" y="-43"/>
      <point x="300" y="-41" type="curve"/>
      <point x="306" y="-50"/>
      <point x="311" y="-60"/>
      <point x="313" y="-68" type="curve"/>
      <point x="408" y="-68"/>
      <point x="460" y="-68"/>
      <point x="483" y="-63" type="curve" smooth="yes"/>
      <point x="508" y="-58"/>
      <point x="515" y="-46"/>
      <point x="515" y="-20" type="curve" smooth="yes"/>
      <point x="515" y="284" type="line"/>
    </contour>
    <contour>
      <point x="735" y="425" type="line"/>
      <point x="735" y="419" type="line"/>
      <point x="679" y="369"/>
      <point x="575" y="315"/>
      <point x="485" y="284" type="curve"/>
      <point x="492" y="279"/>
      <point x="500" y="271"/>
      <point x="505" y="264" type="curve"/>
      <point x="596" y="297"/>
      <point x="704" y="352"/>
      <point x="771" y="412" type="curve"/>
      <point x="749" y="427" type="line"/>
      <point x="742" y="425" type="line"/>
    </contour>
    <contour>
      <point x="484" y="831" type="line"/>
      <point x="484" y="553" type="line"/>
      <point x="514" y="553" type="line"/>
      <point x="514" y="831" type="line"/>
    </contour>
    <contour>
      <point x="111" y="568" type="line"/>
      <point x="111" y="395" type="line"/>
      <point x="140" y="395" type="line"/>
      <point x="140" y="538" type="line"/>
      <point x="864" y="538" type="line"/>
      <point x="864" y="395" type="line"/>
      <point x="893" y="395" type="line"/>
      <point x="893" y="568" type="line"/>
    </contour>
  </outline>
</glyph>
<glyph name="uni5B5F" format="2">
  <advance height="1000" width="1000"/>
  <unicode hex="5B5F"/>
  <outline>
    <contour>
      <point x="49" y="-12" type="line"/>
      <point x="49" y="-41" type="line"/>
      <point x="950" y="-41" type="line"/>
      <point x="950" y="-12" type="line"/>
    </contour>
    <contour>
      <point x="97" y="562" type="line"/>
      <point x="97" y="532" type="line"/>
      <point x="887" y="532" type="line"/>
      <point x="887" y="562" type="line"/>
    </contour>
    <contour>
      <point x="162" y="268" type="line"/>
      <point x="162" y="-27" type="line"/>
      <point x="191" y="-27" type="line"/>
      <point x="191" y="238" type="line"/>
      <point x="378" y="238" type="line"/>
      <point x="378" y="-27" type="line"/>
      <point x="408" y="-27" type="line"/>
      <point x="408" y="238" type="line"/>
      <point x="595" y="238" type="line"/>
      <point x="595" y="-27" type="line"/>
      <point x="624" y="-27" type="line"/>
      <point x="624" y="238" type="line"/>
      <point x="815" y="238" type="line"/>
      <point x="815" y="-27" type="line"/>
      <point x="844" y="-27" type="line"/>
      <point x="844" y="268" type="line"/>
    </contour>
    <contour>
      <point x="231" y="791" type="line"/>
      <point x="231" y="762" type="line"/>
      <point x="778" y="762" type="line"/>
      <point x="778" y="791" type="line"/>
    </contour>
    <contour>
      <point x="772" y="791" type="line"/>
      <point x="772" y="784" type="line"/>
      <point x="711" y="730"/>
      <point x="595" y="670"/>
      <point x="497" y="637" type="curve"/>
      <point x="503" y="632"/>
      <point x="511" y="624"/>
      <point x="516" y="619" type="curve"/>
      <point x="616" y="654"/>
      <point x="734" y="714"/>
      <point x="808" y="778" type="curve"/>
      <point x="786" y="793" type="line"/>
      <point x="779" y="791" type="line"/>
    </contour>
    <contour>
      <point x="497" y="637" type="line"/>
      <point x="497" y="370" type="line" smooth="yes"/>
      <point x="497" y="356"/>
      <point x="494" y="351"/>
      <point x="476" y="350" type="curve" smooth="yes"/>
      <point x="457" y="348"/>
      <point x="401" y="348"/>
      <point x="318" y="350" type="curve"/>
      <point x="324" y="340"/>
      <point x="329" y="330"/>
      <point x="330" y="322" type="curve"/>
      <point x="420" y="322"/>
      <point x="471" y="321"/>
      <point x="495" y="327" type="curve" smooth="yes"/>
      <point x="520" y="332"/>
      <point x="526" y="343"/>
      <point x="526" y="370" type="curve" smooth="yes"/>
      <point x="526" y="637" type="line"/>
    </contour>
  </outline>
</glyph>
<glyph name="uni5B63" format="2">
  <advance height="1000" width="1000"/>
  <unicode hex="5B63"/>
  <outline>
    <contour>
      <point x="63" y="177" type="line"/>
      <point x="63" y="147" type="line"/>
      <point x="941" y="147" type="line"/>
      <point x="941" y="177" type="line"/>
    </contour>
    <contour>
      <point x="221" y="361" type="line"/>
      <point x="221" y="331" type="line"/>
      <point x="733" y="331" type="line"/>
      <point x="733" y="361" type="line"/>
    </contour>
    <contour>
      <point x="490" y="248" type="line"/>
      <point x="490" y="-19" type="line" smooth="yes"/>
      <point x="490" y="-33"/>
      <point x="487" y="-38"/>
      <point x="469" y="-39" type="curve" smooth="yes"/>
      <point x="449" y="-41"/>
      <point x="392" y="-41"/>
      <point x="307" y="-39" type="curve"/>
      <point x="312" y="-49"/>
      <point x="318" y="-59"/>
      <point x="320" y="-67" type="curve"/>
      <point x="410" y="-67"/>
      <point x="463" y="-68"/>
      <point x="488" y="-63" type="curve" smooth="yes"/>
      <point x="513" y="-57"/>
      <point x="520" y="-46"/>
      <point x="520" y="-18" type="curve" smooth="yes"/>
      <point x="520" y="248" type="line"/>
    </contour>
    <contour>
      <point x="726" y="361" type="line"/>
      <point x="726" y="354" type="line"/>
      <point x="674" y="313"/>
      <point x="577" y="271"/>
      <point x="490" y="248" type="curve"/>
      <point x="496" y="242"/>
      <point x="505" y="233"/>
      <point x="510" y="227" type="curve"/>
      <point x="598" y="252"/>
      <point x="699" y="296"/>
      <point x="762" y="348" type="curve"/>
      <point x="740" y="363" type="line"/>
      <point x="733" y="361" type="line"/>
    </contour>
    <contour>
      <point x="62" y="615" type="line"/>
      <point x="62" y="585" type="line"/>
      <point x="940" y="585" type="line"/>
      <point x="940" y="615" type="line"/>
    </contour>
    <contour>
      <point x="483" y="770" type="line"/>
      <point x="483" y="391" type="line"/>
      <point x="513" y="391" type="line"/>
      <point x="513" y="770" type="line"/>
    </contour>
    <contour>
      <point x="454" y="608" type="line"/>
      <point x="364" y="499"/>
      <point x="191" y="395"/>
      <point x="50" y="348" type="curve"/>
      <point x="57" y="341"/>
      <point x="66" y="330"/>
      <point x="72" y="323" type="curve"/>
      <point x="210" y="375"/>
      <point x="387" y="480"/>
      <point x="480" y="594" type="curve"/>
    </contour>
    <contour>
      <point x="549" y="606" type="curve"/>
      <point x="523" y="592" type="line"/>
      <point x="616" y="482"/>
      <point x="792" y="376"/>
      <point x="931" y="325" type="curve"/>
      <point x="937" y="333"/>
      <point x="946" y="344"/>
      <point x="953" y="350" type="curve"/>
      <point x="812" y="396"/>
      <point x="638" y="498"/>
    </contour>
    <contour>
      <point x="802" y="823" type="line"/>
      <point x="657" y="788"/>
      <point x="362" y="764"/>
      <point x="131" y="754" type="curve"/>
      <point x="134" y="746"/>
      <point x="138" y="734"/>
      <point x="139" y="726" type="curve"/>
      <point x="375" y="736"/>
      <point x="666" y="760"/>
      <point x="827" y="799" type="curve"/>
    </contour>
  </outline>
</glyph>
<glyph name="uni5B66" format="2">
  <advance height="1000" width="1000"/>
  <unicode hex="5B66"/>
  <outline>
    <contour>
      <point x="223" y="497" type="line"/>
      <point x="223" y="468" type="line"/>
      <point x="753" y="468" type="line"/>
      <point x="753" y="497" type="line"/>
    </contour>
    <contour>
      <point x="66" y="266" type="line"/>
      <point x="66" y="236" type="line"/>
      <point x="940" y="236" type="line"/>
      <point x="940" y="266" type="line"/>
    </contour>
    <contour>
      <point x="483" y="347" type="line"/>
      <point x="483" y="-20" type="line" smooth="yes"/>
      <point x="483" y="-35"/>
      <point x="479" y="-40"/>
      <point x="459" y="-42" type="curve" smooth="yes"/>
      <point x="438" y="-44"/>
      <point x="378" y="-44"/>
      <point x="287" y="-42" type="curve"/>
      <point x="293" y="-52"/>
      <point x="300" y="-63"/>
      <point x="303" y="-71" type="curve"/>
      <point x="400" y="-71"/>
      <point x="451" y="-71"/>
      <point x="477" y="-65" type="curve" smooth="yes"/>
      <point x="504" y="-60"/>
      <point x="513" y="-48"/>
      <point x="513" y="-19" type="curve" smooth="yes"/>
      <point x="513" y="347" type="line"/>
    </contour>
    <contour>
      <point x="746" y="497" type="line"/>
      <point x="746" y="490" type="line"/>
      <point x="687" y="437"/>
      <point x="577" y="379"/>
      <point x="483" y="347" type="curve"/>
      <point x="489" y="342"/>
      <point x="498" y="334"/>
      <point x="503" y="327" type="curve"/>
      <point x="598" y="363"/>
      <point x="711" y="421"/>
      <point x="781" y="484" type="curve"/>
      <point x="760" y="499" type="line"/>
      <point x="753" y="497" type="line"/>
    </contour>
    <contour>
      <point x="94" y="657" type="line"/>
      <point x="94" y="479" type="line"/>
      <point x="124" y="479" type="line"/>
      <point x="124" y="627" type="line"/>
      <point x="887" y="627" type="line"/>
      <point x="887" y="479" type="line"/>
      <point x="917" y="479" type="line"/>
      <point x="917" y="657" type="line"/>
    </contour>
    <contour>
      <point x="819" y="825" type="line"/>
      <point x="789" y="773"/>
      <point x="735" y="698"/>
      <point x="695" y="653" type="curve"/>
      <point x="717" y="638" type="line"/>
      <point x="757" y="683"/>
      <point x="808" y="752"/>
      <point x="845" y="810" type="curve"/>
    </contour>
    <contour>
      <point x="168" y="809" type="line"/>
      <point x="207" y="764"/>
      <point x="250" y="702"/>
      <point x="269" y="662" type="curve"/>
      <point x="292" y="677" type="line"/>
      <point x="275" y="717"/>
      <point x="231" y="776"/>
      <point x="191" y="820" type="curve"/>
    </contour>
    <contour>
      <point x="438" y="828" type="line"/>
      <point x="474" y="777"/>
      <point x="510" y="708"/>
      <point x="523" y="663" type="curve"/>
      <point x="549" y="674" type="line"/>
      <point x="536" y="719"/>
      <point x="500" y="787"/>
      <point x="464" y="838" type="curve"/>
    </contour>
  </outline>
</glyph>
<glyph name="uni5B68" format="2">
  <advance height="1000" width="1000"/>
  <unicode hex="5B68"/>
  <outline>
    <contour>
      <point x="92" y="632" type="line"/>
      <point x="92" y="603" type="line"/>
      <point x="914" y="603" type="line"/>
      <point x="914" y="632" type="line"/>
    </contour>
    <contour>
      <point x="490" y="197" type="line"/>
      <point x="490" y="168" type="line"/>
      <point x="945" y="168" type="line"/>
      <point x="945" y="197" type="line"/>
    </contour>
    <contour>
      <point x="221" y="789" type="line"/>
      <point x="221" y="760" type="line"/>
      <point x="746" y="760" type="line"/>
      <point x="746" y="789" type="line"/>
    </contour>
    <contour>
      <point x="489" y="692" type="line"/>
      <point x="489" y="494" type="line" smooth="yes"/>
      <point x="489" y="482"/>
      <point x="486" y="478"/>
      <point x="470" y="477" type="curve" smooth="yes"/>
      <point x="452" y="475"/>
      <point x="402" y="475"/>
      <point x="325" y="477" type="curve"/>
      <point x="330" y="468"/>
      <point x="335" y="458"/>
      <point x="337" y="449" type="curve"/>
      <point x="420" y="449"/>
      <point x="467" y="448"/>
      <point x="490" y="454" type="curve" smooth="yes"/>
      <point x="513" y="460"/>
      <point x="519" y="471"/>
      <point x="519" y="495" type="curve" smooth="yes"/>
      <point x="519" y="692" type="line"/>
    </contour>
    <contour>
      <point x="738" y="789" type="line"/>
      <point x="738" y="782" type="line"/>
      <point x="681" y="746"/>
      <point x="578" y="711"/>
      <point x="489" y="692" type="curve"/>
      <point x="496" y="687"/>
      <point x="504" y="678"/>
      <point x="509" y="672" type="curve"/>
      <point x="599" y="693"/>
      <point x="706" y="729"/>
      <point x="773" y="775" type="curve"/>
      <point x="752" y="791" type="line"/>
      <point x="745" y="789" type="line"/>
    </contour>
    <contour>
      <point x="110" y="400" type="line"/>
      <point x="110" y="371" type="line"/>
      <point x="432" y="371" type="line"/>
      <point x="432" y="400" type="line"/>
    </contour>
    <contour>
      <point x="262" y="286" type="line"/>
      <point x="262" y="-15" type="line" smooth="yes"/>
      <point x="262" y="-26"/>
      <point x="259" y="-29"/>
      <point x="245" y="-30" type="curve" smooth="yes"/>
      <point x="231" y="-31"/>
      <point x="188" y="-32"/>
      <point x="128" y="-30" type="curve"/>
      <point x="133" y="-40"/>
      <point x="138" y="-51"/>
      <point x="140" y="-60" type="curve"/>
      <point x="206" y="-60"/>
      <point x="245" y="-60"/>
      <point x="266" y="-54" type="curve" smooth="yes"/>
      <point x="285" y="-48"/>
      <point x="291" y="-38"/>
      <point x="291" y="-15" type="curve" smooth="yes"/>
      <point x="291" y="286" type="line"/>
    </contour>
    <contour>
      <point x="423" y="400" type="line"/>
      <point x="423" y="393" type="line"/>
      <point x="386" y="356"/>
      <point x="321" y="312"/>
      <point x="262" y="286" type="curve"/>
      <point x="269" y="282"/>
      <point x="278" y="275"/>
      <point x="282" y="269" type="curve"/>
      <point x="341" y="296"/>
      <point x="412" y="340"/>
      <point x="457" y="388" type="curve"/>
      <point x="435" y="402" type="line"/>
      <point x="429" y="400" type="line"/>
    </contour>
    <contour>
      <point x="536" y="399" type="line"/>
      <point x="536" y="370" type="line"/>
      <point x="868" y="370" type="line"/>
      <point x="868" y="399" type="line"/>
    </contour>
    <contour>
      <point x="699" y="285" type="line"/>
      <point x="699" y="-16" type="line" smooth="yes"/>
      <point x="699" y="-27"/>
      <point x="696" y="-30"/>
      <point x="682" y="-31" type="curve"/>
      <point x="667" y="-33"/>
      <point x="623" y="-33"/>
      <point x="561" y="-31" type="curve"/>
      <point x="566" y="-41"/>
      <point x="572" y="-52"/>
      <point x="574" y="-61" type="curve"/>
      <point x="641" y="-61"/>
      <point x="681" y="-61"/>
      <point x="702" y="-55" type="curve" smooth="yes"/>
      <point x="722" y="-49"/>
      <point x="728" y="-39"/>
      <point x="728" y="-15" type="curve" smooth="yes"/>
      <point x="728" y="285" type="line"/>
    </contour>
    <contour>
      <point x="860" y="399" type="line"/>
      <point x="860" y="392" type="line"/>
      <point x="823" y="355"/>
      <point x="758" y="311"/>
      <point x="699" y="285" type="curve"/>
      <point x="706" y="281"/>
      <point x="715" y="274"/>
      <point x="720" y="268" type="curve"/>
      <point x="778" y="295"/>
      <point x="849" y="339"/>
      <point x="894" y="387" type="curve"/>
      <point x="872" y="401" type="line"/>
      <point x="867" y="399" type="line"/>
    </contour>
    <contour>
      <point x="49" y="170" type="curve"/>
      <point x="55" y="139" type="line"/>
      <point x="161" y="159"/>
      <point x="317" y="187"/>
      <point x="468" y="215" type="curve"/>
      <point x="466" y="243" type="line"/>
      <point x="309" y="215"/>
      <point x="150" y="186"/>
    </contour>
  </outline>
</glyph>
<glyph name="uni5B71" format="2">
  <advance height="1000" width="1000"/>
  <unicode hex="5B71"/>
  <outline>
    <contour>
      <point x="140" y="788" type="line"/>
      <point x="140" y="500" type="line" smooth="yes"/>
      <point x="140" y="341"/>
      <point x="132" y="123"/>
      <point x="44" y="-38" type="curve"/>
      <point x="52" y="-41"/>
      <point x="64" y="-49"/>
      <point x="70" y="-55" type="curve"/>
      <point x="158" y="109"/>
      <point x="170" y="338"/>
      <point x="170" y="500" type="curve" smooth="yes"/>
      <point x="170" y="788" type="line"/>
    </contour>
    <contour>
      <point x="164" y="788" type="line"/>
      <point x="164" y="759" type="line"/>
      <point x="844" y="759" type="line"/>
      <point x="844" y="651" type="line"/>
      <point x="164" y="651" type="line"/>
      <point x="164" y="621" type="line"/>
      <point x="873" y="621" type="line"/>
      <point x="873" y="788" type="line"/>
    </contour>
    <contour>
      <point x="330" y="565" type="line"/>
      <point x="330" y="535" type="line"/>
      <point x="759" y="535" type="line"/>
      <point x="759" y="565" type="line"/>
    </contour>
    <contour>
      <point x="219" y="446" type="line"/>
      <point x="219" y="417" type="line"/>
      <point x="912" y="417" type="line"/>
      <point x="912" y="446" type="line"/>
    </contour>
    <contour>
      <point x="525" y="116" type="line"/>
      <point x="525" y="86" type="line"/>
      <point x="941" y="86" type="line"/>
      <point x="941" y="116" type="line"/>
    </contour>
    <contour>
      <point x="549" y="487" type="line"/>
      <point x="549" y="341" type="line" smooth="yes"/>
      <point x="549" y="331"/>
      <point x="546" y="328"/>
      <point x="533" y="327" type="curve"/>
      <point x="520" y="327"/>
      <point x="478" y="327"/>
      <point x="419" y="327" type="curve"/>
      <point x="424" y="319"/>
      <point x="429" y="309"/>
      <point x="430" y="301" type="curve"/>
      <point x="498" y="301"/>
      <point x="535" y="300"/>
      <point x="555" y="306" type="curve" smooth="yes"/>
      <point x="574" y="312"/>
      <point x="578" y="321"/>
      <point x="578" y="342" type="curve" smooth="yes"/>
      <point x="578" y="487" type="line"/>
    </contour>
    <contour>
      <point x="172" y="95" type="curve"/>
      <point x="179" y="65" type="line"/>
      <point x="275" y="81"/>
      <point x="405" y="103"/>
      <point x="532" y="126" type="curve"/>
      <point x="530" y="151" type="line"/>
      <point x="397" y="130"/>
      <point x="263" y="108"/>
    </contour>
    <contour>
      <point x="755" y="565" type="line"/>
      <point x="755" y="558" type="line"/>
      <point x="708" y="529"/>
      <point x="623" y="503"/>
      <point x="549" y="487" type="curve"/>
      <point x="556" y="483"/>
      <point x="564" y="474"/>
      <point x="569" y="469" type="curve"/>
      <point x="643" y="484"/>
      <point x="732" y="514"/>
      <point x="790" y="551" type="curve"/>
      <point x="769" y="567" type="line"/>
      <point x="762" y="565" type="line"/>
    </contour>
    <contour>
      <point x="225" y="276" type="line"/>
      <point x="225" y="246" type="line"/>
      <point x="490" y="246" type="line"/>
      <point x="490" y="276" type="line"/>
    </contour>
    <contour>
      <point x="358" y="186" type="line"/>
      <point x="358" y="-24" type="line" smooth="yes"/>
      <point x="358" y="-33"/>
      <point x="356" y="-36"/>
      <point x="344" y="-37" type="curve" smooth="yes"/>
      <point x="332" y="-38"/>
      <point x="298" y="-38"/>
      <point x="249" y="-37" type="curve"/>
      <point x="254" y="-45"/>
      <point x="260" y="-56"/>
      <point x="261" y="-64" type="curve"/>
      <point x="317" y="-64"/>
      <point x="348" y="-64"/>
      <point x="366" y="-59" type="curve"/>
      <point x="382" y="-53"/>
      <point x="386" y="-44"/>
      <point x="386" y="-24" type="curve" smooth="yes"/>
      <point x="386" y="186" type="line"/>
    </contour>
    <contour>
      <point x="483" y="276" type="line"/>
      <point x="483" y="269" type="line"/>
      <point x="455" y="240"/>
      <point x="403" y="207"/>
      <point x="358" y="186" type="curve"/>
      <point x="365" y="181"/>
      <point x="374" y="174"/>
      <point x="378" y="168" type="curve"/>
      <point x="425" y="189"/>
      <point x="481" y="225"/>
      <point x="518" y="264" type="curve"/>
      <point x="496" y="278" type="line"/>
      <point x="490" y="276" type="line"/>
    </contour>
    <contour>
      <point x="581" y="276" type="line"/>
      <point x="581" y="246" type="line"/>
      <point x="868" y="246" type="line"/>
      <point x="868" y="276" type="line"/>
    </contour>
    <contour>
      <point x="720" y="186" type="line"/>
      <point x="720" y="-32" type="line" smooth="yes"/>
      <point x="720" y="-42"/>
      <point x="717" y="-45"/>
      <point x="705" y="-46" type="curve" smooth="yes"/>
      <point x="692" y="-47"/>
      <point x="655" y="-47"/>
      <point x="602" y="-45" type="curve"/>
      <point x="607" y="-54"/>
      <point x="612" y="-65"/>
      <point x="614" y="-72" type="curve"/>
      <point x="673" y="-72"/>
      <point x="709" y="-73"/>
      <point x="726" y="-67" type="curve"/>
      <point x="744" y="-62"/>
      <point x="749" y="-53"/>
      <point x="749" y="-31" type="curve" smooth="yes"/>
      <point x="749" y="186" type="line"/>
    </contour>
    <contour>
      <point x="858" y="276" type="line"/>
      <point x="858" y="269" type="line"/>
      <point x="826" y="239"/>
      <point x="770" y="206"/>
      <point x="720" y="186" type="curve"/>
      <point x="726" y="181"/>
      <point x="735" y="174"/>
      <point x="740" y="168" type="curve"/>
      <point x="791" y="189"/>
      <point x="853" y="225"/>
      <point x="893" y="263" type="curve"/>
      <point x="870" y="278" type="line"/>
      <point x="865" y="276" type="line"/>
    </contour>
  </outline>
</glyph>
<glyph name="uni5FAC" format="2">
  <advance height="1000" width="1000"/>
  <unicode hex="5FAC"/>
  <outline>
    <contour>
      <point x="601" y="839" type="curve"/>
      <point x="616" y="798"/>
      <point x="631" y="744"/>
      <point x="636" y="712" type="curve"/>
      <point x="636" y="712"/>
      <point x="664" y="719"/>
      <point x="664" y="719" type="curve"/>
      <point x="659" y="750"/>
      <point x="645" y="803"/>
      <point x="628" y="843" type="curve"/>
      <point x="628" y="843"/>
      <point x="601" y="839"/>
    </contour>
    <contour>
      <point x="592" y="461" type="curve"/>
      <point x="607" y="421"/>
      <point x="623" y="368"/>
      <point x="629" y="335" type="curve"/>
      <point x="629" y="335"/>
      <point x="657" y="343"/>
      <point x="657" y="343" type="curve"/>
      <point x="652" y="375"/>
      <point x="636" y="426"/>
      <point x="619" y="466" type="curve"/>
      <point x="619" y="466"/>
      <point x="592" y="461"/>
    </contour>
    <contour>
      <point x="282" y="635" type="curve"/>
      <point x="219" y="523"/>
      <point x="120" y="410"/>
      <point x="24" y="335" type="curve"/>
      <point x="32" y="330"/>
      <point x="43" y="319"/>
      <point x="48" y="314" type="curve"/>
      <point x="142" y="392"/>
      <point x="242" y="508"/>
      <point x="311" y="625" type="curve"/>
      <point x="311" y="625"/>
      <point x="282" y="635"/>
    </contour>
    <contour>
      <point x="252" y="830" type="curve"/>
      <point x="204" y="758"/>
      <point x="115" y="671"/>
      <point x="39" y="615" type="curve"/>
      <point x="45" y="610"/>
      <point x="55" y="600"/>
      <point x="60" y="594" type="curve"/>
      <point x="137" y="653"/>
      <point x="227" y="742"/>
      <point x="281" y="819" type="curve"/>
      <point x="281" y="819"/>
      <point x="252" y="830"/>
    </contour>
    <contour>
      <point x="182" y="470" type="curve"/>
      <point x="182" y="470"/>
      <point x="182" y="-68"/>
      <point x="182" y="-68" type="curve"/>
      <point x="182" y="-68"/>
      <point x="211" y="-68"/>
      <point x="211" y="-68" type="curve"/>
      <point x="211" y="-68"/>
      <point x="211" y="494"/>
      <point x="211" y="494" type="curve"/>
      <point x="211" y="494"/>
      <point x="208" y="496"/>
      <point x="208" y="496" type="curve"/>
      <point x="208" y="496"/>
      <point x="182" y="470"/>
    </contour>
    <contour>
      <point x="329" y="726" type="curve"/>
      <point x="329" y="726"/>
      <point x="329" y="697"/>
      <point x="329" y="697" type="curve"/>
      <point x="329" y="697"/>
      <point x="934" y="697"/>
      <point x="934" y="697" type="curve"/>
      <point x="934" y="697"/>
      <point x="934" y="726"/>
      <point x="934" y="726" type="curve"/>
      <point x="934" y="726"/>
      <point x="329" y="726"/>
    </contour>
    <contour>
      <point x="441" y="676" type="curve"/>
      <point x="468" y="633"/>
      <point x="492" y="575"/>
      <point x="501" y="538" type="curve"/>
      <point x="501" y="538"/>
      <point x="529" y="550"/>
      <point x="529" y="550" type="curve"/>
      <point x="522" y="586"/>
      <point x="495" y="643"/>
      <point x="469" y="686" type="curve"/>
      <point x="469" y="686"/>
      <point x="441" y="676"/>
    </contour>
    <contour>
      <point x="800" y="691" type="curve"/>
      <point x="783" y="650"/>
      <point x="752" y="586"/>
      <point x="727" y="547" type="curve"/>
      <point x="727" y="547"/>
      <point x="753" y="537"/>
      <point x="753" y="537" type="curve"/>
      <point x="778" y="574"/>
      <point x="808" y="632"/>
      <point x="831" y="680" type="curve"/>
      <point x="831" y="680"/>
      <point x="800" y="691"/>
    </contour>
    <contour>
      <point x="315" y="539" type="curve"/>
      <point x="315" y="539"/>
      <point x="315" y="395"/>
      <point x="315" y="395" type="curve"/>
      <point x="315" y="395"/>
      <point x="344" y="395"/>
      <point x="344" y="395" type="curve"/>
      <point x="344" y="395"/>
      <point x="344" y="510"/>
      <point x="344" y="510" type="curve"/>
      <point x="344" y="510"/>
      <point x="917" y="510"/>
      <point x="917" y="510" type="curve"/>
      <point x="917" y="510"/>
      <point x="917" y="395"/>
      <point x="917" y="395" type="curve"/>
      <point x="917" y="395"/>
      <point x="946" y="395"/>
      <point x="946" y="395" type="curve"/>
      <point x="946" y="395"/>
      <point x="946" y="539"/>
      <point x="946" y="539" type="curve"/>
      <point x="946" y="539"/>
      <point x="315" y="539"/>
    </contour>
    <contour>
      <point x="311" y="351" type="curve"/>
      <point x="311" y="351"/>
      <point x="311" y="322"/>
      <point x="311" y="322" type="curve"/>
      <point x="311" y="322"/>
      <point x="951" y="322"/>
      <point x="951" y="322" type="curve"/>
      <point x="951" y="322"/>
      <point x="951" y="351"/>
      <point x="951" y="351" type="curve"/>
      <point x="951" y="351"/>
      <point x="311" y="351"/>
    </contour>
    <contour>
      <point x="532" y="211" type="curve"/>
      <point x="532" y="211"/>
      <point x="521" y="181"/>
      <point x="521" y="181" type="curve"/>
      <point x="521" y="181"/>
      <point x="842" y="181"/>
      <point x="842" y="181" type="curve"/>
      <point x="842" y="181"/>
      <point x="842" y="211"/>
      <point x="842" y="211" type="curve"/>
      <point x="842" y="211"/>
      <point x="532" y="211"/>
    </contour>
    <contour>
      <point x="829" y="211" type="curve"/>
      <point x="829" y="211"/>
      <point x="829" y="205"/>
      <point x="829" y="205" type="curve"/>
      <point x="817" y="40"/>
      <point x="804" y="-21"/>
      <point x="784" y="-39" type="curve"/>
      <point x="777" y="-47"/>
      <point x="768" y="-48"/>
      <point x="751" y="-48" type="curve" smooth="yes"/>
      <point x="733" y="-48"/>
      <point x="682" y="-47"/>
      <point x="629" y="-42" type="curve"/>
      <point x="634" y="-51"/>
      <point x="637" y="-63"/>
      <point x="638" y="-70" type="curve"/>
      <point x="687" y="-74"/>
      <point x="735" y="-75"/>
      <point x="757" y="-74" type="curve" smooth="yes"/>
      <point x="782" y="-74"/>
      <point x="795" y="-70"/>
      <point x="808" y="-59" type="curve"/>
      <point x="831" y="-36"/>
      <point x="844" y="26"/>
      <point x="858" y="192" type="curve"/>
      <point x="859" y="198"/>
      <point x="860" y="211"/>
      <point x="860" y="211" type="curve"/>
      <point x="860" y="211"/>
      <point x="829" y="211"/>
    </contour>
    <contour>
      <point x="538" y="342" type="curve"/>
      <point x="524" y="148"/>
      <point x="477" y="14"/>
      <point x="291" y="-51" type="curve"/>
      <point x="297" y="-56"/>
      <point x="307" y="-65"/>
      <point x="311" y="-71" type="curve"/>
      <point x="502" y="-2"/>
      <point x="552" y="135"/>
      <point x="569" y="342" type="curve"/>
      <point x="569" y="342"/>
      <point x="538" y="342"/>
    </contour>
  </outline>
</glyph>
<glyph name="uni60B8" format="2">
  <advance height="1000" width="1000"/>
  <unicode hex="60B8"/>
  <outline>
    <contour>
      <point x="858" y="816" type="line"/>
      <point x="755" y="785"/>
      <point x="544" y="763"/>
      <point x="378" y="752" type="curve"/>
      <point x="381" y="744"/>
      <point x="385" y="733"/>
      <point x="386" y="726" type="curve"/>
      <point x="557" y="736"/>
      <point x="767" y="759"/>
      <point x="884" y="792" type="curve"/>
    </contour>
    <contour>
      <point x="346" y="624" type="line"/>
      <point x="346" y="595" type="line"/>
      <point x="938" y="595" type="line"/>
      <point x="938" y="624" type="line"/>
    </contour>
    <contour>
      <point x="626" y="764" type="line"/>
      <point x="626" y="387" type="line"/>
      <point x="656" y="387" type="line"/>
      <point x="656" y="771" type="line"/>
    </contour>
    <contour>
      <point x="678" y="617" type="curve"/>
      <point x="653" y="605" type="line"/>
      <point x="714" y="518"/>
      <point x="831" y="427"/>
      <point x="933" y="387" type="curve"/>
      <point x="939" y="395"/>
      <point x="949" y="407"/>
      <point x="957" y="414" type="curve"/>
      <point x="854" y="449"/>
      <point x="736" y="534"/>
    </contour>
    <contour>
      <point x="414" y="355" type="line"/>
      <point x="414" y="326" type="line"/>
      <point x="833" y="326" type="line"/>
      <point x="833" y="355" type="line"/>
    </contour>
    <contour>
      <point x="822" y="355" type="line"/>
      <point x="822" y="348" type="line"/>
      <point x="775" y="308"/>
      <point x="693" y="265"/>
      <point x="628" y="237" type="curve"/>
      <point x="634" y="233"/>
      <point x="643" y="227"/>
      <point x="648" y="221" type="curve"/>
      <point x="714" y="248"/>
      <point x="802" y="292"/>
      <point x="861" y="341" type="curve"/>
      <point x="837" y="357" type="line"/>
      <point x="830" y="355" type="line"/>
    </contour>
    <contour>
      <point x="628" y="237" type="line"/>
      <point x="628" y="-26" type="line" smooth="yes"/>
      <point x="628" y="-37"/>
      <point x="625" y="-41"/>
      <point x="612" y="-41" type="curve"/>
      <point x="598" y="-43"/>
      <point x="557" y="-43"/>
      <point x="497" y="-41" type="curve"/>
      <point x="502" y="-51"/>
      <point x="508" y="-62"/>
      <point x="510" y="-70" type="curve"/>
      <point x="574" y="-70"/>
      <point x="613" y="-70"/>
      <point x="633" y="-65" type="curve" smooth="yes"/>
      <point x="653" y="-59"/>
      <point x="658" y="-49"/>
      <point x="658" y="-25" type="curve" smooth="yes"/>
      <point x="658" y="237" type="line"/>
    </contour>
    <contour>
      <point x="332" y="174" type="line"/>
      <point x="332" y="144" type="line"/>
      <point x="946" y="144" type="line"/>
      <point x="946" y="174" type="line"/>
    </contour>
    <contour>
      <point x="607" y="617" type="line"/>
      <point x="538" y="532"/>
      <point x="409" y="442"/>
      <point x="309" y="401" type="curve"/>
      <point x="316" y="396"/>
      <point x="324" y="386"/>
      <point x="329" y="378" type="curve"/>
      <point x="427" y="424"/>
      <point x="561" y="516"/>
      <point x="631" y="604" type="curve"/>
    </contour>
    <contour>
      <point x="173" y="831" type="line"/>
      <point x="173" y="-68" type="line"/>
      <point x="202" y="-68" type="line"/>
      <point x="202" y="831" type="line"/>
    </contour>
    <contour>
      <point x="87" y="643" type="line"/>
      <point x="81" y="567"/>
      <point x="63" y="458"/>
      <point x="38" y="390" type="curve"/>
      <point x="67" y="381" type="line"/>
      <point x="93" y="453"/>
      <point x="110" y="565"/>
      <point x="115" y="638" type="curve"/>
    </contour>
    <contour>
      <point x="244" y="665" type="line"/>
      <point x="271" y="598"/>
      <point x="295" y="509"/>
      <point x="304" y="457" type="curve"/>
      <point x="332" y="471" type="line"/>
      <point x="325" y="520"/>
      <point x="299" y="606"/>
      <point x="272" y="673" type="curve"/>
    </contour>
  </outline>
</glyph>
<glyph name="uni60F8" format="2">
  <advance height="1000" width="1000"/>
  <unicode hex="60F8"/>
  <outline>
    <contour>
      <point x="490" y="833" type="line"/>
      <point x="457" y="744"/>
      <point x="401" y="660"/>
      <point x="338" y="603" type="curve"/>
      <point x="346" y="598"/>
      <point x="359" y="588"/>
      <point x="364" y="583" type="curve"/>
      <point x="426" y="643"/>
      <point x="484" y="732"/>
      <point x="521" y="826" type="curve"/>
    </contour>
    <contour>
      <point x="469" y="748" type="line"/>
      <point x="454" y="719" type="line"/>
      <point x="897" y="719" type="line"/>
      <point x="897" y="748" type="line"/>
    </contour>
    <contour>
      <point x="455" y="522" type="line"/>
      <point x="697" y="522" type="line"/>
      <point x="697" y="446" type="line"/>
      <point x="455" y="446" type="line"/>
    </contour>
    <contour>
      <point x="455" y="624" type="line"/>
      <point x="697" y="624" type="line"/>
      <point x="697" y="551" type="line"/>
      <point x="455" y="551" type="line"/>
    </contour>
    <contour>
      <point x="426" y="654" type="line"/>
      <point x="426" y="417" type="line"/>
      <point x="726" y="417" type="line"/>
      <point x="726" y="654" type="line"/>
    </contour>
    <contour>
      <point x="322" y="151" type="line"/>
      <point x="322" y="122" type="line"/>
      <point x="949" y="122" type="line"/>
      <point x="949" y="151" type="line"/>
    </contour>
    <contour>
      <point x="889" y="748" type="line"/>
      <point x="889" y="741" type="line"/>
      <point x="873" y="499"/>
      <point x="858" y="409"/>
      <point x="834" y="385" type="curve"/>
      <point x="826" y="376"/>
      <point x="817" y="376"/>
      <point x="798" y="376" type="curve" smooth="yes"/>
      <point x="781" y="376"/>
      <point x="729" y="376"/>
      <point x="674" y="381" type="curve"/>
      <point x="679" y="373"/>
      <point x="682" y="361"/>
      <point x="683" y="352" type="curve"/>
      <point x="732" y="348"/>
      <point x="781" y="347"/>
      <point x="804" y="348" type="curve" smooth="yes"/>
      <point x="830" y="348"/>
      <point x="845" y="353"/>
      <point x="858" y="367" type="curve" smooth="yes"/>
      <point x="887" y="396"/>
      <point x="902" y="481"/>
      <point x="917" y="728" type="curve"/>
      <point x="918" y="734"/>
      <point x="919" y="748"/>
      <point x="919" y="748" type="curve"/>
    </contour>
    <contour>
      <point x="396" y="320" type="line"/>
      <point x="396" y="290" type="line"/>
      <point x="824" y="290" type="line"/>
      <point x="824" y="320" type="line"/>
    </contour>
    <contour>
      <point x="617" y="215" type="line"/>
      <point x="617" y="-18" type="line" smooth="yes"/>
      <point x="617" y="-29"/>
      <point x="614" y="-33"/>
      <point x="600" y="-34" type="curve" smooth="yes"/>
      <point x="585" y="-35"/>
      <point x="541" y="-35"/>
      <point x="478" y="-34" type="curve"/>
      <point x="483" y="-43"/>
      <point x="489" y="-54"/>
      <point x="490" y="-62" type="curve"/>
      <point x="560" y="-62"/>
      <point x="600" y="-63"/>
      <point x="621" y="-57" type="curve" smooth="yes"/>
      <point x="641" y="-51"/>
      <point x="646" y="-41"/>
      <point x="646" y="-18" type="curve" smooth="yes"/>
      <point x="646" y="215" type="line"/>
    </contour>
    <contour>
      <point x="819" y="320" type="line"/>
      <point x="819" y="313" type="line"/>
      <point x="773" y="276"/>
      <point x="690" y="236"/>
      <point x="617" y="215" type="curve"/>
      <point x="623" y="210"/>
      <point x="632" y="201"/>
      <point x="637" y="195" type="curve"/>
      <point x="711" y="219"/>
      <point x="799" y="260"/>
      <point x="856" y="307" type="curve"/>
      <point x="833" y="322" type="line"/>
      <point x="826" y="320" type="line"/>
    </contour>
    <contour>
      <point x="181" y="831" type="line"/>
      <point x="181" y="-68" type="line"/>
      <point x="210" y="-68" type="line"/>
      <point x="210" y="831" type="line"/>
    </contour>
    <contour>
      <point x="91" y="643" type="line"/>
      <point x="88" y="566"/>
      <point x="75" y="457"/>
      <point x="50" y="390" type="curve"/>
      <point x="80" y="381" type="line"/>
      <point x="104" y="451"/>
      <point x="118" y="564"/>
      <point x="119" y="639" type="curve"/>
    </contour>
    <contour>
      <point x="251" y="663" type="line"/>
      <point x="280" y="604"/>
      <point x="308" y="525"/>
      <point x="319" y="477" type="curve"/>
      <point x="346" y="493" type="line"/>
      <point x="336" y="537"/>
      <point x="307" y="614"/>
      <point x="277" y="673" type="curve"/>
    </contour>
  </outline>
</glyph>
<glyph name="uni62F5" format="2">
  <advance height="1000" width="1000"/>
  <unicode hex="62F5"/>
  <outline>
    <contour>
      <point x="369" y="674" type="line"/>
      <point x="369" y="645" type="line"/>
      <point x="952" y="645" type="line"/>
      <point x="952" y="674" type="line"/>
    </contour>
    <contour>
      <point x="527" y="261" type="line"/>
      <point x="527" y="231" type="line"/>
      <point x="952" y="231" type="line"/>
      <point x="952" y="261" type="line"/>
    </contour>
    <contour>
      <point x="576" y="513" type="line"/>
      <point x="576" y="483" type="line"/>
      <point x="899" y="483" type="line"/>
      <point x="899" y="513" type="line"/>
    </contour>
    <contour>
      <point x="733" y="363" type="line"/>
      <point x="733" y="-23" type="line" smooth="yes"/>
      <point x="733" y="-35"/>
      <point x="730" y="-38"/>
      <point x="718" y="-39" type="curve" smooth="yes"/>
      <point x="704" y="-40"/>
      <point x="664" y="-40"/>
      <point x="609" y="-39" type="curve"/>
      <point x="614" y="-48"/>
      <point x="619" y="-60"/>
      <point x="621" y="-68" type="curve"/>
      <point x="681" y="-68"/>
      <point x="719" y="-68"/>
      <point x="738" y="-63" type="curve" smooth="yes"/>
      <point x="757" y="-57"/>
      <point x="763" y="-47"/>
      <point x="763" y="-23" type="curve" smooth="yes"/>
      <point x="763" y="363" type="line"/>
    </contour>
    <contour>
      <point x="601" y="832" type="line"/>
      <point x="540" y="625"/>
      <point x="440" y="437"/>
      <point x="313" y="317" type="curve"/>
      <point x="320" y="311"/>
      <point x="330" y="298"/>
      <point x="335" y="292" type="curve"/>
      <point x="464" y="422"/>
      <point x="565" y="610"/>
      <point x="630" y="825" type="curve"/>
    </contour>
    <contour>
      <point x="447" y="468" type="line"/>
      <point x="447" y="-70" type="line"/>
      <point x="476" y="-70" type="line"/>
      <point x="476" y="468" type="line"/>
    </contour>
    <contour>
      <point x="890" y="513" type="line"/>
      <point x="890" y="506" type="line"/>
      <point x="855" y="457"/>
      <point x="790" y="398"/>
      <point x="733" y="363" type="curve"/>
      <point x="739" y="359"/>
      <point x="748" y="351"/>
      <point x="753" y="345" type="curve"/>
      <point x="811" y="382"/>
      <point x="880" y="442"/>
      <point x="924" y="501" type="curve"/>
      <point x="903" y="515" type="line"/>
      <point x="897" y="513" type="line"/>
    </contour>
    <contour>
      <point x="55" y="275" type="curve"/>
      <point x="69" y="245" type="line"/>
      <point x="142" y="278"/>
      <point x="238" y="320"/>
      <point x="331" y="361" type="curve"/>
      <point x="325" y="391" type="line"/>
      <point x="224" y="346"/>
      <point x="123" y="302"/>
    </contour>
    <contour>
      <point x="52" y="617" type="line"/>
      <point x="52" y="587" type="line"/>
      <point x="335" y="587" type="line"/>
      <point x="335" y="617" type="line"/>
    </contour>
    <contour>
      <point x="188" y="830" type="line"/>
      <point x="188" y="-23" type="line" smooth="yes"/>
      <point x="188" y="-38"/>
      <point x="182" y="-42"/>
      <point x="170" y="-42" type="curve"/>
      <point x="158" y="-43"/>
      <point x="116" y="-43"/>
      <point x="65" y="-42" type="curve"/>
      <point x="70" y="-51"/>
      <point x="75" y="-64"/>
      <point x="77" y="-70" type="curve"/>
      <point x="139" y="-71"/>
      <point x="173" y="-70"/>
      <point x="190" y="-65" type="curve" smooth="yes"/>
      <point x="209" y="-60"/>
      <point x="218" y="-50"/>
      <point x="218" y="-23" type="curve" smooth="yes"/>
      <point x="218" y="830" type="line"/>
    </contour>
  </outline>
</glyph>
<glyph name="uni65CC" format="2">
  <advance height="1000" width="1000"/>
  <unicode hex="65CC"/>
  <outline>
    <contour>
      <point x="193" y="826" type="curve"/>
      <point x="221" y="776"/>
      <point x="252" y="709"/>
      <point x="263" y="667" type="curve"/>
      <point x="263" y="667"/>
      <point x="291" y="677"/>
      <point x="291" y="677" type="curve"/>
      <point x="278" y="716"/>
      <point x="248" y="783"/>
      <point x="219" y="833" type="curve"/>
      <point x="219" y="833"/>
      <point x="193" y="826"/>
    </contour>
    <contour>
      <point x="51" y="659" type="curve"/>
      <point x="51" y="659"/>
      <point x="51" y="629"/>
      <point x="51" y="629" type="curve"/>
      <point x="51" y="629"/>
      <point x="431" y="629"/>
      <point x="431" y="629" type="curve"/>
      <point x="431" y="629"/>
      <point x="431" y="659"/>
      <point x="431" y="659" type="curve"/>
      <point x="431" y="659"/>
      <point x="51" y="659"/>
    </contour>
    <contour>
      <point x="525" y="461" type="curve"/>
      <point x="525" y="461"/>
      <point x="525" y="431"/>
      <point x="525" y="431" type="curve"/>
      <point x="525" y="431"/>
      <point x="935" y="431"/>
      <point x="935" y="431" type="curve"/>
      <point x="935" y="431"/>
      <point x="935" y="461"/>
      <point x="935" y="461" type="curve"/>
      <point x="935" y="461"/>
      <point x="525" y="461"/>
    </contour>
    <contour>
      <point x="503" y="243" type="curve"/>
      <point x="503" y="243"/>
      <point x="503" y="214"/>
      <point x="503" y="214" type="curve"/>
      <point x="503" y="214"/>
      <point x="914" y="214"/>
      <point x="914" y="214" type="curve"/>
      <point x="914" y="214"/>
      <point x="914" y="243"/>
      <point x="914" y="243" type="curve"/>
      <point x="914" y="243"/>
      <point x="503" y="243"/>
    </contour>
    <contour>
      <point x="196" y="459" type="curve"/>
      <point x="196" y="459"/>
      <point x="196" y="429"/>
      <point x="196" y="429" type="curve"/>
      <point x="196" y="429"/>
      <point x="378" y="429"/>
      <point x="378" y="429" type="curve"/>
      <point x="378" y="429"/>
      <point x="378" y="459"/>
      <point x="378" y="459" type="curve"/>
      <point x="378" y="459"/>
      <point x="196" y="459"/>
    </contour>
    <contour>
      <point x="685" y="609" type="curve"/>
      <point x="685" y="609"/>
      <point x="685" y="-31"/>
      <point x="685" y="-31" type="curve"/>
      <point x="685" y="-31"/>
      <point x="715" y="-31"/>
      <point x="715" y="-31" type="curve"/>
      <point x="715" y="-31"/>
      <point x="715" y="609"/>
      <point x="715" y="609" type="curve"/>
      <point x="715" y="609"/>
      <point x="685" y="609"/>
    </contour>
    <contour>
      <point x="364" y="459" type="curve"/>
      <point x="364" y="459"/>
      <point x="364" y="451"/>
      <point x="364" y="451" type="curve"/>
      <point x="356" y="111"/>
      <point x="346" y="-6"/>
      <point x="326" y="-30" type="curve"/>
      <point x="319" y="-41"/>
      <point x="310" y="-43"/>
      <point x="295" y="-42" type="curve"/>
      <point x="280" y="-42"/>
      <point x="235" y="-42"/>
      <point x="187" y="-38" type="curve"/>
      <point x="193" y="-46"/>
      <point x="195" y="-59"/>
      <point x="196" y="-67" type="curve"/>
      <point x="236" y="-70"/>
      <point x="279" y="-71"/>
      <point x="300" y="-71" type="curve" smooth="yes"/>
      <point x="325" y="-70"/>
      <point x="339" y="-65"/>
      <point x="352" y="-49" type="curve" smooth="yes"/>
      <point x="378" y="-16"/>
      <point x="384" y="90"/>
      <point x="393" y="437" type="curve"/>
      <point x="394" y="444"/>
      <point x="394" y="459"/>
      <point x="394" y="459" type="curve"/>
      <point x="394" y="459"/>
      <point x="364" y="459"/>
    </contour>
    <contour>
      <point x="511" y="694" type="curve"/>
      <point x="511" y="694"/>
      <point x="511" y="665"/>
      <point x="511" y="665" type="curve"/>
      <point x="511" y="665"/>
      <point x="944" y="665"/>
      <point x="944" y="665" type="curve"/>
      <point x="944" y="665"/>
      <point x="944" y="694"/>
      <point x="944" y="694" type="curve"/>
      <point x="944" y="694"/>
      <point x="511" y="694"/>
    </contour>
    <contour>
      <point x="422" y="-16" type="curve"/>
      <point x="422" y="-16"/>
      <point x="422" y="-45"/>
      <point x="422" y="-45" type="curve"/>
      <point x="422" y="-45"/>
      <point x="956" y="-45"/>
      <point x="956" y="-45" type="curve"/>
      <point x="956" y="-45"/>
      <point x="956" y="-16"/>
      <point x="956" y="-16" type="curve"/>
      <point x="956" y="-16"/>
      <point x="422" y="-16"/>
    </contour>
    <contour>
      <point x="544" y="831" type="curve"/>
      <point x="516" y="712"/>
      <point x="468" y="597"/>
      <point x="405" y="519" type="curve"/>
      <point x="413" y="515"/>
      <point x="426" y="505"/>
      <point x="430" y="500" type="curve"/>
      <point x="492" y="581"/>
      <point x="542" y="700"/>
      <point x="574" y="825" type="curve"/>
      <point x="574" y="825"/>
      <point x="544" y="831"/>
    </contour>
    <contour>
      <point x="552" y="588" type="curve"/>
      <point x="528" y="486"/>
      <point x="489" y="385"/>
      <point x="437" y="317" type="curve"/>
      <point x="446" y="313"/>
      <point x="459" y="304"/>
      <point x="465" y="300" type="curve"/>
      <point x="514" y="371"/>
      <point x="556" y="475"/>
      <point x="582" y="582" type="curve"/>
      <point x="582" y="582"/>
      <point x="552" y="588"/>
    </contour>
    <contour>
      <point x="180" y="639" type="curve"/>
      <point x="180" y="639"/>
      <point x="180" y="485"/>
      <point x="180" y="485" type="curve"/>
      <point x="180" y="327"/>
      <point x="167" y="119"/>
      <point x="36" y="-52" type="curve"/>
      <point x="45" y="-57"/>
      <point x="55" y="-64"/>
      <point x="60" y="-69" type="curve"/>
      <point x="193" y="110"/>
      <point x="209" y="315"/>
      <point x="209" y="486" type="curve"/>
      <point x="209" y="486"/>
      <point x="209" y="639"/>
      <point x="209" y="639" type="curve"/>
      <point x="209" y="639"/>
      <point x="180" y="639"/>
    </contour>
  </outline>
</glyph>
<glyph name="uni65D0" format="2">
  <advance height="1000" width="1000"/>
  <unicode hex="65D0"/>
  <outline>
    <contour>
      <point x="193" y="826" type="curve"/>
      <point x="221" y="776"/>
      <point x="252" y="709"/>
      <point x="263" y="667" type="curve"/>
      <point x="263" y="667"/>
      <point x="291" y="677"/>
      <point x="291" y="677" type="curve"/>
      <point x="278" y="716"/>
      <point x="248" y="783"/>
      <point x="219" y="833" type="curve"/>
      <point x="219" y="833"/>
      <point x="193" y="826"/>
    </contour>
    <contour>
      <point x="50" y="657" type="curve"/>
      <point x="50" y="657"/>
      <point x="50" y="627"/>
      <point x="50" y="627" type="curve"/>
      <point x="50" y="627"/>
      <point x="439" y="627"/>
      <point x="439" y="627" type="curve"/>
      <point x="439" y="627"/>
      <point x="439" y="657"/>
      <point x="439" y="657" type="curve"/>
      <point x="439" y="657"/>
      <point x="50" y="657"/>
    </contour>
    <contour>
      <point x="179" y="459" type="curve"/>
      <point x="179" y="459"/>
      <point x="179" y="429"/>
      <point x="179" y="429" type="curve"/>
      <point x="179" y="429"/>
      <point x="356" y="429"/>
      <point x="356" y="429" type="curve"/>
      <point x="356" y="429"/>
      <point x="356" y="459"/>
      <point x="356" y="459" type="curve"/>
      <point x="356" y="459"/>
      <point x="179" y="459"/>
    </contour>
    <contour>
      <point x="169" y="644" type="curve"/>
      <point x="166" y="377"/>
      <point x="152" y="89"/>
      <point x="43" y="-55" type="curve"/>
      <point x="52" y="-58"/>
      <point x="65" y="-65"/>
      <point x="71" y="-70" type="curve"/>
      <point x="182" y="82"/>
      <point x="194" y="367"/>
      <point x="198" y="644" type="curve"/>
      <point x="198" y="644"/>
      <point x="169" y="644"/>
    </contour>
    <contour>
      <point x="346" y="459" type="curve"/>
      <point x="346" y="459"/>
      <point x="346" y="451"/>
      <point x="346" y="451" type="curve"/>
      <point x="338" y="111"/>
      <point x="329" y="-6"/>
      <point x="308" y="-30" type="curve"/>
      <point x="301" y="-41"/>
      <point x="293" y="-43"/>
      <point x="278" y="-42" type="curve"/>
      <point x="263" y="-42"/>
      <point x="220" y="-42"/>
      <point x="173" y="-38" type="curve"/>
      <point x="178" y="-46"/>
      <point x="181" y="-59"/>
      <point x="182" y="-68" type="curve"/>
      <point x="221" y="-71"/>
      <point x="261" y="-71"/>
      <point x="283" y="-71" type="curve" smooth="yes"/>
      <point x="307" y="-70"/>
      <point x="322" y="-65"/>
      <point x="334" y="-49" type="curve" smooth="yes"/>
      <point x="360" y="-16"/>
      <point x="367" y="89"/>
      <point x="376" y="437" type="curve"/>
      <point x="377" y="444"/>
      <point x="377" y="459"/>
      <point x="377" y="459" type="curve"/>
      <point x="377" y="459"/>
      <point x="346" y="459"/>
    </contour>
    <contour>
      <point x="519" y="700" type="curve"/>
      <point x="519" y="700"/>
      <point x="519" y="670"/>
      <point x="519" y="670" type="curve"/>
      <point x="519" y="670"/>
      <point x="952" y="670"/>
      <point x="952" y="670" type="curve"/>
      <point x="952" y="670"/>
      <point x="952" y="700"/>
      <point x="952" y="700" type="curve"/>
      <point x="952" y="700"/>
      <point x="519" y="700"/>
    </contour>
    <contour>
      <point x="558" y="831" type="curve"/>
      <point x="527" y="720"/>
      <point x="476" y="618"/>
      <point x="409" y="548" type="curve"/>
      <point x="417" y="543"/>
      <point x="430" y="534"/>
      <point x="435" y="530" type="curve"/>
      <point x="500" y="602"/>
      <point x="555" y="709"/>
      <point x="587" y="825" type="curve"/>
      <point x="587" y="825"/>
      <point x="558" y="831"/>
    </contour>
    <contour>
      <point x="587" y="607" type="curve"/>
      <point x="587" y="607"/>
      <point x="587" y="307"/>
      <point x="587" y="307" type="curve"/>
      <point x="587" y="163"/>
      <point x="567" y="41"/>
      <point x="397" y="-49" type="curve"/>
      <point x="404" y="-54"/>
      <point x="413" y="-64"/>
      <point x="417" y="-70" type="curve"/>
      <point x="593" y="25"/>
      <point x="617" y="151"/>
      <point x="617" y="307" type="curve"/>
      <point x="617" y="307"/>
      <point x="617" y="607"/>
      <point x="617" y="607" type="curve"/>
      <point x="617" y="607"/>
      <point x="587" y="607"/>
    </contour>
    <contour>
      <point x="440" y="491" type="curve"/>
      <point x="477" y="438"/>
      <point x="516" y="368"/>
      <point x="531" y="320" type="curve"/>
      <point x="531" y="320"/>
      <point x="557" y="334"/>
      <point x="557" y="334" type="curve"/>
      <point x="541" y="380"/>
      <point x="502" y="451"/>
      <point x="464" y="504" type="curve"/>
      <point x="464" y="504"/>
      <point x="440" y="491"/>
    </contour>
    <contour>
      <point x="410" y="155" type="curve"/>
      <point x="410" y="155"/>
      <point x="425" y="131"/>
      <point x="425" y="131" type="curve"/>
      <point x="478" y="170"/>
      <point x="542" y="217"/>
      <point x="605" y="263" type="curve"/>
      <point x="605" y="263"/>
      <point x="596" y="288"/>
      <point x="596" y="288" type="curve"/>
      <point x="526" y="237"/>
      <point x="457" y="186"/>
    </contour>
    <contour>
      <point x="720" y="607" type="curve"/>
      <point x="720" y="607"/>
      <point x="720" y="-3"/>
      <point x="720" y="-3" type="curve"/>
      <point x="720" y="-54"/>
      <point x="732" y="-64"/>
      <point x="784" y="-64" type="curve" smooth="yes"/>
      <point x="795" y="-64"/>
      <point x="882" y="-64"/>
      <point x="893" y="-64" type="curve" smooth="yes"/>
      <point x="938" y="-64"/>
      <point x="947" y="-36"/>
      <point x="950" y="62" type="curve"/>
      <point x="941" y="64"/>
      <point x="930" y="69"/>
      <point x="922" y="75" type="curve"/>
      <point x="920" y="-18"/>
      <point x="917" y="-37"/>
      <point x="891" y="-37" type="curve" smooth="yes"/>
      <point x="872" y="-37"/>
      <point x="798" y="-37"/>
      <point x="784" y="-37" type="curve" smooth="yes"/>
      <point x="754" y="-37"/>
      <point x="749" y="-32"/>
      <point x="749" y="-4" type="curve"/>
      <point x="749" y="-4"/>
      <point x="749" y="607"/>
      <point x="749" y="607" type="curve"/>
      <point x="749" y="607"/>
      <point x="720" y="607"/>
    </contour>
    <contour>
      <point x="889" y="520" type="curve"/>
      <point x="861" y="465"/>
      <point x="809" y="386"/>
      <point x="770" y="338" type="curve"/>
      <point x="770" y="338"/>
      <point x="792" y="322"/>
      <point x="792" y="322" type="curve"/>
      <point x="831" y="371"/>
      <point x="879" y="441"/>
      <point x="915" y="503" type="curve"/>
      <point x="915" y="503"/>
      <point x="889" y="520"/>
    </contour>
    <contour>
      <point x="727" y="292" type="curve"/>
      <point x="788" y="242"/>
      <point x="861" y="173"/>
      <point x="898" y="130" type="curve"/>
      <point x="898" y="130"/>
      <point x="919" y="151"/>
      <point x="919" y="151" type="curve"/>
      <point x="882" y="192"/>
      <point x="809" y="260"/>
      <point x="748" y="309" type="curve"/>
      <point x="748" y="309"/>
      <point x="727" y="292"/>
    </contour>
  </outline>
</glyph>
<glyph name="uni65DB" format="2">
  <advance height="1000" width="1000"/>
  <unicode hex="65DB"/>
  <outline>
    <contour>
      <point x="178" y="826" type="curve"/>
      <point x="206" y="776"/>
      <point x="237" y="709"/>
      <point x="248" y="667" type="curve"/>
      <point x="248" y="667"/>
      <point x="276" y="677"/>
      <point x="276" y="677" type="curve"/>
      <point x="263" y="716"/>
      <point x="233" y="783"/>
      <point x="204" y="833" type="curve"/>
      <point x="204" y="833"/>
      <point x="178" y="826"/>
    </contour>
    <contour>
      <point x="50" y="657" type="curve"/>
      <point x="50" y="657"/>
      <point x="50" y="627"/>
      <point x="50" y="627" type="curve"/>
      <point x="50" y="627"/>
      <point x="408" y="627"/>
      <point x="408" y="627" type="curve"/>
      <point x="408" y="627"/>
      <point x="408" y="657"/>
      <point x="408" y="657" type="curve"/>
      <point x="408" y="657"/>
      <point x="50" y="657"/>
    </contour>
    <contour>
      <point x="403" y="422" type="curve"/>
      <point x="403" y="422"/>
      <point x="403" y="392"/>
      <point x="403" y="392" type="curve"/>
      <point x="403" y="392"/>
      <point x="946" y="392"/>
      <point x="946" y="392" type="curve"/>
      <point x="946" y="392"/>
      <point x="946" y="422"/>
      <point x="946" y="422" type="curve"/>
      <point x="946" y="422"/>
      <point x="403" y="422"/>
    </contour>
    <contour>
      <point x="478" y="116" type="curve"/>
      <point x="478" y="116"/>
      <point x="478" y="86"/>
      <point x="478" y="86" type="curve"/>
      <point x="478" y="86"/>
      <point x="859" y="86"/>
      <point x="859" y="86" type="curve"/>
      <point x="859" y="86"/>
      <point x="859" y="116"/>
      <point x="859" y="116" type="curve"/>
      <point x="859" y="116"/>
      <point x="478" y="116"/>
    </contour>
    <contour>
      <point x="478" y="-8" type="curve"/>
      <point x="478" y="-8"/>
      <point x="478" y="-37"/>
      <point x="478" y="-37" type="curve"/>
      <point x="478" y="-37"/>
      <point x="859" y="-37"/>
      <point x="859" y="-37" type="curve"/>
      <point x="859" y="-37"/>
      <point x="859" y="-8"/>
      <point x="859" y="-8" type="curve"/>
      <point x="859" y="-8"/>
      <point x="478" y="-8"/>
    </contour>
    <contour>
      <point x="167" y="459" type="curve"/>
      <point x="167" y="459"/>
      <point x="167" y="429"/>
      <point x="167" y="429" type="curve"/>
      <point x="167" y="429"/>
      <point x="335" y="429"/>
      <point x="335" y="429" type="curve"/>
      <point x="335" y="429"/>
      <point x="335" y="459"/>
      <point x="335" y="459" type="curve"/>
      <point x="335" y="459"/>
      <point x="167" y="459"/>
    </contour>
    <contour>
      <point x="650" y="584" type="curve"/>
      <point x="650" y="584"/>
      <point x="650" y="253"/>
      <point x="650" y="253" type="curve"/>
      <point x="650" y="253"/>
      <point x="679" y="253"/>
      <point x="679" y="253" type="curve"/>
      <point x="679" y="253"/>
      <point x="679" y="584"/>
      <point x="679" y="584" type="curve"/>
      <point x="679" y="584"/>
      <point x="650" y="584"/>
    </contour>
    <contour>
      <point x="650" y="222" type="curve"/>
      <point x="650" y="222"/>
      <point x="650" y="-21"/>
      <point x="650" y="-21" type="curve"/>
      <point x="650" y="-21"/>
      <point x="679" y="-21"/>
      <point x="679" y="-21" type="curve"/>
      <point x="679" y="-21"/>
      <point x="679" y="222"/>
      <point x="679" y="222" type="curve"/>
      <point x="679" y="222"/>
      <point x="650" y="222"/>
    </contour>
    <contour>
      <point x="158" y="644" type="curve"/>
      <point x="155" y="378"/>
      <point x="142" y="90"/>
      <point x="43" y="-55" type="curve"/>
      <point x="52" y="-59"/>
      <point x="65" y="-65"/>
      <point x="71" y="-70" type="curve"/>
      <point x="172" y="83"/>
      <point x="183" y="368"/>
      <point x="187" y="644" type="curve"/>
      <point x="187" y="644"/>
      <point x="158" y="644"/>
    </contour>
    <contour>
      <point x="325" y="459" type="curve"/>
      <point x="325" y="459"/>
      <point x="325" y="451"/>
      <point x="325" y="451" type="curve"/>
      <point x="317" y="111"/>
      <point x="308" y="-6"/>
      <point x="288" y="-30" type="curve"/>
      <point x="281" y="-41"/>
      <point x="274" y="-43"/>
      <point x="258" y="-42" type="curve"/>
      <point x="243" y="-42"/>
      <point x="201" y="-42"/>
      <point x="155" y="-38" type="curve"/>
      <point x="161" y="-47"/>
      <point x="164" y="-59"/>
      <point x="165" y="-68" type="curve"/>
      <point x="202" y="-71"/>
      <point x="242" y="-71"/>
      <point x="264" y="-71" type="curve" smooth="yes"/>
      <point x="287" y="-70"/>
      <point x="302" y="-65"/>
      <point x="315" y="-49" type="curve"/>
      <point x="339" y="-16"/>
      <point x="346" y="88"/>
      <point x="354" y="437" type="curve"/>
      <point x="355" y="444"/>
      <point x="355" y="459"/>
      <point x="355" y="459" type="curve"/>
      <point x="355" y="459"/>
      <point x="325" y="459"/>
    </contour>
    <contour>
      <point x="492" y="702" type="curve"/>
      <point x="492" y="702"/>
      <point x="492" y="672"/>
      <point x="492" y="672" type="curve"/>
      <point x="492" y="672"/>
      <point x="952" y="672"/>
      <point x="952" y="672" type="curve"/>
      <point x="952" y="672"/>
      <point x="952" y="702"/>
      <point x="952" y="702" type="curve"/>
      <point x="952" y="702"/>
      <point x="492" y="702"/>
    </contour>
    <contour>
      <point x="530" y="831" type="curve"/>
      <point x="498" y="715"/>
      <point x="445" y="603"/>
      <point x="379" y="527" type="curve"/>
      <point x="387" y="523"/>
      <point x="400" y="513"/>
      <point x="405" y="509" type="curve"/>
      <point x="470" y="587"/>
      <point x="525" y="703"/>
      <point x="560" y="825" type="curve"/>
      <point x="560" y="825"/>
      <point x="530" y="831"/>
    </contour>
    <contour>
      <point x="843" y="627" type="curve"/>
      <point x="758" y="603"/>
      <point x="593" y="580"/>
      <point x="457" y="568" type="curve"/>
      <point x="461" y="560"/>
      <point x="466" y="550"/>
      <point x="467" y="543" type="curve"/>
      <point x="607" y="555"/>
      <point x="770" y="576"/>
      <point x="873" y="605" type="curve"/>
      <point x="873" y="605"/>
      <point x="843" y="627"/>
    </contour>
    <contour>
      <point x="634" y="415" type="curve"/>
      <point x="576" y="340"/>
      <point x="465" y="263"/>
      <point x="374" y="228" type="curve"/>
      <point x="380" y="223"/>
      <point x="389" y="213"/>
      <point x="395" y="205" type="curve"/>
      <point x="484" y="244"/>
      <point x="599" y="324"/>
      <point x="659" y="402" type="curve"/>
      <point x="659" y="402"/>
      <point x="634" y="415"/>
    </contour>
    <contour>
      <point x="696" y="413" type="curve"/>
      <point x="696" y="413"/>
      <point x="672" y="401"/>
      <point x="672" y="401" type="curve"/>
      <point x="729" y="327"/>
      <point x="842" y="246"/>
      <point x="935" y="210" type="curve"/>
      <point x="940" y="218"/>
      <point x="950" y="229"/>
      <point x="957" y="234" type="curve"/>
      <point x="863" y="266"/>
      <point x="751" y="341"/>
    </contour>
    <contour>
      <point x="498" y="519" type="curve"/>
      <point x="521" y="490"/>
      <point x="542" y="451"/>
      <point x="550" y="424" type="curve"/>
      <point x="550" y="424"/>
      <point x="576" y="438"/>
      <point x="576" y="438" type="curve"/>
      <point x="568" y="464"/>
      <point x="545" y="503"/>
      <point x="522" y="530" type="curve"/>
      <point x="522" y="530"/>
      <point x="498" y="519"/>
    </contour>
    <contour>
      <point x="811" y="541" type="curve"/>
      <point x="798" y="511"/>
      <point x="771" y="464"/>
      <point x="752" y="435" type="curve"/>
      <point x="752" y="435"/>
      <point x="774" y="423"/>
      <point x="774" y="423" type="curve"/>
      <point x="794" y="450"/>
      <point x="819" y="490"/>
      <point x="838" y="526" type="curve"/>
      <point x="838" y="526"/>
      <point x="811" y="541"/>
    </contour>
    <contour>
      <point x="463" y="235" type="curve"/>
      <point x="463" y="235"/>
      <point x="463" y="-70"/>
      <point x="463" y="-70" type="curve"/>
      <point x="463" y="-70"/>
      <point x="492" y="-70"/>
      <point x="492" y="-70" type="curve"/>
      <point x="492" y="-70"/>
      <point x="492" y="206"/>
      <point x="492" y="206" type="curve"/>
      <point x="492" y="206"/>
      <point x="844" y="206"/>
      <point x="844" y="206" type="curve"/>
      <point x="844" y="206"/>
      <point x="844" y="-67"/>
      <point x="844" y="-67" type="curve"/>
      <point x="844" y="-67"/>
      <point x="873" y="-67"/>
      <point x="873" y="-67" type="curve"/>
      <point x="873" y="-67"/>
      <point x="873" y="235"/>
      <point x="873" y="235" type="curve"/>
      <point x="873" y="235"/>
      <point x="463" y="235"/>
    </contour>
  </outline>
</glyph>
<glyph name="uni674E" format="2">
  <advance height="1000" width="1000"/>
  <unicode hex="674E"/>
  <outline>
    <contour>
      <point x="62" y="705" type="line"/>
      <point x="62" y="675" type="line"/>
      <point x="940" y="675" type="line"/>
      <point x="940" y="705" type="line"/>
    </contour>
    <contour>
      <point x="483" y="831" type="line"/>
      <point x="483" y="425" type="line"/>
      <point x="513" y="425" type="line"/>
      <point x="513" y="831" type="line"/>
    </contour>
    <contour>
      <point x="452" y="698" type="line"/>
      <point x="362" y="582"/>
      <point x="189" y="469"/>
      <point x="48" y="418" type="curve"/>
      <point x="55" y="412"/>
      <point x="64" y="402"/>
      <point x="69" y="394" type="curve"/>
      <point x="208" y="449"/>
      <point x="384" y="565"/>
      <point x="476" y="685" type="curve"/>
    </contour>
    <contour>
      <point x="546" y="696" type="curve"/>
      <point x="521" y="683" type="line"/>
      <point x="614" y="568"/>
      <point x="790" y="455"/>
      <point x="933" y="403" type="curve"/>
      <point x="938" y="411"/>
      <point x="947" y="422"/>
      <point x="955" y="427" type="curve"/>
      <point x="810" y="475"/>
      <point x="635" y="584"/>
    </contour>
    <contour>
      <point x="235" y="400" type="line"/>
      <point x="235" y="371" type="line"/>
      <point x="734" y="371" type="line"/>
      <point x="734" y="400" type="line"/>
    </contour>
    <contour>
      <point x="59" y="206" type="line"/>
      <point x="59" y="177" type="line"/>
      <point x="942" y="177" type="line"/>
      <point x="942" y="206" type="line"/>
    </contour>
    <contour>
      <point x="482" y="267" type="line"/>
      <point x="482" y="-23" type="line" smooth="yes"/>
      <point x="482" y="-36"/>
      <point x="478" y="-40"/>
      <point x="462" y="-41" type="curve"/>
      <point x="445" y="-43"/>
      <point x="391" y="-43"/>
      <point x="317" y="-41" type="curve"/>
      <point x="323" y="-50"/>
      <point x="329" y="-61"/>
      <point x="331" y="-68" type="curve"/>
      <point x="418" y="-68"/>
      <point x="460" y="-68"/>
      <point x="482" y="-63" type="curve" smooth="yes"/>
      <point x="505" y="-57"/>
      <point x="512" y="-47"/>
      <point x="512" y="-22" type="curve" smooth="yes"/>
      <point x="512" y="267" type="line"/>
    </contour>
    <contour>
      <point x="728" y="400" type="line"/>
      <point x="728" y="393" type="line"/>
      <point x="674" y="345"/>
      <point x="574" y="295"/>
      <point x="482" y="267" type="curve"/>
      <point x="489" y="262"/>
      <point x="498" y="252"/>
      <point x="503" y="245" type="curve"/>
      <point x="595" y="277"/>
      <point x="699" y="328"/>
      <point x="765" y="386" type="curve"/>
      <point x="742" y="402" type="line"/>
      <point x="735" y="400" type="line"/>
    </contour>
  </outline>
</glyph>
<glyph name="uni682B" format="2">
  <advance height="1000" width="1000"/>
  <unicode hex="682B"/>
  <outline>
    <contour>
      <point x="382" y="672" type="line"/>
      <point x="382" y="643" type="line"/>
      <point x="948" y="643" type="line"/>
      <point x="948" y="672" type="line"/>
    </contour>
    <contour>
      <point x="587" y="523" type="line"/>
      <point x="587" y="493" type="line"/>
      <point x="906" y="493" type="line"/>
      <point x="906" y="523" type="line"/>
    </contour>
    <contour>
      <point x="547" y="277" type="line"/>
      <point x="547" y="247" type="line"/>
      <point x="954" y="247" type="line"/>
      <point x="954" y="277" type="line"/>
    </contour>
    <contour>
      <point x="743" y="373" type="line"/>
      <point x="743" y="-21" type="line" smooth="yes"/>
      <point x="743" y="-33"/>
      <point x="739" y="-37"/>
      <point x="725" y="-37" type="curve"/>
      <point x="712" y="-38"/>
      <point x="667" y="-39"/>
      <point x="609" y="-37" type="curve"/>
      <point x="614" y="-46"/>
      <point x="619" y="-57"/>
      <point x="621" y="-65" type="curve"/>
      <point x="689" y="-65"/>
      <point x="727" y="-65"/>
      <point x="747" y="-59" type="curve" smooth="yes"/>
      <point x="766" y="-54"/>
      <point x="771" y="-44"/>
      <point x="771" y="-20" type="curve" smooth="yes"/>
      <point x="771" y="373" type="line"/>
    </contour>
    <contour>
      <point x="896" y="523" type="line"/>
      <point x="896" y="516" type="line"/>
      <point x="862" y="467"/>
      <point x="798" y="408"/>
      <point x="743" y="373" type="curve"/>
      <point x="750" y="369"/>
      <point x="758" y="361"/>
      <point x="763" y="355" type="curve"/>
      <point x="819" y="392"/>
      <point x="887" y="452"/>
      <point x="929" y="512" type="curve"/>
      <point x="909" y="524" type="line"/>
      <point x="903" y="523" type="line"/>
    </contour>
    <contour>
      <point x="602" y="830" type="line"/>
      <point x="547" y="606"/>
      <point x="455" y="408"/>
      <point x="319" y="282" type="curve"/>
      <point x="327" y="278"/>
      <point x="339" y="268"/>
      <point x="344" y="263" type="curve"/>
      <point x="478" y="395"/>
      <point x="572" y="590"/>
      <point x="630" y="824" type="curve"/>
    </contour>
    <contour>
      <point x="59" y="604" type="line"/>
      <point x="59" y="574" type="line"/>
      <point x="378" y="574" type="line"/>
      <point x="378" y="604" type="line"/>
    </contour>
    <contour>
      <point x="218" y="831" type="line"/>
      <point x="218" y="-68" type="line"/>
      <point x="247" y="-68" type="line"/>
      <point x="247" y="831" type="line"/>
    </contour>
    <contour>
      <point x="216" y="596" type="line"/>
      <point x="184" y="438"/>
      <point x="110" y="247"/>
      <point x="41" y="154" type="curve"/>
      <point x="48" y="149"/>
      <point x="58" y="138"/>
      <point x="64" y="131" type="curve"/>
      <point x="134" y="229"/>
      <point x="209" y="429"/>
      <point x="242" y="588" type="curve"/>
    </contour>
    <contour>
      <point x="242" y="573" type="curve"/>
      <point x="224" y="559" type="line"/>
      <point x="247" y="530"/>
      <point x="321" y="421"/>
      <point x="341" y="383" type="curve"/>
      <point x="362" y="409" type="line"/>
      <point x="344" y="436"/>
      <point x="264" y="548"/>
    </contour>
    <contour>
      <point x="467" y="462" type="line"/>
      <point x="467" y="-68" type="line"/>
      <point x="496" y="-68" type="line"/>
      <point x="496" y="488" type="line"/>
      <point x="494" y="489" type="line"/>
    </contour>
  </outline>
</glyph>
<glyph name="uni6D0A" format="2">
  <advance height="1000" width="1000"/>
  <unicode hex="6D0A"/>
  <outline>
    <contour>
      <point x="311" y="672" type="line"/>
      <point x="311" y="643" type="line"/>
      <point x="951" y="643" type="line"/>
      <point x="951" y="672" type="line"/>
    </contour>
    <contour>
      <point x="476" y="277" type="line"/>
      <point x="476" y="247" type="line"/>
      <point x="936" y="247" type="line"/>
      <point x="936" y="277" type="line"/>
    </contour>
    <contour>
      <point x="543" y="525" type="line"/>
      <point x="543" y="496" type="line"/>
      <point x="866" y="496" type="line"/>
      <point x="866" y="525" type="line"/>
    </contour>
    <contour>
      <point x="704" y="383" type="line"/>
      <point x="704" y="-23" type="line" smooth="yes"/>
      <point x="704" y="-35"/>
      <point x="701" y="-39"/>
      <point x="688" y="-39" type="curve"/>
      <point x="674" y="-40"/>
      <point x="632" y="-41"/>
      <point x="576" y="-39" type="curve"/>
      <point x="581" y="-49"/>
      <point x="587" y="-61"/>
      <point x="589" y="-69" type="curve"/>
      <point x="651" y="-69"/>
      <point x="689" y="-69"/>
      <point x="708" y="-64" type="curve" smooth="yes"/>
      <point x="727" y="-58"/>
      <point x="733" y="-47"/>
      <point x="733" y="-23" type="curve" smooth="yes"/>
      <point x="733" y="383" type="line"/>
    </contour>
    <contour>
      <point x="552" y="832" type="line"/>
      <point x="497" y="610"/>
      <point x="398" y="425"/>
      <point x="255" y="309" type="curve"/>
      <point x="262" y="303"/>
      <point x="273" y="290"/>
      <point x="277" y="284" type="curve"/>
      <point x="422" y="409"/>
      <point x="522" y="595"/>
      <point x="581" y="826" type="curve"/>
    </contour>
    <contour>
      <point x="395" y="452" type="line"/>
      <point x="395" y="-70" type="line"/>
      <point x="425" y="-70" type="line"/>
      <point x="425" y="478" type="line"/>
      <point x="423" y="479" type="line"/>
    </contour>
    <contour>
      <point x="857" y="525" type="line"/>
      <point x="857" y="519" type="line"/>
      <point x="822" y="473"/>
      <point x="760" y="417"/>
      <point x="704" y="383" type="curve"/>
      <point x="711" y="379"/>
      <point x="720" y="372"/>
      <point x="724" y="366" type="curve"/>
      <point x="780" y="401"/>
      <point x="848" y="458"/>
      <point x="891" y="514" type="curve"/>
      <point x="869" y="527" type="line"/>
      <point x="864" y="525" type="line"/>
    </contour>
    <contour>
      <point x="101" y="796" type="line"/>
      <point x="157" y="762"/>
      <point x="223" y="710"/>
      <point x="255" y="673" type="curve"/>
      <point x="275" y="696" type="line"/>
      <point x="243" y="731"/>
      <point x="178" y="782"/>
      <point x="121" y="816" type="curve"/>
    </contour>
    <contour>
      <point x="48" y="524" type="line"/>
      <point x="103" y="492"/>
      <point x="167" y="443"/>
      <point x="199" y="410" type="curve"/>
      <point x="218" y="432" type="line"/>
      <point x="186" y="466"/>
      <point x="122" y="513"/>
      <point x="68" y="544" type="curve"/>
    </contour>
    <contour>
      <point x="77" y="-26" type="curve"/>
      <point x="105" y="-45" type="line"/>
      <point x="145" y="43"/>
      <point x="194" y="176"/>
      <point x="229" y="279" type="curve"/>
      <point x="203" y="297" type="line"/>
      <point x="168" y="187"/>
      <point x="115" y="52"/>
    </contour>
  </outline>
</glyph>
<glyph name="uni6E24" format="2">
  <advance height="1000" width="1000"/>
  <unicode hex="6E24"/>
  <outline>
    <contour>
      <point x="98" y="797" type="line"/>
      <point x="138" y="760"/>
      <point x="185" y="708"/>
      <point x="208" y="673" type="curve"/>
      <point x="230" y="692" type="line"/>
      <point x="208" y="725"/>
      <point x="161" y="776"/>
      <point x="121" y="812" type="curve"/>
    </contour>
    <contour>
      <point x="48" y="528" type="line"/>
      <point x="97" y="492"/>
      <point x="154" y="439"/>
      <point x="183" y="405" type="curve"/>
      <point x="203" y="426" type="line"/>
      <point x="176" y="460"/>
      <point x="118" y="511"/>
      <point x="69" y="546" type="curve"/>
    </contour>
    <contour>
      <point x="77" y="-35" type="curve"/>
      <point x="104" y="-53" type="line"/>
      <point x="141" y="35"/>
      <point x="188" y="168"/>
      <point x="219" y="272" type="curve"/>
      <point x="194" y="288" type="line"/>
      <point x="162" y="180"/>
      <point x="112" y="43"/>
    </contour>
    <contour>
      <point x="244" y="717" type="line"/>
      <point x="244" y="687" type="line"/>
      <point x="637" y="687" type="line"/>
      <point x="637" y="717" type="line"/>
    </contour>
    <contour>
      <point x="644" y="592" type="line"/>
      <point x="644" y="563" type="line"/>
      <point x="922" y="563" type="line"/>
      <point x="922" y="592" type="line"/>
    </contour>
    <contour>
      <point x="291" y="427" type="line"/>
      <point x="291" y="398" type="line"/>
      <point x="566" y="398" type="line"/>
      <point x="566" y="427" type="line"/>
    </contour>
    <contour>
      <point x="421" y="829" type="line"/>
      <point x="421" y="560" type="line"/>
      <point x="450" y="560" type="line"/>
      <point x="450" y="829" type="line"/>
    </contour>
    <contour>
      <point x="419" y="302" type="line"/>
      <point x="419" y="-25" type="line" smooth="yes"/>
      <point x="419" y="-36"/>
      <point x="416" y="-40"/>
      <point x="403" y="-40" type="curve"/>
      <point x="390" y="-41"/>
      <point x="351" y="-41"/>
      <point x="298" y="-40" type="curve"/>
      <point x="303" y="-49"/>
      <point x="308" y="-60"/>
      <point x="310" y="-67" type="curve"/>
      <point x="372" y="-67"/>
      <point x="407" y="-67"/>
      <point x="425" y="-63" type="curve"/>
      <point x="443" y="-57"/>
      <point x="448" y="-47"/>
      <point x="448" y="-25" type="curve" smooth="yes"/>
      <point x="448" y="302" type="line"/>
    </contour>
    <contour>
      <point x="235" y="175" type="curve"/>
      <point x="244" y="145" type="line"/>
      <point x="347" y="167"/>
      <point x="496" y="197"/>
      <point x="639" y="228" type="curve"/>
      <point x="637" y="255" type="line"/>
      <point x="486" y="225"/>
      <point x="332" y="193"/>
    </contour>
    <contour>
      <point x="752" y="826" type="line"/>
      <point x="751" y="429"/>
      <point x="751" y="112"/>
      <point x="564" y="-51" type="curve"/>
      <point x="573" y="-55"/>
      <point x="586" y="-64"/>
      <point x="592" y="-69" type="curve"/>
      <point x="781" y="104"/>
      <point x="780" y="419"/>
      <point x="781" y="826" type="curve"/>
    </contour>
    <contour>
      <point x="905" y="592" type="line"/>
      <point x="905" y="583" type="line" smooth="yes"/>
      <point x="901" y="149"/>
      <point x="894" y="4"/>
      <point x="873" y="-24" type="curve"/>
      <point x="866" y="-36"/>
      <point x="857" y="-38"/>
      <point x="841" y="-37" type="curve"/>
      <point x="824" y="-37"/>
      <point x="775" y="-37"/>
      <point x="722" y="-33" type="curve"/>
      <point x="727" y="-41"/>
      <point x="730" y="-54"/>
      <point x="731" y="-64" type="curve"/>
      <point x="774" y="-66"/>
      <point x="820" y="-67"/>
      <point x="845" y="-66" type="curve" smooth="yes"/>
      <point x="870" y="-65"/>
      <point x="887" y="-60"/>
      <point x="900" y="-41" type="curve" smooth="yes"/>
      <point x="925" y="-5"/>
      <point x="929" y="127"/>
      <point x="934" y="570" type="curve" smooth="yes"/>
      <point x="934" y="575"/>
      <point x="934" y="592"/>
      <point x="934" y="592" type="curve"/>
    </contour>
    <contour>
      <point x="254" y="572" type="line"/>
      <point x="254" y="449" type="line"/>
      <point x="283" y="449" type="line"/>
      <point x="283" y="542" type="line"/>
      <point x="598" y="542" type="line"/>
      <point x="598" y="449" type="line"/>
      <point x="627" y="449" type="line"/>
      <point x="627" y="572" type="line"/>
    </contour>
    <contour>
      <point x="558" y="427" type="line"/>
      <point x="558" y="421" type="line"/>
      <point x="526" y="380"/>
      <point x="469" y="331"/>
      <point x="419" y="302" type="curve"/>
      <point x="425" y="297"/>
      <point x="433" y="290"/>
      <point x="438" y="284" type="curve"/>
      <point x="489" y="316"/>
      <point x="552" y="366"/>
      <point x="591" y="416" type="curve"/>
      <point x="571" y="429" type="line"/>
      <point x="565" y="427" type="line"/>
    </contour>
  </outline>
</glyph>
<glyph name="uni7C7D" format="2">
  <advance height="1000" width="1000"/>
  <unicode hex="7C7D"/>
  <outline>
    <contour>
      <point x="230" y="829" type="line"/>
      <point x="230" y="-70" type="line"/>
      <point x="259" y="-70" type="line"/>
      <point x="259" y="829" type="line"/>
    </contour>
    <contour>
      <point x="56" y="482" type="line"/>
      <point x="56" y="453" type="line"/>
      <point x="419" y="453" type="line"/>
      <point x="419" y="482" type="line"/>
    </contour>
    <contour>
      <point x="230" y="469" type="line"/>
      <point x="193" y="336"/>
      <point x="114" y="177"/>
      <point x="46" y="97" type="curve"/>
      <point x="53" y="92"/>
      <point x="63" y="82"/>
      <point x="67" y="75" type="curve"/>
      <point x="136" y="159"/>
      <point x="215" y="327"/>
      <point x="253" y="461" type="curve"/>
    </contour>
    <contour>
      <point x="256" y="377" type="curve"/>
      <point x="237" y="362" type="line"/>
      <point x="268" y="332"/>
      <point x="361" y="222"/>
      <point x="386" y="184" type="curve"/>
      <point x="410" y="210" type="line"/>
      <point x="387" y="238"/>
      <point x="283" y="352"/>
    </contour>
    <contour>
      <point x="66" y="749" type="line"/>
      <point x="97" y="684"/>
      <point x="123" y="599"/>
      <point x="128" y="543" type="curve"/>
      <point x="157" y="551" type="line"/>
      <point x="150" y="606"/>
      <point x="125" y="691"/>
      <point x="92" y="756" type="curve"/>
    </contour>
    <contour>
      <point x="387" y="763" type="line"/>
      <point x="370" y="698"/>
      <point x="335" y="600"/>
      <point x="309" y="544" type="curve"/>
      <point x="333" y="534" type="line"/>
      <point x="361" y="588"/>
      <point x="394" y="680"/>
      <point x="420" y="750" type="curve"/>
    </contour>
    <contour>
      <point x="476" y="744" type="line"/>
      <point x="476" y="715" type="line"/>
      <point x="877" y="715" type="line"/>
      <point x="877" y="744" type="line"/>
    </contour>
    <contour>
      <point x="426" y="393" type="line"/>
      <point x="426" y="364" type="line"/>
      <point x="951" y="364" type="line"/>
      <point x="951" y="393" type="line"/>
    </contour>
    <contour>
      <point x="678" y="529" type="line"/>
      <point x="678" y="-22" type="line" smooth="yes"/>
      <point x="678" y="-36"/>
      <point x="673" y="-41"/>
      <point x="658" y="-42" type="curve" smooth="yes"/>
      <point x="642" y="-43"/>
      <point x="591" y="-43"/>
      <point x="523" y="-42" type="curve"/>
      <point x="527" y="-51"/>
      <point x="534" y="-63"/>
      <point x="537" y="-70" type="curve"/>
      <point x="615" y="-71"/>
      <point x="655" y="-70"/>
      <point x="676" y="-65" type="curve" smooth="yes"/>
      <point x="699" y="-60"/>
      <point x="708" y="-48"/>
      <point x="708" y="-21" type="curve" smooth="yes"/>
      <point x="708" y="529" type="line"/>
    </contour>
    <contour>
      <point x="868" y="744" type="line"/>
      <point x="868" y="736" type="line"/>
      <point x="825" y="668"/>
      <point x="745" y="581"/>
      <point x="678" y="529" type="curve"/>
      <point x="686" y="524"/>
      <point x="696" y="516"/>
      <point x="701" y="509" type="curve"/>
      <point x="769" y="564"/>
      <point x="854" y="651"/>
      <point x="906" y="731" type="curve"/>
      <point x="882" y="747" type="line"/>
      <point x="875" y="744" type="line"/>
    </contour>
  </outline>
</glyph>
<glyph name="uni7DCA" format="2">
  <advance height="1000" width="1000"/>
  <unicode hex="7DCA"/>
  <outline>
    <contour>
      <point x="523" y="773" type="curve"/>
      <point x="523" y="773"/>
      <point x="523" y="744"/>
      <point x="523" y="744" type="curve"/>
      <point x="523" y="744"/>
      <point x="889" y="744"/>
      <point x="889" y="744" type="curve"/>
      <point x="889" y="744"/>
      <point x="889" y="773"/>
      <point x="889" y="773" type="curve"/>
      <point x="889" y="773"/>
      <point x="523" y="773"/>
    </contour>
    <contour>
      <point x="113" y="678" type="curve"/>
      <point x="113" y="678"/>
      <point x="113" y="649"/>
      <point x="113" y="649" type="curve"/>
      <point x="113" y="649"/>
      <point x="426" y="649"/>
      <point x="426" y="649" type="curve"/>
      <point x="426" y="649"/>
      <point x="426" y="554"/>
      <point x="426" y="554" type="curve"/>
      <point x="426" y="554"/>
      <point x="113" y="554"/>
      <point x="113" y="554" type="curve"/>
      <point x="113" y="554"/>
      <point x="113" y="524"/>
      <point x="113" y="524" type="curve"/>
      <point x="113" y="524"/>
      <point x="455" y="524"/>
      <point x="455" y="524" type="curve"/>
      <point x="455" y="524"/>
      <point x="455" y="678"/>
      <point x="455" y="678" type="curve"/>
      <point x="455" y="678"/>
      <point x="113" y="678"/>
    </contour>
    <contour>
      <point x="279" y="778" type="curve"/>
      <point x="279" y="778"/>
      <point x="279" y="664"/>
      <point x="279" y="664" type="curve"/>
      <point x="279" y="664"/>
      <point x="308" y="664"/>
      <point x="308" y="664" type="curve"/>
      <point x="308" y="664"/>
      <point x="308" y="778"/>
      <point x="308" y="778" type="curve"/>
      <point x="308" y="778"/>
      <point x="279" y="778"/>
    </contour>
    <contour>
      <point x="280" y="540" type="curve"/>
      <point x="280" y="540"/>
      <point x="280" y="425"/>
      <point x="280" y="425" type="curve"/>
      <point x="280" y="425"/>
      <point x="309" y="425"/>
      <point x="309" y="425" type="curve"/>
      <point x="309" y="425"/>
      <point x="309" y="540"/>
      <point x="309" y="540" type="curve"/>
      <point x="309" y="540"/>
      <point x="280" y="540"/>
    </contour>
    <contour>
      <point x="584" y="745" type="curve"/>
      <point x="584" y="745"/>
      <point x="558" y="736"/>
      <point x="558" y="736" type="curve"/>
      <point x="621" y="564"/>
      <point x="754" y="431"/>
      <point x="923" y="374" type="curve"/>
      <point x="928" y="382"/>
      <point x="937" y="393"/>
      <point x="944" y="399" type="curve"/>
      <point x="775" y="450"/>
      <point x="644" y="579"/>
    </contour>
    <contour>
      <point x="878" y="773" type="curve"/>
      <point x="878" y="773"/>
      <point x="878" y="767"/>
      <point x="878" y="767" type="curve"/>
      <point x="823" y="578"/>
      <point x="670" y="454"/>
      <point x="522" y="403" type="curve"/>
      <point x="528" y="397"/>
      <point x="536" y="386"/>
      <point x="540" y="379" type="curve"/>
      <point x="693" y="436"/>
      <point x="848" y="563"/>
      <point x="908" y="767" type="curve"/>
      <point x="908" y="767"/>
      <point x="890" y="775"/>
      <point x="890" y="775" type="curve"/>
      <point x="890" y="775"/>
      <point x="884" y="773"/>
      <point x="884" y="773" type="curve"/>
      <point x="884" y="773"/>
      <point x="878" y="773"/>
    </contour>
    <contour>
      <point x="481" y="786" type="curve"/>
      <point x="481" y="786"/>
      <point x="95" y="786"/>
      <point x="95" y="786" type="curve"/>
      <point x="95" y="786"/>
      <point x="95" y="416"/>
      <point x="95" y="416" type="curve"/>
      <point x="95" y="416"/>
      <point x="488" y="416"/>
      <point x="488" y="416" type="curve"/>
      <point x="488" y="416"/>
      <point x="488" y="445"/>
      <point x="488" y="445" type="curve"/>
      <point x="488" y="445"/>
      <point x="125" y="445"/>
      <point x="125" y="445" type="curve"/>
      <point x="125" y="445"/>
      <point x="125" y="757"/>
      <point x="125" y="757" type="curve"/>
      <point x="125" y="757"/>
      <point x="481" y="757"/>
      <point x="481" y="757" type="curve"/>
      <point x="481" y="757"/>
      <point x="481" y="786"/>
    </contour>
    <contour>
      <point x="319" y="96" type="curve"/>
      <point x="259" y="46"/>
      <point x="167" y="0"/>
      <point x="83" y="-32" type="curve"/>
      <point x="91" y="-37"/>
      <point x="105" y="-47"/>
      <point x="110" y="-52" type="curve"/>
      <point x="189" y="-18"/>
      <point x="283" y="33"/>
      <point x="347" y="85" type="curve"/>
      <point x="347" y="85"/>
      <point x="319" y="96"/>
    </contour>
    <contour>
      <point x="647" y="83" type="curve"/>
      <point x="728" y="47"/>
      <point x="830" y="-11"/>
      <point x="885" y="-48" type="curve"/>
      <point x="885" y="-48"/>
      <point x="908" y="-26"/>
      <point x="908" y="-26" type="curve"/>
      <point x="854" y="10"/>
      <point x="750" y="67"/>
      <point x="671" y="103" type="curve"/>
      <point x="671" y="103"/>
      <point x="647" y="83"/>
    </contour>
    <contour>
      <point x="684" y="260" type="curve"/>
      <point x="754" y="212"/>
      <point x="832" y="139"/>
      <point x="871" y="90" type="curve"/>
      <point x="871" y="90"/>
      <point x="894" y="111"/>
      <point x="894" y="111" type="curve"/>
      <point x="856" y="159"/>
      <point x="776" y="228"/>
      <point x="705" y="278" type="curve"/>
      <point x="705" y="278"/>
      <point x="684" y="260"/>
    </contour>
    <contour>
      <point x="206" y="249" type="curve"/>
      <point x="206" y="256"/>
      <point x="238" y="263"/>
      <point x="238" y="263" type="curve"/>
      <point x="238" y="263"/>
      <point x="238" y="264"/>
      <point x="238" y="264" type="curve"/>
      <point x="317" y="287"/>
      <point x="393" y="325"/>
      <point x="472" y="374" type="curve"/>
      <point x="472" y="374"/>
      <point x="448" y="392"/>
      <point x="448" y="392" type="curve"/>
      <point x="379" y="346"/>
      <point x="288" y="303"/>
      <point x="261" y="293" type="curve" smooth="yes"/>
      <point x="236" y="283"/>
      <point x="214" y="278"/>
      <point x="197" y="278" type="curve"/>
      <point x="197" y="278"/>
      <point x="206" y="249"/>
    </contour>
    <contour>
      <point x="206" y="249" type="curve"/>
      <point x="222" y="251"/>
      <point x="252" y="253"/>
      <point x="541" y="265" type="curve"/>
      <point x="541" y="265"/>
      <point x="538" y="291"/>
      <point x="538" y="291" type="curve"/>
      <point x="538" y="291"/>
      <point x="232" y="280"/>
      <point x="232" y="280" type="curve"/>
      <point x="232" y="280"/>
      <point x="206" y="270"/>
      <point x="206" y="270" type="curve"/>
      <point x="206" y="270"/>
      <point x="206" y="249"/>
    </contour>
    <contour>
      <point x="120" y="117" type="curve"/>
      <point x="120" y="120"/>
      <point x="153" y="125"/>
      <point x="153" y="125" type="curve"/>
      <point x="153" y="125"/>
      <point x="153" y="126"/>
      <point x="153" y="126" type="curve"/>
      <point x="328" y="173"/>
      <point x="499" y="237"/>
      <point x="676" y="330" type="curve"/>
      <point x="676" y="330"/>
      <point x="656" y="352"/>
      <point x="656" y="352" type="curve"/>
      <point x="494" y="266"/>
      <point x="300" y="193"/>
      <point x="240" y="175" type="curve" smooth="yes"/>
      <point x="187" y="157"/>
      <point x="138" y="145"/>
      <point x="111" y="144" type="curve"/>
      <point x="111" y="144"/>
      <point x="120" y="117"/>
    </contour>
    <contour>
      <point x="120" y="117" type="curve"/>
      <point x="145" y="120"/>
      <point x="189" y="123"/>
      <point x="812" y="157" type="curve"/>
      <point x="812" y="157"/>
      <point x="807" y="184"/>
      <point x="807" y="184" type="curve"/>
      <point x="807" y="184"/>
      <point x="151" y="148"/>
      <point x="151" y="148" type="curve"/>
      <point x="151" y="148"/>
      <point x="120" y="133"/>
      <point x="120" y="133" type="curve"/>
      <point x="120" y="133"/>
      <point x="120" y="117"/>
    </contour>
    <contour>
      <point x="495" y="163" type="curve"/>
      <point x="495" y="163"/>
      <point x="495" y="-23"/>
      <point x="495" y="-23" type="curve"/>
      <point x="495" y="-34"/>
      <point x="492" y="-38"/>
      <point x="476" y="-39" type="curve"/>
      <point x="461" y="-41"/>
      <point x="415" y="-41"/>
      <point x="344" y="-39" type="curve"/>
      <point x="349" y="-49"/>
      <point x="355" y="-59"/>
      <point x="357" y="-66" type="curve"/>
      <point x="433" y="-66"/>
      <point x="476" y="-67"/>
      <point x="498" y="-62" type="curve" smooth="yes"/>
      <point x="520" y="-56"/>
      <point x="525" y="-46"/>
      <point x="525" y="-23" type="curve"/>
      <point x="525" y="-23"/>
      <point x="525" y="163"/>
      <point x="525" y="163" type="curve"/>
      <point x="525" y="163"/>
      <point x="495" y="163"/>
    </contour>
  </outline>
</glyph>
<glyph name="uni8014" format="2">
  <advance height="1000" width="1000"/>
  <unicode hex="8014"/>
  <outline>
    <contour>
      <point x="505" y="757" type="line"/>
      <point x="505" y="727" type="line"/>
      <point x="903" y="727" type="line"/>
      <point x="903" y="757" type="line"/>
    </contour>
    <contour>
      <point x="471" y="402" type="line"/>
      <point x="471" y="373" type="line"/>
      <point x="952" y="373" type="line"/>
      <point x="952" y="402" type="line"/>
    </contour>
    <contour>
      <point x="895" y="757" type="line"/>
      <point x="895" y="749" type="line"/>
      <point x="850" y="678"/>
      <point x="764" y="590"/>
      <point x="689" y="538" type="curve"/>
      <point x="696" y="534"/>
      <point x="705" y="526"/>
      <point x="710" y="521" type="curve"/>
      <point x="784" y="574"/>
      <point x="874" y="663"/>
      <point x="929" y="745" type="curve"/>
      <point x="908" y="759" type="line"/>
      <point x="902" y="757" type="line"/>
    </contour>
    <contour>
      <point x="689" y="538" type="line"/>
      <point x="689" y="-14" type="line" smooth="yes"/>
      <point x="689" y="-28"/>
      <point x="685" y="-32"/>
      <point x="670" y="-33" type="curve" smooth="yes"/>
      <point x="653" y="-34"/>
      <point x="600" y="-34"/>
      <point x="533" y="-33" type="curve"/>
      <point x="538" y="-43"/>
      <point x="544" y="-56"/>
      <point x="546" y="-64" type="curve"/>
      <point x="620" y="-65"/>
      <point x="666" y="-65"/>
      <point x="688" y="-59" type="curve" smooth="yes"/>
      <point x="711" y="-53"/>
      <point x="719" y="-41"/>
      <point x="719" y="-13" type="curve" smooth="yes"/>
      <point x="719" y="538" type="line"/>
    </contour>
    <contour>
      <point x="58" y="398" type="line"/>
      <point x="58" y="369" type="line"/>
      <point x="429" y="369" type="line"/>
      <point x="429" y="398" type="line"/>
    </contour>
    <contour>
      <point x="90" y="564" type="line"/>
      <point x="90" y="534" type="line"/>
      <point x="404" y="534" type="line"/>
      <point x="404" y="564" type="line"/>
    </contour>
    <contour>
      <point x="238" y="830" type="line"/>
      <point x="238" y="-69" type="line"/>
      <point x="268" y="-69" type="line"/>
      <point x="268" y="830" type="line"/>
    </contour>
    <contour>
      <point x="231" y="387" type="line"/>
      <point x="196" y="266"/>
      <point x="116" y="119"/>
      <point x="51" y="47" type="curve"/>
      <point x="58" y="42"/>
      <point x="67" y="32"/>
      <point x="72" y="25" type="curve"/>
      <point x="138" y="101"/>
      <point x="218" y="255"/>
      <point x="256" y="378" type="curve"/>
    </contour>
    <contour>
      <point x="264" y="316" type="curve"/>
      <point x="244" y="297" type="line"/>
      <point x="278" y="269"/>
      <point x="378" y="167"/>
      <point x="408" y="131" type="curve"/>
      <point x="427" y="159" type="line"/>
      <point x="401" y="185"/>
      <point x="293" y="291"/>
    </contour>
    <contour>
      <point x="400" y="774" type="line"/>
      <point x="329" y="742"/>
      <point x="179" y="717"/>
      <point x="60" y="703" type="curve"/>
      <point x="65" y="695"/>
      <point x="70" y="684"/>
      <point x="71" y="677" type="curve"/>
      <point x="192" y="691"/>
      <point x="342" y="716"/>
      <point x="426" y="752" type="curve"/>
    </contour>
  </outline>
</glyph>
<glyph name="uni806F" format="2">
  <advance height="1000" width="1000"/>
  <unicode hex="806F"/>
  <outline>
    <contour>
      <point x="568" y="519" type="curve"/>
      <point x="588" y="466"/>
      <point x="609" y="408"/>
      <point x="620" y="367" type="curve"/>
      <point x="620" y="367"/>
      <point x="647" y="379"/>
      <point x="647" y="379" type="curve"/>
      <point x="637" y="417"/>
      <point x="616" y="473"/>
      <point x="594" y="525" type="curve"/>
      <point x="594" y="525"/>
      <point x="568" y="519"/>
    </contour>
    <contour>
      <point x="388" y="580" type="curve"/>
      <point x="388" y="586"/>
      <point x="418" y="596"/>
      <point x="418" y="596" type="curve"/>
      <point x="418" y="596"/>
      <point x="418" y="597"/>
      <point x="418" y="597" type="curve"/>
      <point x="464" y="652"/>
      <point x="511" y="732"/>
      <point x="550" y="815" type="curve"/>
      <point x="550" y="815"/>
      <point x="521" y="828"/>
      <point x="521" y="828" type="curve"/>
      <point x="490" y="749"/>
      <point x="433" y="664"/>
      <point x="418" y="643" type="curve" smooth="yes"/>
      <point x="403" y="622"/>
      <point x="391" y="609"/>
      <point x="378" y="608" type="curve"/>
      <point x="378" y="608"/>
      <point x="388" y="580"/>
    </contour>
    <contour>
      <point x="388" y="580" type="curve"/>
      <point x="400" y="582"/>
      <point x="422" y="584"/>
      <point x="546" y="591" type="curve"/>
      <point x="546" y="591"/>
      <point x="561" y="620"/>
      <point x="561" y="620" type="curve"/>
      <point x="561" y="620"/>
      <point x="413" y="614"/>
      <point x="413" y="614" type="curve"/>
      <point x="413" y="614"/>
      <point x="388" y="603"/>
      <point x="388" y="603" type="curve"/>
      <point x="388" y="603"/>
      <point x="388" y="580"/>
    </contour>
    <contour>
      <point x="388" y="387" type="curve"/>
      <point x="388" y="394"/>
      <point x="416" y="404"/>
      <point x="416" y="404" type="curve"/>
      <point x="416" y="404"/>
      <point x="416" y="405"/>
      <point x="416" y="405" type="curve"/>
      <point x="486" y="479"/>
      <point x="555" y="584"/>
      <point x="615" y="690" type="curve"/>
      <point x="615" y="690"/>
      <point x="587" y="705"/>
      <point x="587" y="705" type="curve"/>
      <point x="536" y="603"/>
      <point x="458" y="494"/>
      <point x="435" y="468" type="curve"/>
      <point x="412" y="439"/>
      <point x="392" y="419"/>
      <point x="377" y="417" type="curve"/>
      <point x="377" y="417"/>
      <point x="388" y="387"/>
    </contour>
    <contour>
      <point x="388" y="387" type="curve"/>
      <point x="400" y="390"/>
      <point x="426" y="393"/>
      <point x="623" y="415" type="curve"/>
      <point x="623" y="415"/>
      <point x="615" y="443"/>
      <point x="615" y="443" type="curve"/>
      <point x="615" y="443"/>
      <point x="412" y="425"/>
      <point x="412" y="425" type="curve"/>
      <point x="412" y="425"/>
      <point x="388" y="411"/>
      <point x="388" y="411" type="curve"/>
      <point x="388" y="411"/>
      <point x="388" y="387"/>
    </contour>
    <contour>
      <point x="849" y="533" type="curve"/>
      <point x="875" y="477"/>
      <point x="904" y="404"/>
      <point x="917" y="361" type="curve"/>
      <point x="917" y="361"/>
      <point x="944" y="373"/>
      <point x="944" y="373" type="curve"/>
      <point x="930" y="414"/>
      <point x="901" y="485"/>
      <point x="874" y="540" type="curve"/>
      <point x="874" y="540"/>
      <point x="849" y="533"/>
    </contour>
    <contour>
      <point x="674" y="583" type="curve"/>
      <point x="674" y="590"/>
      <point x="703" y="601"/>
      <point x="703" y="601" type="curve"/>
      <point x="703" y="601"/>
      <point x="703" y="602"/>
      <point x="703" y="602" type="curve"/>
      <point x="748" y="655"/>
      <point x="795" y="734"/>
      <point x="833" y="815" type="curve"/>
      <point x="833" y="815"/>
      <point x="803" y="827"/>
      <point x="803" y="827" type="curve"/>
      <point x="773" y="751"/>
      <point x="718" y="668"/>
      <point x="701" y="647" type="curve"/>
      <point x="688" y="627"/>
      <point x="676" y="615"/>
      <point x="663" y="613" type="curve"/>
      <point x="663" y="613"/>
      <point x="674" y="583"/>
    </contour>
    <contour>
      <point x="674" y="583" type="curve"/>
      <point x="685" y="585"/>
      <point x="706" y="587"/>
      <point x="820" y="595" type="curve"/>
      <point x="820" y="595"/>
      <point x="836" y="623"/>
      <point x="836" y="623" type="curve"/>
      <point x="836" y="623"/>
      <point x="698" y="618"/>
      <point x="698" y="618" type="curve"/>
      <point x="698" y="618"/>
      <point x="674" y="607"/>
      <point x="674" y="607" type="curve"/>
      <point x="674" y="607"/>
      <point x="674" y="583"/>
    </contour>
    <contour>
      <point x="674" y="396" type="curve"/>
      <point x="674" y="403"/>
      <point x="704" y="414"/>
      <point x="704" y="414" type="curve"/>
      <point x="704" y="414"/>
      <point x="704" y="415"/>
      <point x="704" y="415" type="curve"/>
      <point x="770" y="485"/>
      <point x="835" y="586"/>
      <point x="890" y="688" type="curve"/>
      <point x="890" y="688"/>
      <point x="861" y="704"/>
      <point x="861" y="704" type="curve"/>
      <point x="816" y="606"/>
      <point x="739" y="502"/>
      <point x="717" y="475" type="curve" smooth="yes"/>
      <point x="696" y="447"/>
      <point x="678" y="428"/>
      <point x="663" y="426" type="curve"/>
      <point x="663" y="426"/>
      <point x="674" y="396"/>
    </contour>
    <contour>
      <point x="674" y="396" type="curve"/>
      <point x="688" y="399"/>
      <point x="714" y="402"/>
      <point x="911" y="421" type="curve"/>
      <point x="911" y="421"/>
      <point x="906" y="448"/>
      <point x="906" y="448" type="curve"/>
      <point x="906" y="448"/>
      <point x="699" y="432"/>
      <point x="699" y="432" type="curve"/>
      <point x="699" y="432"/>
      <point x="674" y="420"/>
      <point x="674" y="420" type="curve"/>
      <point x="674" y="420"/>
      <point x="674" y="396"/>
    </contour>
    <contour>
      <point x="51" y="783" type="curve"/>
      <point x="51" y="783"/>
      <point x="51" y="754"/>
      <point x="51" y="754" type="curve"/>
      <point x="51" y="754"/>
      <point x="387" y="754"/>
      <point x="387" y="754" type="curve"/>
      <point x="387" y="754"/>
      <point x="387" y="783"/>
      <point x="387" y="783" type="curve"/>
      <point x="387" y="783"/>
      <point x="51" y="783"/>
    </contour>
    <contour>
      <point x="126" y="577" type="curve"/>
      <point x="126" y="577"/>
      <point x="126" y="548"/>
      <point x="126" y="548" type="curve"/>
      <point x="126" y="548"/>
      <point x="312" y="548"/>
      <point x="312" y="548" type="curve"/>
      <point x="312" y="548"/>
      <point x="312" y="577"/>
      <point x="312" y="577" type="curve"/>
      <point x="312" y="577"/>
      <point x="126" y="577"/>
    </contour>
    <contour>
      <point x="430" y="151" type="curve"/>
      <point x="430" y="151"/>
      <point x="430" y="122"/>
      <point x="430" y="122" type="curve"/>
      <point x="430" y="122"/>
      <point x="581" y="122"/>
      <point x="581" y="122" type="curve"/>
      <point x="581" y="122"/>
      <point x="581" y="151"/>
      <point x="581" y="151" type="curve"/>
      <point x="581" y="151"/>
      <point x="430" y="151"/>
    </contour>
    <contour>
      <point x="730" y="151" type="curve"/>
      <point x="730" y="151"/>
      <point x="730" y="122"/>
      <point x="730" y="122" type="curve"/>
      <point x="730" y="122"/>
      <point x="894" y="122"/>
      <point x="894" y="122" type="curve"/>
      <point x="894" y="122"/>
      <point x="894" y="151"/>
      <point x="894" y="151" type="curve"/>
      <point x="894" y="151"/>
      <point x="730" y="151"/>
    </contour>
    <contour>
      <point x="126" y="368" type="curve"/>
      <point x="126" y="368"/>
      <point x="126" y="338"/>
      <point x="126" y="338" type="curve"/>
      <point x="126" y="338"/>
      <point x="312" y="338"/>
      <point x="312" y="338" type="curve"/>
      <point x="312" y="338"/>
      <point x="312" y="368"/>
      <point x="312" y="368" type="curve"/>
      <point x="312" y="368"/>
      <point x="126" y="368"/>
    </contour>
    <contour>
      <point x="111" y="772" type="curve"/>
      <point x="111" y="772"/>
      <point x="111" y="120"/>
      <point x="111" y="120" type="curve"/>
      <point x="111" y="120"/>
      <point x="140" y="120"/>
      <point x="140" y="120" type="curve"/>
      <point x="140" y="120"/>
      <point x="140" y="772"/>
      <point x="140" y="772" type="curve"/>
      <point x="140" y="772"/>
      <point x="111" y="772"/>
    </contour>
    <contour>
      <point x="294" y="772" type="curve"/>
      <point x="294" y="772"/>
      <point x="294" y="-70"/>
      <point x="294" y="-70" type="curve"/>
      <point x="294" y="-70"/>
      <point x="324" y="-70"/>
      <point x="324" y="-70" type="curve"/>
      <point x="324" y="-70"/>
      <point x="324" y="772"/>
      <point x="324" y="772" type="curve"/>
      <point x="324" y="772"/>
      <point x="294" y="772"/>
    </contour>
    <contour>
      <point x="716" y="371" type="curve"/>
      <point x="716" y="371"/>
      <point x="716" y="-70"/>
      <point x="716" y="-70" type="curve"/>
      <point x="716" y="-70"/>
      <point x="745" y="-70"/>
      <point x="745" y="-70" type="curve"/>
      <point x="745" y="-70"/>
      <point x="745" y="371"/>
      <point x="745" y="371" type="curve"/>
      <point x="745" y="371"/>
      <point x="716" y="371"/>
    </contour>
    <contour>
      <point x="416" y="327" type="curve"/>
      <point x="416" y="327"/>
      <point x="416" y="122"/>
      <point x="416" y="122" type="curve"/>
      <point x="416" y="122"/>
      <point x="445" y="122"/>
      <point x="445" y="122" type="curve"/>
      <point x="445" y="122"/>
      <point x="445" y="327"/>
      <point x="445" y="327" type="curve"/>
      <point x="445" y="327"/>
      <point x="416" y="327"/>
    </contour>
    <contour>
      <point x="880" y="327" type="curve"/>
      <point x="880" y="327"/>
      <point x="880" y="122"/>
      <point x="880" y="122" type="curve"/>
      <point x="880" y="122"/>
      <point x="910" y="122"/>
      <point x="910" y="122" type="curve"/>
      <point x="910" y="122"/>
      <point x="910" y="327"/>
      <point x="910" y="327" type="curve"/>
      <point x="910" y="327"/>
      <point x="880" y="327"/>
    </contour>
    <contour>
      <point x="46" y="118" type="curve"/>
      <point x="46" y="118"/>
      <point x="53" y="88"/>
      <point x="53" y="88" type="curve"/>
      <point x="126" y="105"/>
      <point x="219" y="127"/>
      <point x="313" y="148" type="curve"/>
      <point x="313" y="148"/>
      <point x="311" y="177"/>
      <point x="311" y="177" type="curve"/>
      <point x="211" y="153"/>
      <point x="114" y="131"/>
    </contour>
    <contour>
      <point x="572" y="369" type="curve"/>
      <point x="572" y="369"/>
      <point x="572" y="226"/>
      <point x="572" y="226" type="curve"/>
      <point x="572" y="128"/>
      <point x="557" y="28"/>
      <point x="422" y="-49" type="curve"/>
      <point x="428" y="-54"/>
      <point x="438" y="-64"/>
      <point x="442" y="-70" type="curve"/>
      <point x="583" y="10"/>
      <point x="601" y="116"/>
      <point x="601" y="226" type="curve"/>
      <point x="601" y="226"/>
      <point x="601" y="369"/>
      <point x="601" y="369" type="curve"/>
      <point x="601" y="369"/>
      <point x="572" y="369"/>
    </contour>
  </outline>
</glyph>
<glyph name="uni896F" format="2">
  <advance height="1000" width="1000"/>
  <unicode hex="896F"/>
  <outline>
    <contour>
      <point x="679" y="585" type="line"/>
      <point x="880" y="585" type="line"/>
      <point x="880" y="447" type="line"/>
      <point x="679" y="447" type="line"/>
    </contour>
    <contour>
      <point x="679" y="418" type="line"/>
      <point x="880" y="418" type="line"/>
      <point x="880" y="278" type="line"/>
      <point x="679" y="278" type="line"/>
    </contour>
    <contour>
      <point x="679" y="752" type="line"/>
      <point x="880" y="752" type="line"/>
      <point x="880" y="615" type="line"/>
      <point x="679" y="615" type="line"/>
    </contour>
    <contour>
      <point x="650" y="781" type="line"/>
      <point x="650" y="248" type="line"/>
      <point x="910" y="248" type="line"/>
      <point x="910" y="781" type="line"/>
    </contour>
    <contour>
      <point x="712" y="257" type="line"/>
      <point x="706" y="102"/>
      <point x="680" y="4"/>
      <point x="578" y="-50" type="curve"/>
      <point x="585" y="-55"/>
      <point x="596" y="-65"/>
      <point x="600" y="-72" type="curve"/>
      <point x="707" y="-12"/>
      <point x="734" y="91"/>
      <point x="741" y="257" type="curve"/>
    </contour>
    <contour>
      <point x="316" y="702" type="line"/>
      <point x="316" y="672" type="line"/>
      <point x="608" y="672" type="line"/>
      <point x="608" y="702" type="line"/>
    </contour>
    <contour>
      <point x="325" y="468" type="line"/>
      <point x="325" y="438" type="line"/>
      <point x="599" y="438" type="line"/>
      <point x="599" y="468" type="line"/>
    </contour>
    <contour>
      <point x="306" y="322" type="line"/>
      <point x="306" y="292" type="line"/>
      <point x="611" y="292" type="line"/>
      <point x="611" y="322" type="line"/>
    </contour>
    <contour>
      <point x="344" y="645" type="line"/>
      <point x="368" y="596"/>
      <point x="392" y="532"/>
      <point x="402" y="490" type="curve"/>
      <point x="429" y="499" type="line"/>
      <point x="420" y="540"/>
      <point x="394" y="604"/>
      <point x="370" y="652" type="curve"/>
    </contour>
    <contour>
      <point x="542" y="654" type="line"/>
      <point x="524" y="596"/>
      <point x="487" y="508"/>
      <point x="460" y="456" type="curve"/>
      <point x="484" y="447" type="line"/>
      <point x="513" y="499"/>
      <point x="545" y="579"/>
      <point x="571" y="644" type="curve"/>
    </contour>
    <contour>
      <point x="817" y="258" type="line"/>
      <point x="817" y="0" type="line" smooth="yes"/>
      <point x="817" y="-31"/>
      <point x="819" y="-43"/>
      <point x="828" y="-52" type="curve"/>
      <point x="838" y="-60"/>
      <point x="853" y="-61"/>
      <point x="866" y="-61" type="curve" smooth="yes"/>
      <point x="871" y="-61"/>
      <point x="893" y="-61"/>
      <point x="901" y="-61" type="curve" smooth="yes"/>
      <point x="912" y="-61"/>
      <point x="924" y="-60"/>
      <point x="932" y="-56" type="curve" smooth="yes"/>
      <point x="941" y="-52"/>
      <point x="950" y="-45"/>
      <point x="954" y="-33" type="curve"/>
      <point x="957" y="-22"/>
      <point x="960" y="14"/>
      <point x="960" y="46" type="curve"/>
      <point x="950" y="49"/>
      <point x="938" y="56"/>
      <point x="931" y="62" type="curve"/>
      <point x="931" y="29"/>
      <point x="929" y="0"/>
      <point x="927" y="-12" type="curve"/>
      <point x="925" y="-20"/>
      <point x="920" y="-25"/>
      <point x="917" y="-28" type="curve" smooth="yes"/>
      <point x="914" y="-31"/>
      <point x="904" y="-31"/>
      <point x="895" y="-31" type="curve" smooth="yes"/>
      <point x="887" y="-31"/>
      <point x="875" y="-31"/>
      <point x="868" y="-31" type="curve" smooth="yes"/>
      <point x="861" y="-31"/>
      <point x="855" y="-30"/>
      <point x="852" y="-27" type="curve"/>
      <point x="847" y="-24"/>
      <point x="846" y="-18"/>
      <point x="846" y="-13" type="curve" smooth="yes"/>
      <point x="846" y="258" type="line"/>
    </contour>
    <contour>
      <point x="403" y="818" type="line"/>
      <point x="423" y="785"/>
      <point x="445" y="740"/>
      <point x="455" y="711" type="curve"/>
      <point x="483" y="724" type="line"/>
      <point x="473" y="752"/>
      <point x="450" y="796"/>
      <point x="429" y="829" type="curve"/>
    </contour>
    <contour>
      <point x="447" y="278" type="line"/>
      <point x="502" y="217"/>
      <point x="570" y="132"/>
      <point x="602" y="81" type="curve"/>
      <point x="626" y="97" type="line"/>
      <point x="594" y="148"/>
      <point x="526" y="230"/>
      <point x="470" y="292" type="curve"/>
    </contour>
    <contour>
      <point x="428" y="308" type="line"/>
      <point x="388" y="210"/>
      <point x="327" y="115"/>
      <point x="257" y="49" type="curve"/>
      <point x="266" y="45"/>
      <point x="280" y="38"/>
      <point x="285" y="34" type="curve"/>
      <point x="350" y="100"/>
      <point x="414" y="199"/>
      <point x="457" y="301" type="curve"/>
    </contour>
    <contour>
      <point x="445" y="458" type="line"/>
      <point x="445" y="-67" type="line"/>
      <point x="475" y="-67" type="line"/>
      <point x="475" y="458" type="line"/>
    </contour>
    <contour>
      <point x="143" y="381" type="line"/>
      <point x="143" y="-72" type="line"/>
      <point x="173" y="-72" type="line"/>
      <point x="173" y="416" type="line"/>
    </contour>
    <contour>
      <point x="53" y="663" type="line"/>
      <point x="53" y="633" type="line"/>
      <point x="266" y="633" type="line"/>
      <point x="266" y="663" type="line"/>
    </contour>
    <contour>
      <point x="171" y="407" type="curve"/>
      <point x="152" y="393" type="line"/>
      <point x="177" y="364"/>
      <point x="250" y="258"/>
      <point x="272" y="222" type="curve"/>
      <point x="293" y="241" type="line"/>
      <point x="275" y="269"/>
      <point x="192" y="381"/>
    </contour>
    <contour>
      <point x="253" y="663" type="line"/>
      <point x="253" y="653" type="line"/>
      <point x="211" y="496"/>
      <point x="114" y="327"/>
      <point x="26" y="229" type="curve"/>
      <point x="34" y="226"/>
      <point x="44" y="217"/>
      <point x="49" y="210" type="curve"/>
      <point x="138" y="313"/>
      <point x="236" y="482"/>
      <point x="284" y="655" type="curve"/>
      <point x="266" y="665" type="line"/>
      <point x="260" y="663" type="line"/>
    </contour>
    <contour>
      <point x="288" y="454" type="line"/>
      <point x="270" y="420"/>
      <point x="233" y="367"/>
      <point x="208" y="335" type="curve"/>
      <point x="227" y="322" type="line"/>
      <point x="253" y="352"/>
      <point x="286" y="397"/>
      <point x="311" y="438" type="curve"/>
    </contour>
    <contour>
      <point x="137" y="827" type="line"/>
      <point x="157" y="783"/>
      <point x="180" y="725"/>
      <point x="190" y="688" type="curve"/>
      <point x="218" y="698" type="line"/>
      <point x="207" y="734"/>
      <point x="183" y="791"/>
      <point x="163" y="834" type="curve"/>
    </contour>
  </outline>
</glyph>
<glyph name="uni919A" format="2">
  <advance height="1000" width="1000"/>
  <unicode hex="919A"/>
  <outline>
    <contour>
      <point x="75" y="593" type="curve"/>
      <point x="75" y="593"/>
      <point x="75" y="-67"/>
      <point x="75" y="-67" type="curve"/>
      <point x="75" y="-67"/>
      <point x="104" y="-67"/>
      <point x="104" y="-67" type="curve"/>
      <point x="104" y="-67"/>
      <point x="104" y="564"/>
      <point x="104" y="564" type="curve"/>
      <point x="104" y="564"/>
      <point x="340" y="564"/>
      <point x="340" y="564" type="curve"/>
      <point x="340" y="564"/>
      <point x="340" y="-54"/>
      <point x="340" y="-54" type="curve"/>
      <point x="340" y="-54"/>
      <point x="369" y="-54"/>
      <point x="369" y="-54" type="curve"/>
      <point x="369" y="-54"/>
      <point x="369" y="593"/>
      <point x="369" y="593" type="curve"/>
      <point x="369" y="593"/>
      <point x="75" y="593"/>
    </contour>
    <contour>
      <point x="125" y="208" type="curve"/>
      <point x="125" y="208"/>
      <point x="125" y="179"/>
      <point x="125" y="179" type="curve"/>
      <point x="125" y="179"/>
      <point x="321" y="179"/>
      <point x="321" y="179" type="curve"/>
      <point x="321" y="179"/>
      <point x="321" y="208"/>
      <point x="321" y="208" type="curve"/>
      <point x="321" y="208"/>
      <point x="125" y="208"/>
    </contour>
    <contour>
      <point x="85" y="39" type="curve"/>
      <point x="85" y="39"/>
      <point x="85" y="10"/>
      <point x="85" y="10" type="curve"/>
      <point x="85" y="10"/>
      <point x="353" y="10"/>
      <point x="353" y="10" type="curve"/>
      <point x="353" y="10"/>
      <point x="353" y="39"/>
      <point x="353" y="39" type="curve"/>
      <point x="353" y="39"/>
      <point x="85" y="39"/>
    </contour>
    <contour>
      <point x="49" y="783" type="curve"/>
      <point x="49" y="783"/>
      <point x="49" y="754"/>
      <point x="49" y="754" type="curve"/>
      <point x="49" y="754"/>
      <point x="392" y="754"/>
      <point x="392" y="754" type="curve"/>
      <point x="392" y="754"/>
      <point x="392" y="783"/>
      <point x="392" y="783" type="curve"/>
      <point x="392" y="783"/>
      <point x="49" y="783"/>
    </contour>
    <contour>
      <point x="167" y="772" type="curve"/>
      <point x="167" y="772"/>
      <point x="167" y="573"/>
      <point x="167" y="573" type="curve"/>
      <point x="167" y="573"/>
      <point x="196" y="573"/>
      <point x="196" y="573" type="curve"/>
      <point x="196" y="573"/>
      <point x="196" y="772"/>
      <point x="196" y="772" type="curve"/>
      <point x="196" y="772"/>
      <point x="167" y="772"/>
    </contour>
    <contour>
      <point x="248" y="772" type="curve"/>
      <point x="248" y="772"/>
      <point x="248" y="573"/>
      <point x="248" y="573" type="curve"/>
      <point x="248" y="573"/>
      <point x="277" y="573"/>
      <point x="277" y="573" type="curve"/>
      <point x="277" y="573"/>
      <point x="277" y="772"/>
      <point x="277" y="772" type="curve"/>
      <point x="277" y="772"/>
      <point x="248" y="772"/>
    </contour>
    <contour>
      <point x="167" y="572" type="curve"/>
      <point x="167" y="572"/>
      <point x="167" y="491"/>
      <point x="167" y="491" type="curve"/>
      <point x="167" y="433"/>
      <point x="154" y="357"/>
      <point x="89" y="297" type="curve"/>
      <point x="97" y="294"/>
      <point x="108" y="286"/>
      <point x="113" y="279" type="curve"/>
      <point x="180" y="341"/>
      <point x="196" y="428"/>
      <point x="196" y="491" type="curve"/>
      <point x="196" y="491"/>
      <point x="196" y="572"/>
      <point x="196" y="572" type="curve"/>
      <point x="196" y="572"/>
      <point x="167" y="572"/>
    </contour>
    <contour>
      <point x="248" y="572" type="curve"/>
      <point x="248" y="572"/>
      <point x="248" y="383"/>
      <point x="248" y="383" type="curve"/>
      <point x="248" y="346"/>
      <point x="259" y="341"/>
      <point x="291" y="341" type="curve" smooth="yes"/>
      <point x="295" y="341"/>
      <point x="326" y="341"/>
      <point x="331" y="341" type="curve" smooth="yes"/>
      <point x="354" y="341"/>
      <point x="364" y="349"/>
      <point x="367" y="362" type="curve"/>
      <point x="358" y="364"/>
      <point x="347" y="367"/>
      <point x="340" y="373" type="curve"/>
      <point x="338" y="371"/>
      <point x="335" y="371"/>
      <point x="324" y="371" type="curve" smooth="yes"/>
      <point x="318" y="371"/>
      <point x="296" y="371"/>
      <point x="291" y="371" type="curve" smooth="yes"/>
      <point x="279" y="371"/>
      <point x="277" y="372"/>
      <point x="277" y="383" type="curve"/>
      <point x="277" y="383"/>
      <point x="277" y="572"/>
      <point x="277" y="572" type="curve"/>
      <point x="277" y="572"/>
      <point x="248" y="572"/>
    </contour>
    <contour>
      <point x="401" y="318" type="curve"/>
      <point x="401" y="318"/>
      <point x="537" y="318"/>
      <point x="537" y="318" type="curve"/>
      <point x="537" y="318"/>
      <point x="537" y="347"/>
      <point x="537" y="347" type="curve"/>
      <point x="537" y="347"/>
      <point x="423" y="347"/>
      <point x="423" y="347" type="curve"/>
      <point x="423" y="347"/>
      <point x="401" y="342"/>
      <point x="401" y="342" type="curve"/>
      <point x="401" y="342"/>
      <point x="401" y="318"/>
    </contour>
    <contour>
      <point x="401" y="318" type="curve"/>
      <point x="401" y="324"/>
      <point x="424" y="333"/>
      <point x="424" y="333" type="curve"/>
      <point x="459" y="398"/>
      <point x="525" y="527"/>
      <point x="558" y="593" type="curve"/>
      <point x="558" y="593"/>
      <point x="536" y="604"/>
      <point x="536" y="604" type="curve"/>
      <point x="536" y="604"/>
      <point x="525" y="599"/>
      <point x="525" y="599" type="curve"/>
      <point x="525" y="599"/>
      <point x="525" y="597"/>
      <point x="525" y="597" type="curve"/>
      <point x="499" y="541"/>
      <point x="432" y="406"/>
      <point x="394" y="342" type="curve"/>
      <point x="394" y="342"/>
      <point x="401" y="318"/>
    </contour>
    <contour>
      <point x="394" y="601" type="curve"/>
      <point x="394" y="601"/>
      <point x="394" y="571"/>
      <point x="394" y="571" type="curve"/>
      <point x="394" y="571"/>
      <point x="536" y="571"/>
      <point x="536" y="571" type="curve"/>
      <point x="536" y="571"/>
      <point x="536" y="601"/>
      <point x="536" y="601" type="curve"/>
      <point x="536" y="601"/>
      <point x="394" y="601"/>
    </contour>
    <contour>
      <point x="525" y="347" type="curve"/>
      <point x="525" y="347"/>
      <point x="525" y="339"/>
      <point x="525" y="339" type="curve"/>
      <point x="504" y="159"/>
      <point x="451" y="28"/>
      <point x="376" y="-44" type="curve"/>
      <point x="383" y="-49"/>
      <point x="393" y="-60"/>
      <point x="398" y="-67" type="curve"/>
      <point x="475" y="10"/>
      <point x="532" y="145"/>
      <point x="555" y="342" type="curve"/>
      <point x="555" y="342"/>
      <point x="538" y="348"/>
      <point x="538" y="348" type="curve"/>
      <point x="538" y="348"/>
      <point x="532" y="347"/>
      <point x="532" y="347" type="curve"/>
      <point x="532" y="347"/>
      <point x="525" y="347"/>
    </contour>
    <contour>
      <point x="558" y="476" type="curve"/>
      <point x="558" y="476"/>
      <point x="558" y="447"/>
      <point x="558" y="447" type="curve"/>
      <point x="558" y="447"/>
      <point x="929" y="447"/>
      <point x="929" y="447" type="curve"/>
      <point x="929" y="447"/>
      <point x="929" y="476"/>
      <point x="929" y="476" type="curve"/>
      <point x="929" y="476"/>
      <point x="558" y="476"/>
    </contour>
    <contour>
      <point x="733" y="829" type="curve"/>
      <point x="733" y="829"/>
      <point x="733" y="31"/>
      <point x="733" y="31" type="curve"/>
      <point x="733" y="31"/>
      <point x="763" y="31"/>
      <point x="763" y="31" type="curve"/>
      <point x="763" y="31"/>
      <point x="763" y="829"/>
      <point x="763" y="829" type="curve"/>
      <point x="763" y="829"/>
      <point x="733" y="829"/>
    </contour>
    <contour>
      <point x="575" y="754" type="curve"/>
      <point x="607" y="686"/>
      <point x="642" y="595"/>
      <point x="657" y="543" type="curve"/>
      <point x="657" y="543"/>
      <point x="685" y="554"/>
      <point x="685" y="554" type="curve"/>
      <point x="671" y="605"/>
      <point x="634" y="693"/>
      <point x="602" y="761" type="curve"/>
      <point x="602" y="761"/>
      <point x="575" y="754"/>
    </contour>
    <contour>
      <point x="887" y="768" type="curve"/>
      <point x="869" y="702"/>
      <point x="835" y="602"/>
      <point x="809" y="545" type="curve"/>
      <point x="809" y="545"/>
      <point x="832" y="533"/>
      <point x="832" y="533" type="curve"/>
      <point x="859" y="590"/>
      <point x="892" y="682"/>
      <point x="917" y="754" type="curve"/>
      <point x="917" y="754"/>
      <point x="887" y="768"/>
    </contour>
    <contour>
      <point x="717" y="461" type="curve"/>
      <point x="679" y="331"/>
      <point x="608" y="188"/>
      <point x="543" y="120" type="curve"/>
      <point x="551" y="114"/>
      <point x="561" y="104"/>
      <point x="567" y="96" type="curve"/>
      <point x="632" y="173"/>
      <point x="705" y="316"/>
      <point x="744" y="451" type="curve"/>
      <point x="744" y="451"/>
      <point x="717" y="461"/>
    </contour>
    <contour>
      <point x="738" y="451" type="curve"/>
      <point x="806" y="339"/>
      <point x="885" y="188"/>
      <point x="922" y="103" type="curve"/>
      <point x="922" y="103"/>
      <point x="949" y="120"/>
      <point x="949" y="120" type="curve"/>
      <point x="913" y="203"/>
      <point x="832" y="351"/>
      <point x="764" y="464" type="curve"/>
      <point x="764" y="464"/>
      <point x="738" y="451"/>
    </contour>
    <contour>
      <point x="417" y="807" type="curve"/>
      <point x="448" y="759"/>
      <point x="486" y="693"/>
      <point x="505" y="651" type="curve"/>
      <point x="505" y="651"/>
      <point x="530" y="664"/>
      <point x="530" y="664" type="curve"/>
      <point x="513" y="704"/>
      <point x="475" y="768"/>
      <point x="441" y="817" type="curve"/>
      <point x="441" y="817"/>
      <point x="417" y="807"/>
    </contour>
    <contour>
      <point x="504" y="130" type="curve"/>
      <point x="504" y="130"/>
      <point x="479" y="117"/>
      <point x="479" y="117" type="curve"/>
      <point x="533" y="-28"/>
      <point x="623" y="-62"/>
      <point x="780" y="-62" type="curve" smooth="yes"/>
      <point x="833" y="-62"/>
      <point x="900" y="-61"/>
      <point x="945" y="-58" type="curve"/>
      <point x="947" y="-49"/>
      <point x="951" y="-34"/>
      <point x="956" y="-26" type="curve"/>
      <point x="906" y="-31"/>
      <point x="836" y="-33"/>
      <point x="780" y="-33" type="curve" smooth="yes"/>
      <point x="641" y="-33"/>
      <point x="550" y="-3"/>
    </contour>
  </outline>
</glyph>
<glyph name="uni91A1" format="2">
  <advance height="1000" width="1000"/>
  <unicode hex="91A1"/>
  <outline>
    <contour>
      <point x="626" y="823" type="curve"/>
      <point x="653" y="787"/>
      <point x="683" y="737"/>
      <point x="699" y="706" type="curve"/>
      <point x="699" y="706"/>
      <point x="722" y="722"/>
      <point x="722" y="722" type="curve"/>
      <point x="708" y="752"/>
      <point x="676" y="800"/>
      <point x="649" y="836" type="curve"/>
      <point x="649" y="836"/>
      <point x="626" y="823"/>
    </contour>
    <contour>
      <point x="734" y="706" type="curve"/>
      <point x="734" y="706"/>
      <point x="734" y="564"/>
      <point x="734" y="564" type="curve"/>
      <point x="734" y="521"/>
      <point x="742" y="508"/>
      <point x="780" y="508" type="curve" smooth="yes"/>
      <point x="792" y="508"/>
      <point x="875" y="508"/>
      <point x="892" y="508" type="curve" smooth="yes"/>
      <point x="912" y="508"/>
      <point x="931" y="508"/>
      <point x="941" y="511" type="curve"/>
      <point x="940" y="518"/>
      <point x="939" y="531"/>
      <point x="938" y="538" type="curve"/>
      <point x="926" y="536"/>
      <point x="904" y="536"/>
      <point x="891" y="536" type="curve" smooth="yes"/>
      <point x="875" y="536"/>
      <point x="798" y="536"/>
      <point x="782" y="536" type="curve" smooth="yes"/>
      <point x="767" y="536"/>
      <point x="764" y="541"/>
      <point x="764" y="564" type="curve"/>
      <point x="764" y="564"/>
      <point x="764" y="706"/>
      <point x="764" y="706" type="curve"/>
      <point x="764" y="706"/>
      <point x="734" y="706"/>
    </contour>
    <contour>
      <point x="641" y="375" type="curve"/>
      <point x="641" y="375"/>
      <point x="641" y="-71"/>
      <point x="641" y="-71" type="curve"/>
      <point x="641" y="-71"/>
      <point x="671" y="-71"/>
      <point x="671" y="-71" type="curve"/>
      <point x="671" y="-71"/>
      <point x="671" y="375"/>
      <point x="671" y="375" type="curve"/>
      <point x="671" y="375"/>
      <point x="641" y="375"/>
    </contour>
    <contour>
      <point x="435" y="731" type="curve"/>
      <point x="435" y="731"/>
      <point x="435" y="600"/>
      <point x="435" y="600" type="curve"/>
      <point x="435" y="600"/>
      <point x="465" y="600"/>
      <point x="465" y="600" type="curve"/>
      <point x="465" y="600"/>
      <point x="465" y="702"/>
      <point x="465" y="702" type="curve"/>
      <point x="465" y="702"/>
      <point x="905" y="702"/>
      <point x="905" y="702" type="curve"/>
      <point x="905" y="702"/>
      <point x="905" y="611"/>
      <point x="905" y="611" type="curve"/>
      <point x="905" y="611"/>
      <point x="934" y="611"/>
      <point x="934" y="611" type="curve"/>
      <point x="934" y="611"/>
      <point x="934" y="731"/>
      <point x="934" y="731" type="curve"/>
      <point x="934" y="731"/>
      <point x="435" y="731"/>
    </contour>
    <contour>
      <point x="591" y="508" type="curve"/>
      <point x="552" y="399"/>
      <point x="485" y="297"/>
      <point x="409" y="229" type="curve"/>
      <point x="417" y="224"/>
      <point x="429" y="214"/>
      <point x="434" y="210" type="curve"/>
      <point x="508" y="281"/>
      <point x="577" y="387"/>
      <point x="620" y="501" type="curve"/>
      <point x="620" y="501"/>
      <point x="591" y="508"/>
    </contour>
    <contour>
      <point x="546" y="389" type="curve"/>
      <point x="546" y="389"/>
      <point x="529" y="360"/>
      <point x="529" y="360" type="curve"/>
      <point x="529" y="360"/>
      <point x="948" y="360"/>
      <point x="948" y="360" type="curve"/>
      <point x="948" y="360"/>
      <point x="948" y="389"/>
      <point x="948" y="389" type="curve"/>
      <point x="948" y="389"/>
      <point x="546" y="389"/>
    </contour>
    <contour>
      <point x="654" y="259" type="curve"/>
      <point x="654" y="259"/>
      <point x="654" y="229"/>
      <point x="654" y="229" type="curve"/>
      <point x="654" y="229"/>
      <point x="911" y="229"/>
      <point x="911" y="229" type="curve"/>
      <point x="911" y="229"/>
      <point x="911" y="259"/>
      <point x="911" y="259" type="curve"/>
      <point x="911" y="259"/>
      <point x="654" y="259"/>
    </contour>
    <contour>
      <point x="654" y="118" type="curve"/>
      <point x="654" y="118"/>
      <point x="654" y="88"/>
      <point x="654" y="88" type="curve"/>
      <point x="654" y="88"/>
      <point x="915" y="88"/>
      <point x="915" y="88" type="curve"/>
      <point x="915" y="88"/>
      <point x="915" y="118"/>
      <point x="915" y="118" type="curve"/>
      <point x="915" y="118"/>
      <point x="654" y="118"/>
    </contour>
    <contour>
      <point x="591" y="709" type="curve"/>
      <point x="583" y="588"/>
      <point x="545" y="531"/>
      <point x="422" y="501" type="curve"/>
      <point x="427" y="496"/>
      <point x="436" y="485"/>
      <point x="440" y="478" type="curve"/>
      <point x="570" y="514"/>
      <point x="612" y="576"/>
      <point x="622" y="709" type="curve"/>
      <point x="622" y="709"/>
      <point x="591" y="709"/>
    </contour>
    <contour>
      <point x="71" y="593" type="curve"/>
      <point x="71" y="593"/>
      <point x="71" y="-67"/>
      <point x="71" y="-67" type="curve"/>
      <point x="71" y="-67"/>
      <point x="100" y="-67"/>
      <point x="100" y="-67" type="curve"/>
      <point x="100" y="-67"/>
      <point x="100" y="564"/>
      <point x="100" y="564" type="curve"/>
      <point x="100" y="564"/>
      <point x="360" y="564"/>
      <point x="360" y="564" type="curve"/>
      <point x="360" y="564"/>
      <point x="360" y="-54"/>
      <point x="360" y="-54" type="curve"/>
      <point x="360" y="-54"/>
      <point x="389" y="-54"/>
      <point x="389" y="-54" type="curve"/>
      <point x="389" y="-54"/>
      <point x="389" y="593"/>
      <point x="389" y="593" type="curve"/>
      <point x="389" y="593"/>
      <point x="71" y="593"/>
    </contour>
    <contour>
      <point x="128" y="208" type="curve"/>
      <point x="128" y="208"/>
      <point x="128" y="179"/>
      <point x="128" y="179" type="curve"/>
      <point x="128" y="179"/>
      <point x="334" y="179"/>
      <point x="334" y="179" type="curve"/>
      <point x="334" y="179"/>
      <point x="334" y="208"/>
      <point x="334" y="208" type="curve"/>
      <point x="334" y="208"/>
      <point x="128" y="208"/>
    </contour>
    <contour>
      <point x="79" y="39" type="curve"/>
      <point x="79" y="39"/>
      <point x="79" y="10"/>
      <point x="79" y="10" type="curve"/>
      <point x="79" y="10"/>
      <point x="375" y="10"/>
      <point x="375" y="10" type="curve"/>
      <point x="375" y="10"/>
      <point x="375" y="39"/>
      <point x="375" y="39" type="curve"/>
      <point x="375" y="39"/>
      <point x="79" y="39"/>
    </contour>
    <contour>
      <point x="49" y="781" type="curve"/>
      <point x="49" y="781"/>
      <point x="49" y="752"/>
      <point x="49" y="752" type="curve"/>
      <point x="49" y="752"/>
      <point x="412" y="752"/>
      <point x="412" y="752" type="curve"/>
      <point x="412" y="752"/>
      <point x="412" y="781"/>
      <point x="412" y="781" type="curve"/>
      <point x="412" y="781"/>
      <point x="49" y="781"/>
    </contour>
    <contour>
      <point x="167" y="772" type="curve"/>
      <point x="167" y="772"/>
      <point x="167" y="578"/>
      <point x="167" y="578" type="curve"/>
      <point x="167" y="578"/>
      <point x="196" y="578"/>
      <point x="196" y="578" type="curve"/>
      <point x="196" y="578"/>
      <point x="196" y="772"/>
      <point x="196" y="772" type="curve"/>
      <point x="196" y="772"/>
      <point x="167" y="772"/>
    </contour>
    <contour>
      <point x="259" y="770" type="curve"/>
      <point x="259" y="770"/>
      <point x="259" y="576"/>
      <point x="259" y="576" type="curve"/>
      <point x="259" y="576"/>
      <point x="288" y="576"/>
      <point x="288" y="576" type="curve"/>
      <point x="288" y="576"/>
      <point x="288" y="770"/>
      <point x="288" y="770" type="curve"/>
      <point x="288" y="770"/>
      <point x="259" y="770"/>
    </contour>
    <contour>
      <point x="167" y="579" type="curve"/>
      <point x="167" y="579"/>
      <point x="167" y="484"/>
      <point x="167" y="484" type="curve"/>
      <point x="167" y="425"/>
      <point x="155" y="351"/>
      <point x="93" y="292" type="curve"/>
      <point x="100" y="288"/>
      <point x="111" y="279"/>
      <point x="116" y="273" type="curve"/>
      <point x="182" y="334"/>
      <point x="196" y="421"/>
      <point x="196" y="484" type="curve"/>
      <point x="196" y="484"/>
      <point x="196" y="579"/>
      <point x="196" y="579" type="curve"/>
      <point x="196" y="579"/>
      <point x="167" y="579"/>
    </contour>
    <contour>
      <point x="259" y="579" type="curve"/>
      <point x="259" y="579"/>
      <point x="259" y="382"/>
      <point x="259" y="382" type="curve"/>
      <point x="259" y="345"/>
      <point x="270" y="340"/>
      <point x="303" y="340" type="curve" smooth="yes"/>
      <point x="308" y="340"/>
      <point x="347" y="340"/>
      <point x="353" y="340" type="curve" smooth="yes"/>
      <point x="377" y="340"/>
      <point x="387" y="348"/>
      <point x="389" y="361" type="curve"/>
      <point x="380" y="363"/>
      <point x="369" y="366"/>
      <point x="362" y="372" type="curve"/>
      <point x="360" y="370"/>
      <point x="358" y="370"/>
      <point x="346" y="370" type="curve" smooth="yes"/>
      <point x="338" y="370"/>
      <point x="309" y="370"/>
      <point x="303" y="370" type="curve" smooth="yes"/>
      <point x="290" y="370"/>
      <point x="288" y="372"/>
      <point x="288" y="382" type="curve"/>
      <point x="288" y="382"/>
      <point x="288" y="579"/>
      <point x="288" y="579" type="curve"/>
      <point x="288" y="579"/>
      <point x="259" y="579"/>
    </contour>
  </outline>
</glyph>
<glyph name="uni91A8" format="2">
  <advance height="1000" width="1000"/>
  <unicode hex="91A8"/>
  <outline>
    <contour>
      <point x="427" y="312" type="curve"/>
      <point x="427" y="312"/>
      <point x="427" y="282"/>
      <point x="427" y="282" type="curve"/>
      <point x="427" y="282"/>
      <point x="900" y="282"/>
      <point x="900" y="282" type="curve"/>
      <point x="900" y="282"/>
      <point x="900" y="312"/>
      <point x="900" y="312" type="curve"/>
      <point x="900" y="312"/>
      <point x="427" y="312"/>
    </contour>
    <contour>
      <point x="460" y="352" type="curve"/>
      <point x="460" y="352"/>
      <point x="460" y="-71"/>
      <point x="460" y="-71" type="curve"/>
      <point x="460" y="-71"/>
      <point x="489" y="-71"/>
      <point x="489" y="-71" type="curve"/>
      <point x="489" y="-71"/>
      <point x="489" y="352"/>
      <point x="489" y="352" type="curve"/>
      <point x="489" y="352"/>
      <point x="460" y="352"/>
    </contour>
    <contour>
      <point x="639" y="826" type="curve"/>
      <point x="657" y="790"/>
      <point x="676" y="742"/>
      <point x="685" y="713" type="curve"/>
      <point x="685" y="713"/>
      <point x="712" y="722"/>
      <point x="712" y="722" type="curve"/>
      <point x="704" y="750"/>
      <point x="683" y="797"/>
      <point x="665" y="832" type="curve"/>
      <point x="665" y="832"/>
      <point x="639" y="826"/>
    </contour>
    <contour>
      <point x="427" y="734" type="curve"/>
      <point x="427" y="734"/>
      <point x="427" y="705"/>
      <point x="427" y="705" type="curve"/>
      <point x="427" y="705"/>
      <point x="949" y="705"/>
      <point x="949" y="705" type="curve"/>
      <point x="949" y="705"/>
      <point x="949" y="734"/>
      <point x="949" y="734" type="curve"/>
      <point x="949" y="734"/>
      <point x="427" y="734"/>
    </contour>
    <contour>
      <point x="528" y="107" type="curve"/>
      <point x="528" y="107"/>
      <point x="535" y="77"/>
      <point x="535" y="77" type="curve"/>
      <point x="614" y="83"/>
      <point x="712" y="91"/>
      <point x="813" y="101" type="curve"/>
      <point x="813" y="101"/>
      <point x="813" y="127"/>
      <point x="813" y="127" type="curve"/>
      <point x="707" y="119"/>
      <point x="604" y="111"/>
    </contour>
    <contour>
      <point x="890" y="312" type="curve"/>
      <point x="890" y="312"/>
      <point x="890" y="-29"/>
      <point x="890" y="-29" type="curve"/>
      <point x="890" y="-40"/>
      <point x="886" y="-43"/>
      <point x="875" y="-43" type="curve"/>
      <point x="864" y="-44"/>
      <point x="824" y="-44"/>
      <point x="775" y="-43" type="curve"/>
      <point x="780" y="-51"/>
      <point x="786" y="-62"/>
      <point x="788" y="-69" type="curve"/>
      <point x="848" y="-69"/>
      <point x="880" y="-69"/>
      <point x="898" y="-64" type="curve" smooth="yes"/>
      <point x="915" y="-59"/>
      <point x="919" y="-49"/>
      <point x="919" y="-29" type="curve"/>
      <point x="919" y="-29"/>
      <point x="919" y="312"/>
      <point x="919" y="312" type="curve"/>
      <point x="919" y="312"/>
      <point x="890" y="312"/>
    </contour>
    <contour>
      <point x="736" y="220" type="curve"/>
      <point x="775" y="163"/>
      <point x="813" y="86"/>
      <point x="826" y="37" type="curve"/>
      <point x="826" y="37"/>
      <point x="852" y="50"/>
      <point x="852" y="50" type="curve"/>
      <point x="839" y="98"/>
      <point x="801" y="174"/>
      <point x="761" y="229" type="curve"/>
      <point x="761" y="229"/>
      <point x="736" y="220"/>
    </contour>
    <contour>
      <point x="569" y="626" type="curve"/>
      <point x="648" y="584"/>
      <point x="739" y="519"/>
      <point x="784" y="471" type="curve"/>
      <point x="784" y="471"/>
      <point x="802" y="493"/>
      <point x="802" y="493" type="curve"/>
      <point x="758" y="540"/>
      <point x="666" y="604"/>
      <point x="586" y="645" type="curve"/>
      <point x="586" y="645"/>
      <point x="569" y="626"/>
    </contour>
    <contour>
      <point x="667" y="423" type="curve"/>
      <point x="647" y="326"/>
      <point x="610" y="180"/>
      <point x="578" y="100" type="curve"/>
      <point x="578" y="100"/>
      <point x="603" y="92"/>
      <point x="603" y="92" type="curve"/>
      <point x="635" y="172"/>
      <point x="674" y="313"/>
      <point x="700" y="415" type="curve"/>
      <point x="700" y="415"/>
      <point x="667" y="423"/>
    </contour>
    <contour>
      <point x="483" y="663" type="curve"/>
      <point x="483" y="663"/>
      <point x="483" y="396"/>
      <point x="483" y="396" type="curve"/>
      <point x="483" y="396"/>
      <point x="886" y="396"/>
      <point x="886" y="396" type="curve"/>
      <point x="886" y="396"/>
      <point x="886" y="663"/>
      <point x="886" y="663" type="curve"/>
      <point x="886" y="663"/>
      <point x="857" y="663"/>
      <point x="857" y="663" type="curve"/>
      <point x="857" y="663"/>
      <point x="857" y="425"/>
      <point x="857" y="425" type="curve"/>
      <point x="857" y="425"/>
      <point x="513" y="425"/>
      <point x="513" y="425" type="curve"/>
      <point x="513" y="425"/>
      <point x="513" y="663"/>
      <point x="513" y="663" type="curve"/>
      <point x="513" y="663"/>
      <point x="483" y="663"/>
    </contour>
    <contour>
      <point x="751" y="684" type="curve"/>
      <point x="710" y="599"/>
      <point x="635" y="523"/>
      <point x="555" y="474" type="curve"/>
      <point x="562" y="470"/>
      <point x="574" y="459"/>
      <point x="578" y="455" type="curve"/>
      <point x="657" y="507"/>
      <point x="735" y="586"/>
      <point x="778" y="677" type="curve"/>
      <point x="778" y="677"/>
      <point x="751" y="684"/>
    </contour>
    <contour>
      <point x="75" y="593" type="curve"/>
      <point x="75" y="593"/>
      <point x="75" y="-67"/>
      <point x="75" y="-67" type="curve"/>
      <point x="75" y="-67"/>
      <point x="104" y="-67"/>
      <point x="104" y="-67" type="curve"/>
      <point x="104" y="-67"/>
      <point x="104" y="564"/>
      <point x="104" y="564" type="curve"/>
      <point x="104" y="564"/>
      <point x="360" y="564"/>
      <point x="360" y="564" type="curve"/>
      <point x="360" y="564"/>
      <point x="360" y="-54"/>
      <point x="360" y="-54" type="curve"/>
      <point x="360" y="-54"/>
      <point x="389" y="-54"/>
      <point x="389" y="-54" type="curve"/>
      <point x="389" y="-54"/>
      <point x="389" y="593"/>
      <point x="389" y="593" type="curve"/>
      <point x="389" y="593"/>
      <point x="75" y="593"/>
    </contour>
    <contour>
      <point x="129" y="208" type="curve"/>
      <point x="129" y="208"/>
      <point x="129" y="179"/>
      <point x="129" y="179" type="curve"/>
      <point x="129" y="179"/>
      <point x="335" y="179"/>
      <point x="335" y="179" type="curve"/>
      <point x="335" y="179"/>
      <point x="335" y="208"/>
      <point x="335" y="208" type="curve"/>
      <point x="335" y="208"/>
      <point x="129" y="208"/>
    </contour>
    <contour>
      <point x="85" y="39" type="curve"/>
      <point x="85" y="39"/>
      <point x="85" y="10"/>
      <point x="85" y="10" type="curve"/>
      <point x="85" y="10"/>
      <point x="373" y="10"/>
      <point x="373" y="10" type="curve"/>
      <point x="373" y="10"/>
      <point x="373" y="39"/>
      <point x="373" y="39" type="curve"/>
      <point x="373" y="39"/>
      <point x="85" y="39"/>
    </contour>
    <contour>
      <point x="54" y="776" type="curve"/>
      <point x="54" y="776"/>
      <point x="54" y="747"/>
      <point x="54" y="747" type="curve"/>
      <point x="54" y="747"/>
      <point x="408" y="747"/>
      <point x="408" y="747" type="curve"/>
      <point x="408" y="747"/>
      <point x="408" y="776"/>
      <point x="408" y="776" type="curve"/>
      <point x="408" y="776"/>
      <point x="54" y="776"/>
    </contour>
    <contour>
      <point x="167" y="772" type="curve"/>
      <point x="167" y="772"/>
      <point x="167" y="573"/>
      <point x="167" y="573" type="curve"/>
      <point x="167" y="573"/>
      <point x="196" y="573"/>
      <point x="196" y="573" type="curve"/>
      <point x="196" y="573"/>
      <point x="196" y="772"/>
      <point x="196" y="772" type="curve"/>
      <point x="196" y="772"/>
      <point x="167" y="772"/>
    </contour>
    <contour>
      <point x="260" y="772" type="curve"/>
      <point x="260" y="772"/>
      <point x="260" y="573"/>
      <point x="260" y="573" type="curve"/>
      <point x="260" y="573"/>
      <point x="289" y="573"/>
      <point x="289" y="573" type="curve"/>
      <point x="289" y="573"/>
      <point x="289" y="772"/>
      <point x="289" y="772" type="curve"/>
      <point x="289" y="772"/>
      <point x="260" y="772"/>
    </contour>
    <contour>
      <point x="167" y="572" type="curve"/>
      <point x="167" y="572"/>
      <point x="167" y="491"/>
      <point x="167" y="491" type="curve"/>
      <point x="167" y="433"/>
      <point x="154" y="357"/>
      <point x="89" y="297" type="curve"/>
      <point x="97" y="294"/>
      <point x="108" y="286"/>
      <point x="113" y="279" type="curve"/>
      <point x="180" y="341"/>
      <point x="196" y="428"/>
      <point x="196" y="491" type="curve"/>
      <point x="196" y="491"/>
      <point x="196" y="572"/>
      <point x="196" y="572" type="curve"/>
      <point x="196" y="572"/>
      <point x="167" y="572"/>
    </contour>
    <contour>
      <point x="260" y="572" type="curve"/>
      <point x="260" y="572"/>
      <point x="260" y="383"/>
      <point x="260" y="383" type="curve"/>
      <point x="260" y="346"/>
      <point x="271" y="341"/>
      <point x="303" y="341" type="curve" smooth="yes"/>
      <point x="308" y="341"/>
      <point x="345" y="341"/>
      <point x="351" y="341" type="curve" smooth="yes"/>
      <point x="374" y="341"/>
      <point x="384" y="349"/>
      <point x="387" y="362" type="curve"/>
      <point x="378" y="364"/>
      <point x="367" y="367"/>
      <point x="360" y="373" type="curve"/>
      <point x="358" y="371"/>
      <point x="355" y="371"/>
      <point x="344" y="371" type="curve" smooth="yes"/>
      <point x="336" y="371"/>
      <point x="309" y="371"/>
      <point x="303" y="371" type="curve" smooth="yes"/>
      <point x="291" y="371"/>
      <point x="289" y="372"/>
      <point x="289" y="383" type="curve"/>
      <point x="289" y="383"/>
      <point x="289" y="572"/>
      <point x="289" y="572" type="curve"/>
      <point x="289" y="572"/>
      <point x="260" y="572"/>
    </contour>
  </outline>
</glyph>
<glyph name="uni91BE" format="2">
  <advance height="1000" width="1000"/>
  <unicode hex="91BE"/>
  <outline>
    <contour>
      <point x="521" y="541" type="curve"/>
      <point x="521" y="541"/>
      <point x="521" y="494"/>
      <point x="521" y="494" type="curve"/>
      <point x="521" y="450"/>
      <point x="517" y="394"/>
      <point x="485" y="358" type="curve"/>
      <point x="493" y="354"/>
      <point x="505" y="345"/>
      <point x="510" y="338" type="curve"/>
      <point x="545" y="382"/>
      <point x="551" y="440"/>
      <point x="551" y="494" type="curve"/>
      <point x="551" y="494"/>
      <point x="551" y="541"/>
      <point x="551" y="541" type="curve"/>
      <point x="551" y="541"/>
      <point x="521" y="541"/>
    </contour>
    <contour>
      <point x="752" y="541" type="curve"/>
      <point x="752" y="541"/>
      <point x="752" y="498"/>
      <point x="752" y="498" type="curve"/>
      <point x="752" y="456"/>
      <point x="746" y="400"/>
      <point x="721" y="364" type="curve"/>
      <point x="729" y="361"/>
      <point x="741" y="351"/>
      <point x="747" y="344" type="curve"/>
      <point x="774" y="388"/>
      <point x="781" y="445"/>
      <point x="781" y="497" type="curve"/>
      <point x="781" y="497"/>
      <point x="781" y="541"/>
      <point x="781" y="541" type="curve"/>
      <point x="781" y="541"/>
      <point x="752" y="541"/>
    </contour>
    <contour>
      <point x="587" y="685" type="curve"/>
      <point x="587" y="685"/>
      <point x="587" y="366"/>
      <point x="587" y="366" type="curve"/>
      <point x="587" y="366"/>
      <point x="617" y="366"/>
      <point x="617" y="366" type="curve"/>
      <point x="617" y="366"/>
      <point x="617" y="685"/>
      <point x="617" y="685" type="curve"/>
      <point x="617" y="685"/>
      <point x="587" y="685"/>
    </contour>
    <contour>
      <point x="816" y="685" type="curve"/>
      <point x="816" y="685"/>
      <point x="816" y="368"/>
      <point x="816" y="368" type="curve"/>
      <point x="816" y="368"/>
      <point x="845" y="368"/>
      <point x="845" y="368" type="curve"/>
      <point x="845" y="368"/>
      <point x="845" y="685"/>
      <point x="845" y="685" type="curve"/>
      <point x="845" y="685"/>
      <point x="816" y="685"/>
    </contour>
    <contour>
      <point x="500" y="605" type="curve"/>
      <point x="500" y="605"/>
      <point x="500" y="575"/>
      <point x="500" y="575" type="curve"/>
      <point x="500" y="575"/>
      <point x="708" y="575"/>
      <point x="708" y="575" type="curve"/>
      <point x="708" y="575"/>
      <point x="708" y="605"/>
      <point x="708" y="605" type="curve"/>
      <point x="708" y="605"/>
      <point x="500" y="605"/>
    </contour>
    <contour>
      <point x="732" y="605" type="curve"/>
      <point x="732" y="605"/>
      <point x="732" y="575"/>
      <point x="732" y="575" type="curve"/>
      <point x="732" y="575"/>
      <point x="941" y="575"/>
      <point x="941" y="575" type="curve"/>
      <point x="941" y="575"/>
      <point x="941" y="605"/>
      <point x="941" y="605" type="curve"/>
      <point x="941" y="605"/>
      <point x="732" y="605"/>
    </contour>
    <contour>
      <point x="653" y="541" type="curve"/>
      <point x="653" y="541"/>
      <point x="653" y="440"/>
      <point x="653" y="440" type="curve"/>
      <point x="653" y="397"/>
      <point x="658" y="385"/>
      <point x="686" y="385" type="curve" smooth="yes"/>
      <point x="694" y="385"/>
      <point x="687" y="385"/>
      <point x="691" y="385" type="curve" smooth="yes"/>
      <point x="698" y="385"/>
      <point x="708" y="386"/>
      <point x="715" y="388" type="curve"/>
      <point x="714" y="395"/>
      <point x="712" y="408"/>
      <point x="712" y="415" type="curve"/>
      <point x="704" y="414"/>
      <point x="696" y="413"/>
      <point x="691" y="413" type="curve" smooth="yes"/>
      <point x="687" y="413"/>
      <point x="692" y="413"/>
      <point x="688" y="413" type="curve" smooth="yes"/>
      <point x="682" y="413"/>
      <point x="682" y="417"/>
      <point x="682" y="439" type="curve"/>
      <point x="682" y="439"/>
      <point x="682" y="541"/>
      <point x="682" y="541" type="curve"/>
      <point x="682" y="541"/>
      <point x="653" y="541"/>
    </contour>
    <contour>
      <point x="880" y="541" type="curve"/>
      <point x="880" y="541"/>
      <point x="880" y="436"/>
      <point x="880" y="436" type="curve"/>
      <point x="880" y="394"/>
      <point x="885" y="382"/>
      <point x="914" y="382" type="curve" smooth="yes"/>
      <point x="922" y="382"/>
      <point x="920" y="382"/>
      <point x="924" y="382" type="curve" smooth="yes"/>
      <point x="932" y="382"/>
      <point x="943" y="382"/>
      <point x="950" y="384" type="curve"/>
      <point x="949" y="391"/>
      <point x="947" y="404"/>
      <point x="946" y="411" type="curve"/>
      <point x="938" y="410"/>
      <point x="930" y="410"/>
      <point x="924" y="410" type="curve" smooth="yes"/>
      <point x="920" y="410"/>
      <point x="920" y="410"/>
      <point x="916" y="410" type="curve" smooth="yes"/>
      <point x="910" y="410"/>
      <point x="910" y="413"/>
      <point x="910" y="435" type="curve"/>
      <point x="910" y="435"/>
      <point x="910" y="541"/>
      <point x="910" y="541" type="curve"/>
      <point x="910" y="541"/>
      <point x="880" y="541"/>
    </contour>
    <contour>
      <point x="499" y="181" type="curve"/>
      <point x="499" y="181"/>
      <point x="499" y="152"/>
      <point x="499" y="152" type="curve"/>
      <point x="499" y="152"/>
      <point x="947" y="152"/>
      <point x="947" y="152" type="curve"/>
      <point x="947" y="152"/>
      <point x="947" y="181"/>
      <point x="947" y="181" type="curve"/>
      <point x="947" y="181"/>
      <point x="499" y="181"/>
    </contour>
    <contour>
      <point x="542" y="317" type="curve"/>
      <point x="573" y="278"/>
      <point x="611" y="224"/>
      <point x="631" y="193" type="curve"/>
      <point x="631" y="193"/>
      <point x="650" y="209"/>
      <point x="650" y="209" type="curve"/>
      <point x="631" y="239"/>
      <point x="593" y="291"/>
      <point x="562" y="328" type="curve"/>
      <point x="562" y="328"/>
      <point x="542" y="317"/>
    </contour>
    <contour>
      <point x="699" y="330" type="curve"/>
      <point x="699" y="330"/>
      <point x="699" y="-69"/>
      <point x="699" y="-69" type="curve"/>
      <point x="699" y="-69"/>
      <point x="728" y="-69"/>
      <point x="728" y="-69" type="curve"/>
      <point x="728" y="-69"/>
      <point x="728" y="330"/>
      <point x="728" y="330" type="curve"/>
      <point x="728" y="330"/>
      <point x="699" y="330"/>
    </contour>
    <contour>
      <point x="873" y="329" type="curve"/>
      <point x="853" y="294"/>
      <point x="814" y="240"/>
      <point x="785" y="208" type="curve"/>
      <point x="785" y="208"/>
      <point x="808" y="195"/>
      <point x="808" y="195" type="curve"/>
      <point x="836" y="226"/>
      <point x="872" y="272"/>
      <point x="901" y="315" type="curve"/>
      <point x="901" y="315"/>
      <point x="873" y="329"/>
    </contour>
    <contour>
      <point x="701" y="172" type="curve"/>
      <point x="653" y="100"/>
      <point x="558" y="26"/>
      <point x="476" y="-9" type="curve"/>
      <point x="483" y="-13"/>
      <point x="492" y="-23"/>
      <point x="498" y="-31" type="curve"/>
      <point x="578" y="7"/>
      <point x="675" y="85"/>
      <point x="725" y="161" type="curve"/>
      <point x="725" y="161"/>
      <point x="701" y="172"/>
    </contour>
    <contour>
      <point x="729" y="169" type="curve"/>
      <point x="729" y="169"/>
      <point x="707" y="158"/>
      <point x="707" y="158" type="curve"/>
      <point x="755" y="89"/>
      <point x="848" y="11"/>
      <point x="922" y="-25" type="curve"/>
      <point x="927" y="-18"/>
      <point x="936" y="-7"/>
      <point x="944" y="-3" type="curve"/>
      <point x="868" y="30"/>
      <point x="775" y="103"/>
    </contour>
    <contour>
      <point x="646" y="819" type="curve"/>
      <point x="665" y="787"/>
      <point x="684" y="743"/>
      <point x="694" y="716" type="curve"/>
      <point x="694" y="716"/>
      <point x="721" y="727"/>
      <point x="721" y="727" type="curve"/>
      <point x="711" y="755"/>
      <point x="690" y="797"/>
      <point x="671" y="829" type="curve"/>
      <point x="671" y="829"/>
      <point x="646" y="819"/>
    </contour>
    <contour>
      <point x="460" y="733" type="curve"/>
      <point x="460" y="733"/>
      <point x="460" y="704"/>
      <point x="460" y="704" type="curve"/>
      <point x="460" y="704"/>
      <point x="941" y="704"/>
      <point x="941" y="704" type="curve"/>
      <point x="941" y="704"/>
      <point x="941" y="733"/>
      <point x="941" y="733" type="curve"/>
      <point x="941" y="733"/>
      <point x="460" y="733"/>
    </contour>
    <contour>
      <point x="442" y="733" type="curve"/>
      <point x="442" y="733"/>
      <point x="442" y="475"/>
      <point x="442" y="475" type="curve"/>
      <point x="442" y="333"/>
      <point x="437" y="133"/>
      <point x="386" y="-17" type="curve"/>
      <point x="392" y="-19"/>
      <point x="404" y="-29"/>
      <point x="409" y="-36" type="curve"/>
      <point x="464" y="120"/>
      <point x="472" y="330"/>
      <point x="472" y="475" type="curve"/>
      <point x="472" y="475"/>
      <point x="472" y="733"/>
      <point x="472" y="733" type="curve"/>
      <point x="472" y="733"/>
      <point x="442" y="733"/>
    </contour>
    <contour>
      <point x="71" y="593" type="curve"/>
      <point x="71" y="593"/>
      <point x="71" y="-67"/>
      <point x="71" y="-67" type="curve"/>
      <point x="71" y="-67"/>
      <point x="100" y="-67"/>
      <point x="100" y="-67" type="curve"/>
      <point x="100" y="-67"/>
      <point x="100" y="564"/>
      <point x="100" y="564" type="curve"/>
      <point x="100" y="564"/>
      <point x="360" y="564"/>
      <point x="360" y="564" type="curve"/>
      <point x="360" y="564"/>
      <point x="360" y="-54"/>
      <point x="360" y="-54" type="curve"/>
      <point x="360" y="-54"/>
      <point x="389" y="-54"/>
      <point x="389" y="-54" type="curve"/>
      <point x="389" y="-54"/>
      <point x="389" y="593"/>
      <point x="389" y="593" type="curve"/>
      <point x="389" y="593"/>
      <point x="71" y="593"/>
    </contour>
    <contour>
      <point x="132" y="208" type="curve"/>
      <point x="132" y="208"/>
      <point x="132" y="179"/>
      <point x="132" y="179" type="curve"/>
      <point x="132" y="179"/>
      <point x="329" y="179"/>
      <point x="329" y="179" type="curve"/>
      <point x="329" y="179"/>
      <point x="329" y="208"/>
      <point x="329" y="208" type="curve"/>
      <point x="329" y="208"/>
      <point x="132" y="208"/>
    </contour>
    <contour>
      <point x="79" y="39" type="curve"/>
      <point x="79" y="39"/>
      <point x="79" y="10"/>
      <point x="79" y="10" type="curve"/>
      <point x="79" y="10"/>
      <point x="375" y="10"/>
      <point x="375" y="10" type="curve"/>
      <point x="375" y="10"/>
      <point x="375" y="39"/>
      <point x="375" y="39" type="curve"/>
      <point x="375" y="39"/>
      <point x="79" y="39"/>
    </contour>
    <contour>
      <point x="49" y="781" type="curve"/>
      <point x="49" y="781"/>
      <point x="49" y="752"/>
      <point x="49" y="752" type="curve"/>
      <point x="49" y="752"/>
      <point x="412" y="752"/>
      <point x="412" y="752" type="curve"/>
      <point x="412" y="752"/>
      <point x="412" y="781"/>
      <point x="412" y="781" type="curve"/>
      <point x="412" y="781"/>
      <point x="49" y="781"/>
    </contour>
    <contour>
      <point x="167" y="772" type="curve"/>
      <point x="167" y="772"/>
      <point x="167" y="578"/>
      <point x="167" y="578" type="curve"/>
      <point x="167" y="578"/>
      <point x="196" y="578"/>
      <point x="196" y="578" type="curve"/>
      <point x="196" y="578"/>
      <point x="196" y="772"/>
      <point x="196" y="772" type="curve"/>
      <point x="196" y="772"/>
      <point x="167" y="772"/>
    </contour>
    <contour>
      <point x="259" y="770" type="curve"/>
      <point x="259" y="770"/>
      <point x="259" y="576"/>
      <point x="259" y="576" type="curve"/>
      <point x="259" y="576"/>
      <point x="288" y="576"/>
      <point x="288" y="576" type="curve"/>
      <point x="288" y="576"/>
      <point x="288" y="770"/>
      <point x="288" y="770" type="curve"/>
      <point x="288" y="770"/>
      <point x="259" y="770"/>
    </contour>
    <contour>
      <point x="167" y="579" type="curve"/>
      <point x="167" y="579"/>
      <point x="167" y="484"/>
      <point x="167" y="484" type="curve"/>
      <point x="167" y="425"/>
      <point x="155" y="351"/>
      <point x="93" y="292" type="curve"/>
      <point x="100" y="288"/>
      <point x="111" y="279"/>
      <point x="116" y="273" type="curve"/>
      <point x="182" y="334"/>
      <point x="196" y="421"/>
      <point x="196" y="484" type="curve"/>
      <point x="196" y="484"/>
      <point x="196" y="579"/>
      <point x="196" y="579" type="curve"/>
      <point x="196" y="579"/>
      <point x="167" y="579"/>
    </contour>
    <contour>
      <point x="259" y="579" type="curve"/>
      <point x="259" y="579"/>
      <point x="259" y="382"/>
      <point x="259" y="382" type="curve"/>
      <point x="259" y="345"/>
      <point x="270" y="340"/>
      <point x="303" y="340" type="curve" smooth="yes"/>
      <point x="308" y="340"/>
      <point x="347" y="340"/>
      <point x="353" y="340" type="curve" smooth="yes"/>
      <point x="377" y="340"/>
      <point x="387" y="348"/>
      <point x="389" y="361" type="curve"/>
      <point x="380" y="363"/>
      <point x="369" y="366"/>
      <point x="362" y="372" type="curve"/>
      <point x="360" y="370"/>
      <point x="358" y="370"/>
      <point x="346" y="370" type="curve" smooth="yes"/>
      <point x="338" y="370"/>
      <point x="309" y="370"/>
      <point x="303" y="370" type="curve" smooth="yes"/>
      <point x="290" y="370"/>
      <point x="288" y="372"/>
      <point x="288" y="382" type="curve"/>
      <point x="288" y="382"/>
      <point x="288" y="579"/>
      <point x="288" y="579" type="curve"/>
      <point x="288" y="579"/>
      <point x="259" y="579"/>
    </contour>
  </outline>
</glyph>
